<svg xmlns="http://www.w3.org/2000/svg" width="27.476" height="150" viewBox="0 0 27.476 150">
  <g id="noun_Arrow_3022745" transform="translate(-43.18 -12.797)">
    <g id="Grupo_21159" data-name="Grupo 21159" transform="translate(54.905 12.797)">
      <rect id="Rectángulo_800" data-name="Rectángulo 800" width="4.029" height="146.613" fill="#e8e34a"/>
    </g>
    <g id="Grupo_21160" data-name="Grupo 21160" transform="translate(43.18 144.582)">
      <path id="Trazado_39271" data-name="Trazado 39271" d="M56.871,96.426h-.01a4.976,4.976,0,0,1-3.995-2.182l-9.3-12.837a2.014,2.014,0,1,1,3.262-2.363l9.3,12.837a1.053,1.053,0,0,0,.743.518h0a1.056,1.056,0,0,0,.743-.512l9.4-12.849a2.014,2.014,0,1,1,3.252,2.377l-9.4,12.849A4.984,4.984,0,0,1,56.871,96.426Z" transform="translate(-43.18 -78.212)" fill="#e8e34a"/>
    </g>
  </g>
</svg>
