<svg xmlns="http://www.w3.org/2000/svg" xmlns:xlink="http://www.w3.org/1999/xlink" width="614.651" height="742.898" viewBox="0 0 614.651 742.898">
  <defs>
    <linearGradient id="linear-gradient" x1="0.482" y1="0.335" x2="0.753" y2="2.124" gradientUnits="objectBoundingBox">
      <stop offset="0" stop-color="#f2f2f2"/>
      <stop offset="1" stop-color="#797979"/>
    </linearGradient>
  </defs>
  <g id="Grupo_22005" data-name="Grupo 22005" transform="translate(-720 -1618.602)">
    <ellipse id="Elipse_1757" data-name="Elipse 1757" cx="221.288" cy="221.516" rx="221.288" ry="221.516" transform="translate(967.74 1682.665) rotate(34)" opacity="0.1" fill="url(#linear-gradient)"/>
    <g id="Grupo_22002" data-name="Grupo 22002" transform="translate(0 -18.397)" opacity="0.6">
      <path id="Trazado_39874" data-name="Trazado 39874" d="M-3415.25-14264.191l117.655,67.951s28.334-14.947,28.745-17.832-.572-6.116-7.016-9.273-139.385-80.048-139.385-80.048Z" transform="translate(4559.391 16376.521)" fill="#e9fcfe" opacity="0.603"/>
      <path id="Trazado_39873" data-name="Trazado 39873" d="M-3515.859-14615.973c3.147-.429,14.988-7.673,25.52,14.5s1.646,30.037,1.646,30.037-11.012,7.083-23.454-9.007S-3519.006-14615.541-3515.859-14615.973Z" transform="matrix(0.996, -0.087, 0.087, 0.996, 5780.085, 15898.245)" fill="#e8e34a"/>
      <path id="Trazado_39872" data-name="Trazado 39872" d="M-3457.034-14089l-180.619-106.372-30.113,16.616s-9.275,4.974,0,11.293,165.48,95.924,165.48,95.924,7.448,2.66,18.191-1.843S-3457.034-14089-3457.034-14089Z" transform="translate(4464.73 16416.367)" fill="#e9fcfe" opacity="0.603"/>
      <path id="Trazado_39864" data-name="Trazado 39864" d="M-3422.138-14396.951v239.774l-60.35,35.986v-240.954l-58.821-34.807,58.821-34.066Z" transform="translate(4566.28 16378.725)" fill="#e8e34a"/>
      <path id="Trazado_39870" data-name="Trazado 39870" d="M-3485.919-14327.165l-60.82,35.547v66.778l43.89-24.177s-3.407-17.986,5-25.164,11.933-9.82,11.933-9.82Z" transform="translate(4510.892 16367.752)" fill="#e8e34a"/>
      <path id="Trazado_39871" data-name="Trazado 39871" d="M-3486.209-14409.256v124.359l-41.414-22.752s2.09-20.3-2.775-23.774-1.025-2.445-1.025-2.445l-2.233-2.637-4.069-1.642-6.83-3.913-1.4-1.539,1.4-2.153,1.864-2.1,1.057-3.9v-4.015l-1.057-5.611-3.263-1.592v-80.687Z" transform="translate(4511.181 16324.781)" fill="#e9fcfe" opacity="0.603"/>
      <path id="Trazado_39869" data-name="Trazado 39869" d="M-3546.483-14251.989l59.907,34.62v112.43l-59.907-32.787Z" transform="translate(4510.985 16395.479)" fill="#e9fcfe" opacity="0.603"/>
    </g>
    <g id="Grupo_21289" data-name="Grupo 21289" transform="translate(779 1618.603)">
      <g id="Grupo_21161" data-name="Grupo 21161" transform="translate(295.892 505.784)">
        <rect id="Rectángulo_801" data-name="Rectángulo 801" width="11.167" height="0.894" transform="translate(0 5.582) rotate(-29.995)" fill="#6e39b7"/>
      </g>
      <g id="Grupo_21162" data-name="Grupo 21162" transform="translate(275.474 520.909)">
        <rect id="Rectángulo_802" data-name="Rectángulo 802" width="4.424" height="0.894" transform="translate(0 2.212) rotate(-29.995)" fill="#6e39b7"/>
      </g>
      <g id="Grupo_21163" data-name="Grupo 21163" transform="translate(245.386 531.872)">
        <rect id="Rectángulo_803" data-name="Rectángulo 803" width="17.173" height="0.894" transform="translate(0 8.585) rotate(-29.995)" fill="#6e39b7"/>
      </g>
      <g id="Grupo_21166" data-name="Grupo 21166" transform="translate(0 586.882)">
        <path id="Trazado_39274" data-name="Trazado 39274" d="M-1323.275,890.2a35.888,35.888,0,0,1-7.845-.847,28.773,28.773,0,0,1-8.14-3.171l-162.867-94.03a20.96,20.96,0,0,1-10.914-18.232c0-5.1,4.526-11.556,9-15.3l.573.687c-4.311,3.606-8.677,9.782-8.677,14.609a20.075,20.075,0,0,0,10.465,17.456l162.872,94.033a27.784,27.784,0,0,0,7.887,3.072A37.289,37.289,0,0,0-1315,888.4a34.363,34.363,0,0,0,9.7-3.7l258.279-149.126,3.03-.7-260.862,150.6a35.276,35.276,0,0,1-9.956,3.8A39.427,39.427,0,0,1-1323.275,890.2Z" transform="translate(1513.041 -734.181)" fill="#6e39b7"/>
      </g>
      <g id="Grupo_21167" data-name="Grupo 21167" transform="translate(465.775 534.458)">
        <path id="Trazado_39275" data-name="Trazado 39275" d="M-991.761,720.821l-.447-.775,43.1-24.883a26.114,26.114,0,0,0,7.075-5.894,15.117,15.117,0,0,0,1.487-16.7,14.671,14.671,0,0,0-5.521-5.71l.449-.773a15.56,15.56,0,0,1,5.857,6.057,16.019,16.019,0,0,1-1.583,17.7,27.062,27.062,0,0,1-7.317,6.1Z" transform="translate(992.208 -666.086)" fill="#6e39b7"/>
      </g>
      <g id="Grupo_21179" data-name="Grupo 21179" transform="translate(12.957 436.094)">
        <g id="Grupo_21173" data-name="Grupo 21173" transform="translate(0.007 0)">
          <g id="Grupo_21172" data-name="Grupo 21172">
            <g id="Grupo_21168" data-name="Grupo 21168" transform="translate(0 101.91)">
              <path id="Trazado_39276" data-name="Trazado 39276" d="M-1321.011,841.743a17.558,17.558,0,0,1-8.609-1.979L-1494.98,744.3c-2.3-1.328-3.564-3.185-3.564-5.231,0-2.438,1.8-4.878,4.952-6.7l107.939-62.319.447.774-107.939,62.319c-2.863,1.653-4.5,3.812-4.5,5.921,0,1.712,1.107,3.294,3.117,4.455l165.359,95.469c4.818,2.783,13.283,2.424,18.867-.8l260.609-150.43-6.879,4.87L-1309.86,838.964A22.917,22.917,0,0,1-1321.011,841.743Z" transform="translate(1498.544 -670.051)" fill="#6e39b7"/>
            </g>
            <g id="Grupo_21169" data-name="Grupo 21169" transform="translate(352.211)">
              <path id="Trazado_39277" data-name="Trazado 39277" d="M-1020.934,684.141l-.447-.775,58.213-33.606c2.863-1.653,4.5-3.811,4.5-5.92,0-1.713-1.107-3.3-3.118-4.456L-1104.7,556.869l.447-.774,142.917,82.514c2.3,1.327,3.566,3.185,3.566,5.231,0,2.437-1.8,4.877-4.952,6.695Z" transform="translate(1104.699 -556.095)" fill="#6e39b7"/>
            </g>
            <g id="Grupo_21170" data-name="Grupo 21170" transform="translate(377.586 33.485)">
              <path id="Trazado_39278" data-name="Trazado 39278" d="M-1041.519,615.788a3.327,3.327,0,0,1-1.637-.385l-32.385-18.7a1.4,1.4,0,0,1-.784-1.2,1.767,1.767,0,0,1,1.018-1.449,4.046,4.046,0,0,1,3.7-.134l32.385,18.7a1.4,1.4,0,0,1,.785,1.2,1.768,1.768,0,0,1-1.019,1.448A4.215,4.215,0,0,1-1041.519,615.788Zm-31.723-21.356a3.343,3.343,0,0,0-1.619.4c-.352.2-.571.461-.571.674s.211.353.337.427l32.385,18.7a3.172,3.172,0,0,0,2.8-.135c.352-.2.572-.461.572-.672s-.211-.354-.338-.427l-32.385-18.7A2.415,2.415,0,0,0-1073.241,594.432Z" transform="translate(1076.325 -593.538)" fill="#6e39b7"/>
            </g>
            <g id="Grupo_21171" data-name="Grupo 21171" transform="translate(83.855 199.201)">
              <path id="Trazado_39279" data-name="Trazado 39279" d="M-1373.572,804.841a3.693,3.693,0,0,1-1.816-.426l-28.531-16.473a1.518,1.518,0,0,1-.857-1.3,1.936,1.936,0,0,1,1.12-1.582l9.76-5.635a4.5,4.5,0,0,1,4.105-.152l28.532,16.473a1.517,1.517,0,0,1,.857,1.3,1.937,1.937,0,0,1-1.12,1.583l-9.76,5.635A4.682,4.682,0,0,1-1373.572,804.841Zm-1.369-1.2a3.638,3.638,0,0,0,3.211-.152l9.76-5.636c.42-.243.673-.545.673-.807s-.257-.442-.41-.53l-28.531-16.473a3.632,3.632,0,0,0-3.211.152l-9.76,5.635c-.42.243-.672.545-.672.807s.257.443.409.53Z" transform="translate(1404.777 -778.843)" fill="#6e39b7"/>
            </g>
          </g>
        </g>
        <g id="Grupo_21174" data-name="Grupo 21174" transform="translate(0 170.28)">
          <path id="Trazado_39280" data-name="Trazado 39280" d="M-1325.591,865.684a.472.472,0,0,1-.1-.012,13.957,13.957,0,0,1-3.932-1.507L-1494.979,768.7c-2.287-1.307-3.544-3.149-3.552-5.2a.383.383,0,0,1-.022-.129V746.95a.447.447,0,0,1,.447-.447l.011.447h.436v16.3a.408.408,0,0,1,.022.137c-.04,1.76,1.061,3.372,3.1,4.54l165.359,95.47a12.569,12.569,0,0,0,3.135,1.273V848.9h.895v16.336a.448.448,0,0,1-.168.35A.449.449,0,0,1-1325.591,865.684Z" transform="translate(1498.552 -746.503)" fill="#6e39b7"/>
        </g>
        <g id="Grupo_21175" data-name="Grupo 21175" transform="translate(182.303 176.48)">
          <path id="Trazado_39281" data-name="Trazado 39281" d="M-1294.253,866.33a.445.445,0,0,1-.28-.1.446.446,0,0,1-.167-.349V849.547h.895v15.771a19.772,19.772,0,0,0,5.05-1.976L-1098.4,753.436l.447.774-190.359,109.907a21.012,21.012,0,0,1-5.848,2.2A.446.446,0,0,1-1294.253,866.33Z" transform="translate(1294.7 -753.436)" fill="#6e39b7"/>
        </g>
        <g id="Grupo_21176" data-name="Grupo 21176" transform="translate(377.873 166.036)">
          <path id="Trazado_39891" data-name="Trazado 39891" d="M1.182-.576l77.6-.038-2.17.908H.886Z" transform="translate(0 11.557) rotate(-29.995)" fill="#6e39b7"/>
        </g>
        <g id="Grupo_21177" data-name="Grupo 21177" transform="translate(441.86 87.906)">
          <path id="Trazado_39282" data-name="Trazado 39282" d="M-1004.015,707.221l-.447-.774,51.892-29.96c3.084-1.791,4.709-4.115,4.456-6.372l0-12.815a11.236,11.236,0,0,1-4.007,3.626l-.447-.775c2.582-1.489,4.206-3.447,4.457-5.369a.457.457,0,0,1,.472-.389.447.447,0,0,1,.419.446v15.227c.291,2.576-1.493,5.216-4.9,7.195Z" transform="translate(1004.462 -654.392)" fill="#6e39b7"/>
        </g>
        <g id="Grupo_21178" data-name="Grupo 21178" transform="translate(172.863 288.49)">
          <path id="Trazado_39283" data-name="Trazado 39283" d="M-1300.591,880.14a21.427,21.427,0,0,1-4.664-.494l.2-.873a22.947,22.947,0,0,0,9.594-.088l.192.873A24.865,24.865,0,0,1-1300.591,880.14Z" transform="translate(1305.255 -878.686)" fill="#6e39b7"/>
        </g>
      </g>
      <g id="Grupo_21183" data-name="Grupo 21183" transform="translate(398.413 188.699)">
        <g id="Grupo_21180" data-name="Grupo 21180" transform="translate(4.016 0.632)">
          <rect id="Rectángulo_805" data-name="Rectángulo 805" width="0.894" height="127.418" fill="#6e39b7"/>
        </g>
        <g id="Grupo_21181" data-name="Grupo 21181" transform="translate(4.017 133.041)">
          <path id="Trazado_39284" data-name="Trazado 39284" d="M-1062.148,476.515h-.894v-3.577h.894Zm0-8.943h-.894v-3.577h.894Zm0-8.943h-.894v-3.577h.894Zm0-8.943h-.894v-3.577h.894Zm0-8.943h-.894v-3.577h.894Zm0-8.943h-.894v-3.577h.894Z" transform="translate(1063.042 -428.223)" fill="#6e39b7"/>
        </g>
        <g id="Grupo_21182" data-name="Grupo 21182" transform="translate(0)">
          <path id="Trazado_39285" data-name="Trazado 39285" d="M-1066.9,284.592l-.632-.632,4.5-4.5,4.423,4.423-.632.632-3.791-3.791Z" transform="translate(1067.533 -279.456)" fill="#6e39b7"/>
        </g>
      </g>
      <g id="Grupo_21187" data-name="Grupo 21187" transform="translate(348.181 77.788)">
        <g id="Grupo_21184" data-name="Grupo 21184" transform="translate(4.016 0.632)">
          <rect id="Rectángulo_806" data-name="Rectángulo 806" width="0.894" height="73.581" fill="#6e39b7"/>
        </g>
        <g id="Grupo_21185" data-name="Grupo 21185" transform="translate(4.016 79.205)">
          <path id="Trazado_39286" data-name="Trazado 39286" d="M-1118.318,292.294h-.894v-3.577h.894Zm0-8.943h-.894v-3.577h.894Zm0-8.943h-.894v-3.577h.894Zm0-8.943h-.894v-3.577h.894Zm0-8.943h-.894v-3.577h.894Zm0-8.943h-.894V244h.894Z" transform="translate(1119.212 -244.002)" fill="#6e39b7"/>
        </g>
        <g id="Grupo_21186" data-name="Grupo 21186" transform="translate(0)">
          <path id="Trazado_39287" data-name="Trazado 39287" d="M-1123.071,160.571l-.632-.632,4.5-4.5,4.423,4.423-.632.632-3.791-3.791Z" transform="translate(1123.703 -155.435)" fill="#6e39b7"/>
        </g>
      </g>
      <g id="Grupo_21188" data-name="Grupo 21188" transform="translate(46.499 583.74)">
        <rect id="Rectángulo_807" data-name="Rectángulo 807" width="0.894" height="211.154" transform="matrix(0.504, -0.864, 0.864, 0.504, 0, 0.772)" fill="#6e39b7"/>
      </g>
      <g id="Grupo_21189" data-name="Grupo 21189" transform="translate(125.732 410.007)">
        <rect id="Rectángulo_808" data-name="Rectángulo 808" width="0.894" height="176.774" transform="translate(0)" fill="#6e39b7"/>
      </g>
      <g id="Grupo_21213" data-name="Grupo 21213" transform="translate(112.73 322.542)">
        <g id="Grupo_21190" data-name="Grupo 21190" transform="translate(19.836 130.442)">
          <path id="Trazado_39288" data-name="Trazado 39288" d="M-1364.58,582.547a1.606,1.606,0,0,1,.263-.144,1.379,1.379,0,0,1,.157-.851c1.32-2.076,4.152-1.591,6.235-4.657a8.812,8.812,0,0,1,1.694-1.913c.068.367.141.717.222,1.029.316,1.214,2.538,1.448,4.012.711.29-.145.7-.488.876-1.555.39.319.55.258.638.618a13.377,13.377,0,0,1,0,1.364,9.3,9.3,0,0,1,.113,2.167,1.439,1.439,0,0,1-.237.624v1.051a.757.757,0,0,1-.43.658l-3.548,2.093v-.627a34.516,34.516,0,0,1-3.444,2.918,2.754,2.754,0,0,1-3.1.33c-.35-.2-2.519-1.679-3.338-2.231C-1364.8,583.907-1364.969,582.833-1364.58,582.547Z" transform="translate(1364.805 -574.981)" fill="#6e39b7"/>
        </g>
        <g id="Grupo_21191" data-name="Grupo 21191" transform="translate(39.798 146.787)">
          <path id="Trazado_39289" data-name="Trazado 39289" d="M-1342.333,601.815c.011-.012.031-.025.046-.038a1.2,1.2,0,0,1,.06-.309c1-2.227,3.851-2.156,5.458-5.465a8.579,8.579,0,0,1,1.478-2.211,3.221,3.221,0,0,0,.418,1.189c.828.931,2.745.987,4.087.052a3.934,3.934,0,0,0,.695-1.775,1.679,1.679,0,0,1,.475.589,12.866,12.866,0,0,1,.2,1.339,7.011,7.011,0,0,1,.25,2.626,1.246,1.246,0,0,1-.252.491c0,.35,0,.713.008.908a.781.781,0,0,1-.328.708l-2.807,2.205v-.616a25.956,25.956,0,0,1-2.964,3.358c-1.469,1.22-2.364,1.016-3,.768a22.286,22.286,0,0,1-3.288-1.364A2.462,2.462,0,0,1-1342.333,601.815Z" transform="translate(1342.484 -593.258)" fill="#6e39b7"/>
        </g>
        <g id="Grupo_21192" data-name="Grupo 21192" transform="translate(46.438 146.707)">
          <path id="Trazado_39290" data-name="Trazado 39290" d="M-1332.171,596.14a2.986,2.986,0,0,1-2.253-.872,4.069,4.069,0,0,1-.635-1.939l.881-.16a3.991,3.991,0,0,0,.423,1.505c.695.782,2.363.774,3.5-.018a2.9,2.9,0,0,0,.383-.995l.861.241c-.3,1.069-.537,1.352-.732,1.488A4.3,4.3,0,0,1-1332.171,596.14Z" transform="translate(1335.059 -593.169)" fill="#6e39b7"/>
        </g>
        <g id="Grupo_21193" data-name="Grupo 21193" transform="translate(42.638 76.52)">
          <path id="Trazado_39291" data-name="Trazado 39291" d="M-1331.494,585.932c-.33,0-.674-.011-1.037-.032-3.508-.206-4.119-2.046-4.144-2.125-.2-1.389-4.532-32.48-1.644-42.282a17.768,17.768,0,0,1,1.74-3.329l.762.469a18.836,18.836,0,0,0-1.644,3.113c-2.834,9.617,1.61,41.513,1.656,41.834.011,0,.514,1.262,3.327,1.427,4.707.272,4.879-1.433,4.88-1.45l4.486-33.683a4.8,4.8,0,0,1,2.507-4.268c14.612-8.023,22.721-16.049,23.449-23.209.126-1.234.283-2.5.471-3.75a8.969,8.969,0,0,0,.1-1.349v-2.615h.894V517.3a9.932,9.932,0,0,1-.112,1.48c-.185,1.241-.342,2.489-.467,3.709-.758,7.465-9.026,15.731-23.907,23.9a3.939,3.939,0,0,0-2.046,3.534l-4.486,33.7a1.8,1.8,0,0,1-.627,1.175C-1328.129,585.553-1329.526,585.932-1331.494,585.932Z" transform="translate(1339.308 -514.685)" fill="#6e39b7"/>
        </g>
        <g id="Grupo_21194" data-name="Grupo 21194" transform="translate(43.949 34.213)">
          <path id="Trazado_39292" data-name="Trazado 39292" d="M-1333.166,508.361a.445.445,0,0,1-.3-.119l-4.229-3.917a.449.449,0,0,1-.046-.608l1-1.246,2.665-8.615a.417.417,0,0,1,.039-.091c.038-.065,3.758-6.573,4.031-10.578.236-3.461.351-7.057.455-10.23.066-2.035.128-3.933.213-5.58l.893.046c-.084,1.642-.146,3.533-.211,5.563-.1,3.18-.22,6.785-.457,10.261-.278,4.08-3.761,10.286-4.123,10.919l-2.677,8.649a.429.429,0,0,1-.078.148l-.79.987,3.6,3.33a10.514,10.514,0,0,1,1.217-1.155,3.6,3.6,0,0,1,.512-.278,9.107,9.107,0,0,0,.894-.476c1.666-1,3.742-4,3.763-4.031l.737.507c-.089.13-2.207,3.191-4.041,4.291a9.888,9.888,0,0,1-.972.518,2.679,2.679,0,0,0-.39.208,13.22,13.22,0,0,0-1.363,1.348.447.447,0,0,1-.312.147Z" transform="translate(1337.842 -467.377)" fill="#6e39b7"/>
        </g>
        <g id="Grupo_21195" data-name="Grupo 21195" transform="translate(43.148 79.461)">
          <rect id="Rectángulo_809" data-name="Rectángulo 809" width="0.894" height="8.32" transform="translate(0 0.775) rotate(-59.998)" fill="#6e39b7"/>
        </g>
        <g id="Grupo_21196" data-name="Grupo 21196" transform="translate(52.444 19.665)">
          <path id="Trazado_39293" data-name="Trazado 39293" d="M-1315.361,507.312c-1.911-.929-3.758-1.926-5.064-2.735-6.5-4.017-6.259-6.292-5.457-8.279.043-.105.084-.207.12-.3.584-1.594-.2-7.762-1.032-14.29-.869-6.837-1.857-14.586-1.458-18.779.785-8.254,4.461-11.012,6-11.815l.412.794c-1.414.735-4.784,3.289-5.526,11.105-.389,4.094.59,11.791,1.455,18.582.882,6.929,1.644,12.913.984,14.711-.039.106-.084.216-.13.331-.519,1.285-1.3,3.227,5.1,7.184,1.284.793,3.1,1.774,4.986,2.69Z" transform="translate(1328.343 -451.11)" fill="#6e39b7"/>
        </g>
        <g id="Grupo_21197" data-name="Grupo 21197" transform="translate(63.73 21.759)">
          <path id="Trazado_39294" data-name="Trazado 39294" d="M-1291.077,466.177a13.49,13.49,0,0,0-1.5-3.138c-2.511-3.269-8.511-6.176-12.481-8.1l-.67-.325v.567a7.3,7.3,0,0,1-2.813,4.67,6.72,6.72,0,0,1-5.5.7,2.119,2.119,0,0,1-1.679-1.73l.877-.179a1.229,1.229,0,0,0,1.01,1.039,5.867,5.867,0,0,0,4.792-.572,6.491,6.491,0,0,0,2.425-4l-.005-1.217a.447.447,0,0,1,.211-.38.45.45,0,0,1,.435-.021c.4.2.838.41,1.308.638,4.046,1.96,10.161,4.922,12.8,8.359a14.575,14.575,0,0,1,1.635,3.381Z" transform="translate(1315.723 -453.451)" fill="#6e39b7"/>
        </g>
        <g id="Grupo_21198" data-name="Grupo 21198" transform="translate(48.862 79.573)">
          <path id="Trazado_39295" data-name="Trazado 39295" d="M-1327.89,528.788a1.264,1.264,0,0,1-.336-.047.945.945,0,0,1-.649-.523,1.031,1.031,0,0,1-.062-.43,3.317,3.317,0,0,1-.56.5,1.082,1.082,0,0,1-1.11.087.77.77,0,0,1-.428-.677,3.137,3.137,0,0,1,.225-.916,1.218,1.218,0,0,1-1.484-.592c-.243-.8.365-1.907,1.064-3.066l.193-.323a7.679,7.679,0,0,1,2.062-2.561c1.151-.638,3.122-.67,5.029-.7a16.036,16.036,0,0,0,3.27-.245,23.365,23.365,0,0,0,2.928-1.188l.372.813a23.578,23.578,0,0,1-3.073,1.24,16.544,16.544,0,0,1-3.482.275c-1.714.028-3.655.06-4.61.589a6.974,6.974,0,0,0-1.722,2.227l-.2.337c-.336.556-1.122,1.859-.975,2.344.014-.012.126.02.236.02a.381.381,0,0,0,.107-.013,17.046,17.046,0,0,0,1.957-2.67.448.448,0,0,1,.6-.147.448.448,0,0,1,.166.6,21.741,21.741,0,0,0-1.762,3.876.275.275,0,0,0,.134-.049,5.355,5.355,0,0,0,1-1.089c.109-.141.212-.275.309-.392a3.112,3.112,0,0,1,1.052-.889.447.447,0,0,1,.524.126.449.449,0,0,1,.021.538,4.674,4.674,0,0,0-.954,2.052,1.107,1.107,0,0,1,.152.007c.264-.175.625-.424.625-.424a.448.448,0,0,1,.233-.079s.547-.022.775-.043c.123-.116.382-.43.578-.666a7.7,7.7,0,0,1,1.192-1.265,8.611,8.611,0,0,1,3.8-.764,8.185,8.185,0,0,0,2.515-.375,24.775,24.775,0,0,0,2.407-2.029l.6.668a20.726,20.726,0,0,1-2.558,2.136,7.878,7.878,0,0,1-2.9.494,8.487,8.487,0,0,0-3.352.607,7.988,7.988,0,0,0-1.01,1.1c-.567.685-.758.9-1.01.962a6.108,6.108,0,0,1-.863.064c-.122.084-.325.227-.483.344A.9.9,0,0,1-1327.89,528.788Z" transform="translate(1332.348 -518.099)" fill="#6e39b7"/>
        </g>
        <g id="Grupo_21199" data-name="Grupo 21199" transform="translate(62.767 32.697)">
          <path id="Trazado_39296" data-name="Trazado 39296" d="M-1313.279,518.336a.448.448,0,0,1-.4-.248l-3.073-6.179a.446.446,0,0,1,.183-.59,6.875,6.875,0,0,0,1.652-1.168,2.192,2.192,0,0,0,.151-.47,2.272,2.272,0,0,1,1-1.594c10.9-6.123,12.933-12.878,13.229-14.169a104.4,104.4,0,0,0,1.306-18.392c-.113-2.084,0-5.916,2.045-8.159a5.179,5.179,0,0,1,3.772-1.683,3.926,3.926,0,0,1,2.9,1.256c2.586,2.486,4,8.14,4,10.347a93.934,93.934,0,0,1-2.691,24.468c-.072.292-.138.585-.2.88-.859,3.829-1.833,8.171-16.916,14.362a8.071,8.071,0,0,1-4.476.32l-2.3.983A.442.442,0,0,1-1313.279,518.336Zm-2.486-6.448,2.7,5.423,2.042-.875a.436.436,0,0,1,.288-.021,7.322,7.322,0,0,0,4.067-.246c14.652-6.014,15.531-9.937,16.382-13.73.067-.3.134-.6.208-.9a93.152,93.152,0,0,0,2.665-24.255c0-2.159-1.413-7.483-3.723-9.7a3.056,3.056,0,0,0-2.244-1.006,4.313,4.313,0,0,0-3.146,1.392c-1.332,1.461-1.993,4.2-1.814,7.509a105.666,105.666,0,0,1-1.327,18.639c-.31,1.357-2.431,8.442-13.662,14.75a1.479,1.479,0,0,0-.569,1.036,2.6,2.6,0,0,1-.251.709A5.518,5.518,0,0,1-1315.765,511.888Z" transform="translate(1316.799 -465.682)" fill="#6e39b7"/>
        </g>
        <g id="Grupo_21200" data-name="Grupo 21200" transform="translate(36.223 70.776)">
          <path id="Trazado_39297" data-name="Trazado 39297" d="M-1342.967,520.694a.5.5,0,0,1-.408-.228,2.683,2.683,0,0,1-.264-1.156,4.462,4.462,0,0,1-.825,1.053,1,1,0,0,1-1.393.016,1.119,1.119,0,0,1-.251-.7.658.658,0,0,1-.215-.275c-.467-1.163.219-3.493.5-4.218a29.91,29.91,0,0,1,3.108-4.383c1.281-1.51,4.545-2.5,4.683-2.541l.257.857c-.031.009-3.149.955-4.259,2.263a30.341,30.341,0,0,0-2.955,4.125,10.761,10.761,0,0,0-.462,1.684c.149-.338.3-.638.417-.863a.444.444,0,0,1,.52-.223.445.445,0,0,1,.322.464,11.185,11.185,0,0,1-.509,2.732,5.776,5.776,0,0,0,.6-1.023c.21-.552.756-2.279.762-2.3a.446.446,0,0,1,.534-.3.446.446,0,0,1,.331.515,12.934,12.934,0,0,0-.238,3.478,1.632,1.632,0,0,0,.34-.207,6.554,6.554,0,0,0,.448-1.355,6.894,6.894,0,0,1,.537-1.552,3,3,0,0,1,1.118-.961.444.444,0,0,1,.572.147.445.445,0,0,1-.074.587,2.385,2.385,0,0,0-.414.687,7.909,7.909,0,0,0,2.455-1.3,24.548,24.548,0,0,0,2.7-4.207l.793.412a24.693,24.693,0,0,1-2.863,4.435,8.249,8.249,0,0,1-3.057,1.573.917.917,0,0,1-.714-.255c-.064.211-.125.44-.184.665a6.725,6.725,0,0,1-.57,1.62A2.378,2.378,0,0,1-1342.967,520.694Z" transform="translate(1346.481 -508.262)" fill="#6e39b7"/>
        </g>
        <g id="Grupo_21201" data-name="Grupo 21201" transform="translate(57.306 0)">
          <path id="Trazado_39298" data-name="Trazado 39298" d="M-1322.5,434.851c.416-1.685,3.71-4.538,5.6-5.095,7.436-2.195,10.4,2,10.4,2a4.792,4.792,0,0,1,3.925,2.942c2.173,5.047-.489,9.047-.676,10.442-.517,3.851-1.871,3.382-3.664,5.453v-.1l-.1-1.811a2.876,2.876,0,0,0,1.952-2.362c.275-1.373-.375-2.562-1.627-2.51-.129.005-.235.026-.351.039-.042-2.506-.178-4.838-.178-4.838-.6-3.469-13.176-4.244-14.022.536a35.139,35.139,0,0,0-.164,6.159,5.155,5.155,0,0,1-.482-.711C-1322.615,443.678-1323.405,438.514-1322.5,434.851Z" transform="translate(1322.906 -429.12)" fill="#6e39b7"/>
        </g>
        <g id="Grupo_21202" data-name="Grupo 21202" transform="translate(57.217 2.91)">
          <path id="Trazado_39299" data-name="Trazado 39299" d="M-1321.476,435.515c3.846-3.241,8.684-3.734,11.469-2.565,2.845,1.195,4.008,2.814,4.521,4.127a8.852,8.852,0,0,1-.569,7.178l-.051-.009a1.613,1.613,0,0,0-.6-.1,2.287,2.287,0,0,0-2,.929l-.191.158-.4-2.23c-2.994,1.576-10.708,2.525-10.708,2.525l.183-.952-2.011,2.447S-1324.69,438.224-1321.476,435.515Z" transform="translate(1323.006 -432.374)" fill="#6e39b7"/>
        </g>
        <g id="Grupo_21203" data-name="Grupo 21203" transform="translate(70.665 14.238)">
          <path id="Trazado_39300" data-name="Trazado 39300" d="M-1306.025,450.891a2.076,2.076,0,0,1-1.943-1.376l.83-.333a1.21,1.21,0,0,0,1.19.812,2.317,2.317,0,0,0,2.02-2.083,1.939,1.939,0,0,0-.292-1.619,1.049,1.049,0,0,0-.877-.357c-1.226.051-1.643.518-1.894,1.2l-.841-.307a2.623,2.623,0,0,1,2.7-1.789,1.936,1.936,0,0,1,1.593.669,2.784,2.784,0,0,1,.49,2.375,3.206,3.206,0,0,1-2.843,2.8C-1305.938,450.89-1305.982,450.891-1306.025,450.891Z" transform="translate(1307.968 -445.041)" fill="#6e39b7"/>
        </g>
        <g id="Grupo_21204" data-name="Grupo 21204" transform="translate(27.903 130.003)">
          <path id="Trazado_39301" data-name="Trazado 39301" d="M-1352.894,577.537a3.734,3.734,0,0,1-1.524-.3,1.789,1.789,0,0,1-1.068-1.168c-.106-.41-.207-.891-.3-1.432l.882-.149c.088.516.182.972.281,1.357a.931.931,0,0,0,.572.578,3.617,3.617,0,0,0,2.806-.156,2.508,2.508,0,0,0,.233-.624l.862.235c-.186.682-.394,1.038-.694,1.189A4.682,4.682,0,0,1-1352.894,577.537Z" transform="translate(1355.784 -574.49)" fill="#6e39b7"/>
        </g>
        <g id="Grupo_21205" data-name="Grupo 21205" transform="translate(23.693 95.104)">
          <path id="Trazado_39302" data-name="Trazado 39302" d="M-1352.153,572.084c-.181,0-.368-.008-.565-.027-2.177-.2-5.316-1.956-5.742-3.646-1.382-5.478-2.026-32.651-2.032-32.925l.895-.021c.218,9.436.919,28.421,2,32.727.293,1.157,3.026,2.8,4.958,2.974a3.312,3.312,0,0,0,3.49-1.6l2.168-26.213.891.073-2.174,26.29a.439.439,0,0,1-.03.131A4.079,4.079,0,0,1-1352.153,572.084Z" transform="translate(1360.492 -535.466)" fill="#6e39b7"/>
        </g>
        <g id="Grupo_21207" data-name="Grupo 21207" transform="translate(0 64.575)">
          <g id="Grupo_21206" data-name="Grupo 21206">
            <path id="Trazado_39303" data-name="Trazado 39303" d="M-1347.476,541.194a.446.446,0,0,1-.224-.06l-24.554-14.184a.446.446,0,0,1-.163-.161L-1386.925,502a.446.446,0,0,1,.067-.539.451.451,0,0,1,.54-.075l27.8,15.76a.446.446,0,0,1,.183.194l11.262,23.211a.448.448,0,0,1-.1.522A.445.445,0,0,1-1347.476,541.194Zm-24.229-14.959,23.191,13.4-10.565-21.775-26.234-14.872Z" transform="translate(1386.986 -501.329)" fill="#6e39b7"/>
          </g>
        </g>
        <g id="Grupo_21208" data-name="Grupo 21208" transform="translate(58.238 16.264)">
          <path id="Trazado_39304" data-name="Trazado 39304" d="M-1318.994,452.708a3.37,3.37,0,0,0,.843-.313,2.066,2.066,0,0,1,1.705.137,3.671,3.671,0,0,1,1.372.991c.361.413.727,1.231,1.059,1.439,3.621,2.27,6.918-3.845,6.918-3.845s-.667,6.271-4.482,7.61a7.821,7.821,0,0,1-8.683-2.4c-1.681-2.187-1.6-9.018-1.6-9.018S-1321.222,452.978-1318.994,452.708Z" transform="translate(1321.864 -447.307)" fill="#6e39b7"/>
        </g>
        <g id="Grupo_21209" data-name="Grupo 21209" transform="translate(72.274 19.542)">
          <rect id="Rectángulo_810" data-name="Rectángulo 810" width="0.894" height="2.629" transform="translate(0 0.192) rotate(-12.392)" fill="#6e39b7"/>
        </g>
        <g id="Grupo_21210" data-name="Grupo 21210" transform="translate(39.279 87.078)">
          <path id="Trazado_39305" data-name="Trazado 39305" d="M-1342.6,543.789l-.463-.765,21.732-13.161-4.5-2.6.447-.774,5.156,2.976a.448.448,0,0,1,.224.383.446.446,0,0,1-.216.387Z" transform="translate(1343.064 -526.491)" fill="#6e39b7"/>
        </g>
        <g id="Grupo_21211" data-name="Grupo 21211" transform="translate(28.828 77.386)">
          <rect id="Rectángulo_811" data-name="Rectángulo 811" width="9.499" height="0.894" transform="matrix(0.87, -0.492, 0.492, 0.87, 0, 4.676)" fill="#6e39b7"/>
        </g>
        <g id="Grupo_21212" data-name="Grupo 21212" transform="translate(20.623 60.441)">
          <rect id="Rectángulo_812" data-name="Rectángulo 812" width="31.513" height="0.894" transform="translate(0 15.754) rotate(-29.995)" fill="#6e39b7"/>
        </g>
      </g>
      <g id="Grupo_21214" data-name="Grupo 21214" transform="translate(185.759 219.35)">
        <path id="Trazado_39306" data-name="Trazado 39306" d="M-1244.625,541.42h-.894V373.873l-59.583-34.789a.446.446,0,0,1-.222-.387.445.445,0,0,1,.224-.386l42.574-24.58.447.775-41.906,24.2,59.139,34.529a.447.447,0,0,1,.222.386Z" transform="translate(1305.324 -313.73)" fill="#6e39b7"/>
      </g>
      <g id="Grupo_21215" data-name="Grupo 21215" transform="translate(236.742 211.315)">
        <rect id="Rectángulo_813" data-name="Rectángulo 813" width="6.618" height="0.894" transform="translate(0 3.309) rotate(-29.995)" fill="#6e39b7"/>
      </g>
      <g id="Grupo_21216" data-name="Grupo 21216" transform="translate(245.564 216.277)">
        <path id="Trazado_39307" data-name="Trazado 39307" d="M-1178.225,473.712a.448.448,0,0,1-.225-.061l-59.778-34.69a.447.447,0,0,1-.223-.388.445.445,0,0,1,.224-.386l58.841-33.891V340.137l-50.041-29.071.449-.773,50.264,29.2a.445.445,0,0,1,.222.386v64.413l60.264,33.892a.448.448,0,0,1,.228.387.449.449,0,0,1-.223.39L-1178,473.651A.445.445,0,0,1-1178.225,473.712Zm-58.885-35.136,58.885,34.171,58.876-34.166-59.588-33.512Z" transform="translate(1238.45 -310.294)" fill="#6e39b7"/>
      </g>
      <g id="Grupo_21217" data-name="Grupo 21217" transform="translate(245.791 245.473)">
        <rect id="Rectángulo_814" data-name="Rectángulo 814" width="67.841" height="0.895" transform="translate(0 33.373) rotate(-29.468)" fill="#6e39b7"/>
      </g>
      <g id="Grupo_21218" data-name="Grupo 21218" transform="translate(185.759 244.318)">
        <rect id="Rectángulo_815" data-name="Rectángulo 815" width="0.894" height="80.857" fill="#6e39b7"/>
      </g>
      <g id="Grupo_21219" data-name="Grupo 21219" transform="translate(172.612 431.286)">
        <path id="Trazado_39308" data-name="Trazado 39308" d="M-1307.191,738.839h-.894V558.353l-11.94-6.859.445-.775,12.164,6.988a.446.446,0,0,1,.225.387Z" transform="translate(1320.025 -550.718)" fill="#6e39b7"/>
      </g>
      <g id="Grupo_21220" data-name="Grupo 21220" transform="translate(184.776 379.041)">
        <path id="Trazado_39309" data-name="Trazado 39309" d="M-1305.978,552.306l-.445-.775,60.489-34.7-40.736-23.76.451-.773,41.4,24.15a.446.446,0,0,1,.222.388.45.45,0,0,1-.224.386Z" transform="translate(1306.423 -492.298)" fill="#6e39b7"/>
      </g>
      <g id="Grupo_21221" data-name="Grupo 21221" transform="translate(184.562 480.363)">
        <path id="Trazado_39310" data-name="Trazado 39310" d="M-1245.172,779.842h-.894V666.331l-60.37-34.19a.447.447,0,0,1-.227-.387.445.445,0,0,1,.223-.389l44.4-25.769.449.774-43.724,25.377,59.918,33.934a.447.447,0,0,1,.227.39Z" transform="translate(1306.663 -605.596)" fill="#6e39b7"/>
      </g>
      <g id="Grupo_21222" data-name="Grupo 21222" transform="translate(365.12 344.558)">
        <rect id="Rectángulo_816" data-name="Rectángulo 816" width="0.894" height="239.896" fill="#6e39b7"/>
      </g>
      <g id="Grupo_21223" data-name="Grupo 21223" transform="translate(305.342 379.248)">
        <rect id="Rectángulo_817" data-name="Rectángulo 817" width="0.894" height="240.159" transform="translate(0 0)" fill="#6e39b7"/>
      </g>
      <g id="Grupo_21224" data-name="Grupo 21224" transform="translate(95.98 569.277)">
        <path id="Trazado_39311" data-name="Trazado 39311" d="M-1256.924,792.339l-141.557-81.7-4.546,2.625-2.688-8.239,14.269,1.552-4.547,2.626,141.557,81.7Z" transform="translate(1405.715 -705.02)" fill="#6e39b7"/>
      </g>
      <g id="Grupo_21225" data-name="Grupo 21225" transform="translate(243.232 558.44)">
        <path id="Trazado_39312" data-name="Trazado 39312" d="M-1075.758,701.191l-4.6-2.535-158.285,92.977-2.417-1.446,158.187-92.919-4.6-2.536,14.237-1.83Z" transform="translate(1241.057 -692.902)" fill="#6e39b7"/>
      </g>
      <g id="Grupo_21226" data-name="Grupo 21226" transform="translate(365.341 474.617)">
        <rect id="Rectángulo_818" data-name="Rectángulo 818" width="0.894" height="136.368" transform="matrix(0.504, -0.864, 0.864, 0.504, 0, 0.772)" fill="#6e39b7"/>
      </g>
      <g id="Grupo_21255" data-name="Grupo 21255" transform="translate(228.381 423.389)">
        <g id="Grupo_21227" data-name="Grupo 21227" transform="translate(58.781 130.898)">
          <path id="Trazado_39313" data-name="Trazado 39313" d="M-1177.694,695.826a1.707,1.707,0,0,0-.244-.135,1.372,1.372,0,0,0-.176-.86c-1.32-2.078-4.154-1.592-6.239-4.659a8.791,8.791,0,0,0-1.695-1.914c-.068.367-.141.717-.223,1.029-.316,1.216-2.539,1.45-4.014.711-.192-.1-.357-.479-.5-1.038a3.861,3.861,0,0,1-.821-.3,1.356,1.356,0,0,0-.2.4,13.362,13.362,0,0,0,0,1.365,9.288,9.288,0,0,0-.113,2.169,1.438,1.438,0,0,0,.237.624v1.052a.755.755,0,0,0,.431.658l3.55,2.1V696.4a34.475,34.475,0,0,0,3.445,2.92,2.759,2.759,0,0,0,3.106.33c.35-.2,2.52-1.68,3.339-2.232C-1177.471,697.188-1177.3,696.113-1177.694,695.826Z" transform="translate(1191.935 -688.258)" fill="#6e39b7"/>
        </g>
        <g id="Grupo_21228" data-name="Grupo 21228" transform="translate(39.927 147.594)">
          <path id="Trazado_39314" data-name="Trazado 39314" d="M-1199.843,715.127a1.124,1.124,0,0,0-.084-.328c-1-2.229-3.852-2.158-5.46-5.469a8.568,8.568,0,0,0-1.474-2.209,3.146,3.146,0,0,1-.422,1.187c-.828.932-2.746.988-4.089.052a2.941,2.941,0,0,1-.588-1.357c-.152-.023-.3-.046-.439-.075a1.134,1.134,0,0,0-.142.247,12.615,12.615,0,0,0-.195,1.34,6.99,6.99,0,0,0-.25,2.627,1.083,1.083,0,0,0,.251.506c0,.347,0,.7-.008.894a.782.782,0,0,0,.328.708l2.809,2.206v-.617a25.97,25.97,0,0,0,2.966,3.361c1.47,1.22,2.364,1.016,3,.768a22.445,22.445,0,0,0,3.289-1.365,2.463,2.463,0,0,0,.527-2.458C-1199.826,715.139-1199.836,715.133-1199.843,715.127Z" transform="translate(1213.018 -706.927)" fill="#6e39b7"/>
        </g>
        <g id="Grupo_21229" data-name="Grupo 21229" transform="translate(58.197 58.27)">
          <path id="Trazado_39315" data-name="Trazado 39315" d="M-1182.016,610.044c-.315-.242-.6-.439-.8-.56a30.309,30.309,0,0,0-4.86-1.465c-1.694-.36-4.6.6-4.631.61l-.283-.849c.128-.043,3.17-1.049,5.1-.635a29.859,29.859,0,0,1,5.138,1.576,10.329,10.329,0,0,1,.878.614Z" transform="translate(1192.588 -607.045)" fill="#6e39b7"/>
        </g>
        <g id="Grupo_21230" data-name="Grupo 21230" transform="translate(37.753 67.481)">
          <path id="Trazado_39316" data-name="Trazado 39316" d="M-1214.022,618.594a.425.425,0,0,1-.122-.017l-1.3-.372.244-.86,1.244.354c.47,0,3.476-.025,6.531-.1l.022.894c-3.335.08-6.612.1-6.612.1Z" transform="translate(1215.448 -617.345)" fill="#6e39b7"/>
        </g>
        <g id="Grupo_21231" data-name="Grupo 21231" transform="translate(39.73 34.013)">
          <path id="Trazado_39317" data-name="Trazado 39317" d="M-1194.388,610.233l-.892-.056.3-4.72-1.8-.22c-1.456.089-14.91.7-15.214-3.767-.189-2.781-.34-5.973-.487-9.059-.206-4.38-.42-8.911-.75-12.406l.892-.084c.33,3.515.545,8.057.752,12.448.146,3.082.3,6.268.485,9.04.183,2.707,8.9,3.238,14.352,2.938l2.3.274a.448.448,0,0,1,.392.472Z" transform="translate(1213.238 -579.921)" fill="#6e39b7"/>
        </g>
        <g id="Grupo_21232" data-name="Grupo 21232" transform="translate(59.546 130.638)">
          <path id="Trazado_39318" data-name="Trazado 39318" d="M-1188.341,690.836a4.687,4.687,0,0,1-2.054-.469c-.293-.148-.5-.5-.684-1.154l.861-.239a1.519,1.519,0,0,0,.251.611,3.6,3.6,0,0,0,2.78.139.929.929,0,0,0,.574-.58c.091-.355.174-.752.249-1.177l.881.154c-.079.451-.167.873-.266,1.248a1.8,1.8,0,0,1-1.07,1.17A3.736,3.736,0,0,1-1188.341,690.836Z" transform="translate(1191.079 -687.967)" fill="#6e39b7"/>
        </g>
        <g id="Grupo_21233" data-name="Grupo 21233" transform="translate(40.585 147.179)">
          <path id="Trazado_39319" data-name="Trazado 39319" d="M-1209.123,709.428a4.3,4.3,0,0,1-2.426-.751c-.195-.135-.434-.418-.732-1.489l.86-.24a2.722,2.722,0,0,0,.394,1.005c1.125.783,2.794.791,3.488.009a3.954,3.954,0,0,0,.423-1.5l.88.161a4.04,4.04,0,0,1-.634,1.932A2.99,2.99,0,0,1-1209.123,709.428Z" transform="translate(1212.282 -706.463)" fill="#6e39b7"/>
        </g>
        <g id="Grupo_21234" data-name="Grupo 21234" transform="translate(6.789 80.15)">
          <path id="Trazado_39320" data-name="Trazado 39320" d="M-1214.245,699.592c-1.969,0-3.368-.378-4.164-1.13a1.8,1.8,0,0,1-.63-1.235l-4.48-33.594a3.986,3.986,0,0,0-2.052-3.6c-14.889-8.176-23.16-16.445-23.919-23.914-.149-1.463-.345-2.966-.582-4.466l.884-.14c.24,1.517.437,3.036.588,4.515.729,7.163,8.841,15.193,23.46,23.22a4.838,4.838,0,0,1,2.513,4.336l4.481,33.586c0,.064.174,1.77,4.887,1.5,2.839-.166,3.327-1.452,3.347-1.507.027-.242,4.475-32.155,1.639-41.778-1.068-3.628-8.177-11.6-8.248-11.681a.448.448,0,0,1-.013-.58.447.447,0,0,1,.569-.105l14.5,8.343a.444.444,0,0,1,.223.351l2.424,29.31a3.294,3.294,0,0,0,3.492,1.6c1.934-.177,4.668-1.818,4.961-2.975,1.342-5.328,2.06-33.991,2.06-35.393,0-3.446-3-7.319-8.918-11.51l.518-.73c6.167,4.369,9.294,8.487,9.294,12.24,0,1.466-.7,30.091-2.088,35.612-.426,1.69-3.568,3.448-5.746,3.648a4.184,4.184,0,0,1-4.428-2.212.481.481,0,0,1-.03-.131l-2.41-29.154-12.018-6.916c2.234,2.664,5.93,7.347,6.721,10.03,2.89,9.807-1.443,40.914-1.63,42.233-.04.149-.654,1.991-4.162,2.2Q-1213.751,699.593-1214.245,699.592Z" transform="translate(1250.073 -631.511)" fill="#6e39b7"/>
        </g>
        <g id="Grupo_21235" data-name="Grupo 21235" transform="translate(36.933 68.876)">
          <path id="Trazado_39321" data-name="Trazado 39321" d="M-1212.521,621.319c-1.638-.7-2.995-1.248-3.844-1.581l.326-.833c1.226.482,2.565,1.033,3.871,1.592Z" transform="translate(1216.365 -618.905)" fill="#6e39b7"/>
        </g>
        <g id="Grupo_21236" data-name="Grupo 21236" transform="translate(27.036 20.471)">
          <path id="Trazado_39322" data-name="Trazado 39322" d="M-1227.04,620.761l-.391-.8c2.525-1.229,4.615-2.493,5.2-2.852,6.4-3.959,5.618-5.9,5.1-7.187-.047-.115-.091-.224-.131-.331-.659-1.8.1-7.787.985-14.718.866-6.795,1.845-14.495,1.456-18.592-.657-6.927-3.37-9.712-4.929-10.755l.5-.743c1.69,1.131,4.629,4.118,5.322,11.413.4,4.2-.589,11.949-1.46,18.789-.831,6.532-1.617,12.7-1.031,14.3.036.1.077.2.119.3.8,1.987,1.045,4.264-5.458,8.283C-1222.355,618.229-1224.477,619.513-1227.04,620.761Z" transform="translate(1227.432 -564.778)" fill="#6e39b7"/>
        </g>
        <g id="Grupo_21237" data-name="Grupo 21237" transform="translate(4.173 73.732)">
          <path id="Trazado_39323" data-name="Trazado 39323" d="M-1246.474,632.051a9.915,9.915,0,0,1-1.654-.123c-2.849-.492-4.488-3.022-4.869-7.517l.891-.076c.343,4.039,1.732,6.3,4.131,6.713a13.7,13.7,0,0,0,3.824-.055l.117.886A18.992,18.992,0,0,1-1246.474,632.051Z" transform="translate(1252.998 -624.335)" fill="#6e39b7"/>
        </g>
        <g id="Grupo_21238" data-name="Grupo 21238" transform="translate(3.875 22.158)">
          <path id="Trazado_39324" data-name="Trazado 39324" d="M-1252.486,579.215l-.845-.29a11.337,11.337,0,0,1,1.591-3.214c2.642-3.439,8.761-6.4,12.811-8.365.469-.226.908-.439,1.307-.636a.444.444,0,0,1,.433.021.444.444,0,0,1,.212.379v1.283a6.518,6.518,0,0,0,2.427,3.936,5.87,5.87,0,0,0,4.788.57,1.268,1.268,0,0,0,1.04-1.218l.888.107a2.144,2.144,0,0,1-1.72,1.98,6.723,6.723,0,0,1-5.5-.7,7.317,7.317,0,0,1-2.809-4.607l0-.634-.67.325c-3.974,1.925-9.977,4.834-12.491,8.1A10.493,10.493,0,0,0-1252.486,579.215Z" transform="translate(1253.331 -566.664)" fill="#6e39b7"/>
        </g>
        <g id="Grupo_21239" data-name="Grupo 21239" transform="translate(20.573 11.925)">
          <path id="Trazado_39325" data-name="Trazado 39325" d="M-1226.105,570.88a7.94,7.94,0,0,1-1.355-.125c-3.07-.537-7.4-4.3-7.192-8.976l.894.039c-.183,4.134,3.762,7.586,6.452,8.056,3.7.643,5.08-1.473,6.481-5.872a42.746,42.746,0,0,0,1.649-8.78l.894,0a43.1,43.1,0,0,1-1.691,9.048C-1221.085,567.765-1222.411,570.88-1226.105,570.88Z" transform="translate(1234.659 -555.222)" fill="#6e39b7"/>
        </g>
        <g id="Grupo_21240" data-name="Grupo 21240" transform="translate(18.922 13.046)">
          <path id="Trazado_39326" data-name="Trazado 39326" d="M-1233.711,562.478a2.072,2.072,0,0,1-.493-.06,3.209,3.209,0,0,1-2.3-3.262,2.784,2.784,0,0,1,.905-2.251,1.941,1.941,0,0,1,1.687-.376,2.642,2.642,0,0,1,2.362,2.4l-.885.121c-.11-.812-.43-1.372-1.672-1.65a1.038,1.038,0,0,0-.927.2,1.934,1.934,0,0,0-.576,1.541,2.319,2.319,0,0,0,1.619,2.411,1.155,1.155,0,0,0,1.174-.4l.678.584A2.068,2.068,0,0,1-1233.711,562.478Z" transform="translate(1236.506 -556.475)" fill="#6e39b7"/>
        </g>
        <g id="Grupo_21249" data-name="Grupo 21249" transform="translate(33.162 58.828)">
          <g id="Grupo_21243" data-name="Grupo 21243" transform="translate(42.445 8.056)">
            <g id="Grupo_21242" data-name="Grupo 21242">
              <g id="Grupo_21241" data-name="Grupo 21241">
                <path id="Trazado_39327" data-name="Trazado 39327" d="M-1173.074,616.707l-.045-.029A.382.382,0,0,0-1173.074,616.707Z" transform="translate(1173.119 -616.677)" fill="#6e39b7"/>
              </g>
            </g>
          </g>
          <g id="Grupo_21244" data-name="Grupo 21244">
            <path id="Trazado_39328" data-name="Trazado 39328" d="M-1219.889,638.413a.7.7,0,0,1-.535-.217.675.675,0,0,1-.092-.732l.662-1.582.824.345-.5,1.192,2.21-.673.26.856-2.481.756A1.2,1.2,0,0,1-1219.889,638.413Zm9.729-2.915-.26-.856,23.134-7.052a1.051,1.051,0,0,0,.561-.426l1.848-4.421.824.345-1.848,4.42a1.878,1.878,0,0,1-1.124.938Zm-6.59-4.726-.824-.345,4.955-11.854a1.879,1.879,0,0,1,1.124-.938l32.514-9.91a.808.808,0,0,1,.885.16.669.669,0,0,1,.091.733l-1.635,3.913-.825-.345,1.473-3.523-32.243,9.827a1.05,1.05,0,0,0-.56.426Z" transform="translate(1220.582 -607.669)" fill="#6e39b7"/>
          </g>
          <g id="Grupo_21246" data-name="Grupo 21246" transform="translate(10.292 5.708)">
            <g id="Grupo_21245" data-name="Grupo 21245">
              <path id="Trazado_39329" data-name="Trazado 39329" d="M-1184,614.052l-2.583,6.1-.571.174,2.583-6.1Zm-7.45,12.544.57-.173,4.921-11.773-.57.174Zm-1.958.6.571-.174,4.921-11.773-.571.173Zm-3.916,1.193.571-.173,4.921-11.773-.57.174Zm-1.156-1.3.571-.174,4.119-9.873-.571.174Zm-4.718,3.093.571-.174,4.921-11.773-.57.174Zm-3.916,1.194.571-.174,4.921-11.773-.571.174Zm-1.958.6.571-.174,4.921-11.773-.57.174Z" transform="translate(1209.073 -614.052)" fill="#6e39b7"/>
            </g>
          </g>
          <g id="Grupo_21248" data-name="Grupo 21248" transform="translate(33.411 4.243)">
            <g id="Grupo_21247" data-name="Grupo 21247">
              <path id="Trazado_39330" data-name="Trazado 39330" d="M-1182.625,624.558a.6.6,0,0,1-.455-.19.58.58,0,0,1-.087-.631l4.111-9.836a1.314,1.314,0,0,1,.8-.672l2.532-.772a.656.656,0,0,1,.721.148.58.58,0,0,1,.087.631l-.81,1.939a1.71,1.71,0,0,1,1.426.477,1.487,1.487,0,0,1,.121,1.652,7,7,0,0,1-3.8,3.264l-1.047,2.5a1.319,1.319,0,0,1-.8.673l-2.532.772A.907.907,0,0,1-1182.625,624.558Zm6.638-11.087-2.011.613a.517.517,0,0,0-.236.168l-3.866,9.251,2.012-.613a.527.527,0,0,0,.236-.168l1.121-2.682a.443.443,0,0,1,.269-.252,6.266,6.266,0,0,0,3.455-2.83c.063-.153.195-.53.032-.715-.141-.161-.585-.273-1.362-.06a.45.45,0,0,1-.453-.136.446.446,0,0,1-.077-.468Zm-2.263,5.925a.886.886,0,0,1-.689-.273.842.842,0,0,1-.1-.936,3.022,3.022,0,0,1,1.783-1.471,1.092,1.092,0,0,1,1.216.186.84.84,0,0,1,.1.936,3.016,3.016,0,0,1-1.783,1.47A1.82,1.82,0,0,1-1178.249,619.4Zm1.47-1.869a1.143,1.143,0,0,0-.217.046,2.222,2.222,0,0,0-1.2.927,1.14,1.14,0,0,0,.216-.046A2.211,2.211,0,0,0-1176.779,617.527Z" transform="translate(1183.221 -612.414)" fill="#6e39b7"/>
            </g>
          </g>
        </g>
        <g id="Grupo_21250" data-name="Grupo 21250" transform="translate(26.931 79.938)">
          <path id="Trazado_39331" data-name="Trazado 39331" d="M-1214.735,642.032a.911.911,0,0,1-.542-.164c-.159-.117-.363-.261-.484-.345a5.939,5.939,0,0,1-.863-.064c-.252-.058-.443-.277-1.01-.963a8,8,0,0,0-1.011-1.1,8.488,8.488,0,0,0-3.353-.608,7.841,7.841,0,0,1-2.9-.494,30.882,30.882,0,0,1-2.651-2.22l.6-.66a29.868,29.868,0,0,0,2.493,2.1,8.17,8.17,0,0,0,2.516.376,8.6,8.6,0,0,1,3.8.764,7.672,7.672,0,0,1,1.193,1.265c.2.237.457.553.58.668.21.018.772.041.772.041a.445.445,0,0,1,.235.079s.361.249.614.435a.465.465,0,0,0,.193-.068,5.512,5.512,0,0,0-.983-2,.446.446,0,0,1,.021-.538.448.448,0,0,1,.524-.127,3.147,3.147,0,0,1,1.052.89c.1.118.2.252.31.393a5.363,5.363,0,0,0,1,1.088.26.26,0,0,0,.136.049,21.867,21.867,0,0,0-1.765-3.879.446.446,0,0,1,.167-.6.446.446,0,0,1,.6.146,15.423,15.423,0,0,0,1.992,2.685.522.522,0,0,0,.343-.084c.114-.422-.674-1.726-1.011-2.283l-.2-.334a6.985,6.985,0,0,0-1.721-2.229c-.957-.529-2.9-.561-4.614-.588a16.466,16.466,0,0,1-3.482-.275,22.007,22.007,0,0,1-3.244-1.318l.4-.8a21.628,21.628,0,0,0,3.071,1.253,16.079,16.079,0,0,0,3.27.246c1.907.03,3.88.063,5.031.7a7.7,7.7,0,0,1,2.063,2.563l.19.32c.7,1.161,1.311,2.269,1.068,3.07a1.21,1.21,0,0,1-1.458.6,3.789,3.789,0,0,1,.2.907.769.769,0,0,1-.429.677,1.085,1.085,0,0,1-1.11-.086,3.308,3.308,0,0,1-.562-.5,1.023,1.023,0,0,1-.062.432.948.948,0,0,1-.649.522A1.24,1.24,0,0,1-1214.735,642.032Z" transform="translate(1227.55 -631.274)" fill="#6e39b7"/>
        </g>
        <g id="Grupo_21251" data-name="Grupo 21251" transform="translate(0 33.101)">
          <path id="Trazado_39332" data-name="Trazado 39332" d="M-1230.892,631.582a.437.437,0,0,1-.176-.036l-2.3-.984a8.061,8.061,0,0,1-4.478-.32c-15.092-6.194-16.066-10.537-16.924-14.37-.066-.3-.131-.588-.2-.88a93.971,93.971,0,0,1-2.693-24.48c0-2.209,1.411-7.864,4-10.353a3.925,3.925,0,0,1,2.9-1.256,5.176,5.176,0,0,1,3.773,1.685c2.044,2.244,2.159,6.077,2.046,8.162a104.443,104.443,0,0,0,1.307,18.4c.3,1.293,2.326,8.05,13.235,14.177a2.269,2.269,0,0,1,1,1.6,2.251,2.251,0,0,0,.153.47,6.806,6.806,0,0,0,1.652,1.167.447.447,0,0,1,.183.59l-3.074,6.182A.446.446,0,0,1-1230.892,631.582Zm-2.431-1.935a.447.447,0,0,1,.176.036l2.044.875,2.7-5.427a5.509,5.509,0,0,1-1.614-1.277,2.593,2.593,0,0,1-.252-.709,1.488,1.488,0,0,0-.57-1.037c-11.239-6.311-13.358-13.4-13.668-14.757a105.757,105.757,0,0,1-1.328-18.65c.18-3.312-.483-6.049-1.814-7.512a4.32,4.32,0,0,0-3.148-1.393,3.08,3.08,0,0,0-2.246,1.007c-2.311,2.222-3.724,7.549-3.724,9.708a93.176,93.176,0,0,0,2.667,24.267c.073.3.14.6.208.9.85,3.8,1.73,7.721,16.391,13.739a7.3,7.3,0,0,0,4.068.245A.433.433,0,0,1-1233.323,629.647Z" transform="translate(1257.664 -578.901)" fill="#6e39b7"/>
        </g>
        <g id="Grupo_21252" data-name="Grupo 21252" transform="translate(17.262 0)">
          <path id="Trazado_39333" data-name="Trazado 39333" d="M-1217.051,549.417c-.11-1.732-2.846-5.127-4.6-6.01-6.931-3.484-10.591.115-10.591.115a4.8,4.8,0,0,0-4.388,2.2c-3.037,4.582-1.129,8.995-1.192,10.4-.181,4,1.325,3.65,2.761,6.241l.391-2.053a2.854,2.854,0,0,1-1.579-2.705c-.025-1.4.824-2.457,2.048-2.182.127.028.228.067.339.1.487-2.459,1.037-4.732,1.037-4.732,1.207-3.309,13.728-1.834,13.711,3.022a35.052,35.052,0,0,1-.936,6.095,4.99,4.99,0,0,0,.6-.615C-1218.51,558.13-1216.812,553.186-1217.051,549.417Z" transform="translate(1238.361 -541.887)" fill="#6e39b7"/>
        </g>
        <g id="Grupo_21253" data-name="Grupo 21253" transform="translate(20.306 2.937)">
          <path id="Trazado_39334" data-name="Trazado 39334" d="M-1217.768,549.9c-3.209-3.874-7.885-5.222-10.835-4.565-3.015.67-4.448,2.057-5.185,3.259a8.856,8.856,0,0,0-.717,7.168h.052a1.624,1.624,0,0,1,.607.014,2.286,2.286,0,0,1,1.808,1.272c.093.11.159.19.159.19l.8-2.124c2.668,2.084,10.094,4.391,10.094,4.391l-.011-.971,1.544,2.767S-1215.085,553.135-1217.768,549.9Z" transform="translate(1234.958 -545.171)" fill="#6e39b7"/>
        </g>
        <g id="Grupo_21254" data-name="Grupo 21254" transform="translate(19.352 18.372)">
          <rect id="Rectángulo_819" data-name="Rectángulo 819" width="4.288" height="0.895" transform="translate(0 4.103) rotate(-73.089)" fill="#6e39b7"/>
        </g>
      </g>
      <g id="Grupo_21288" data-name="Grupo 21288" transform="translate(210.273 0)">
        <g id="Grupo_21256" data-name="Grupo 21256" transform="translate(8.896 233.413)">
          <path id="Trazado_39335" data-name="Trazado 39335" d="M-1242.605,329.455a50.594,50.594,0,0,0-7.458.543l-.138,1.6-.489,3.706-.785,3.276-3.291-1.949V333.8l-.47-2.708c-7.6,2.13-12.729,6.121-12.729,10.7,0,6.814,11.354,12.339,25.36,12.339s25.36-5.524,25.36-12.339S-1228.6,329.455-1242.605,329.455Z" transform="translate(1267.965 -329.455)" fill="#e8e34a"/>
        </g>
        <g id="Grupo_21257" data-name="Grupo 21257" transform="translate(45.943 229.854)">
          <path id="Trazado_39336" data-name="Trazado 39336" d="M-1224.595,329.454c1.67-.19,3.009-1.928,1.949-3.215a4.741,4.741,0,0,1-.478-.763c1.064.757,2.4,2.991,3.161,3.9.677.8,2.487,2.1,2.9,3.033.492,1.1.975,3.3.581,4.245-.15.359-1.442,1.789-1.846,1.816-.95.063-2.771-1.692-3.569-2.449-1.045-.989-1.94-3.782-2.718-4.982-.511-.789-1.852-2.783-1.925-3.643a1.119,1.119,0,0,1,.016-.276C-1225.334,328.6-1224.595,329.454-1224.595,329.454Z" transform="translate(1226.539 -325.476)" fill="#6e39b7"/>
        </g>
        <g id="Grupo_21258" data-name="Grupo 21258" transform="translate(14.946 238.523)">
          <path id="Trazado_39337" data-name="Trazado 39337" d="M-1260.807,343.934c2.518-1.619,3.516-2.713,5.176-6.163a8.43,8.43,0,0,1,1.693-2.6c.047.337.091.657.124.938a1.935,1.935,0,0,0,3.425.917,4.8,4.8,0,0,0,.554-1.823,1.621,1.621,0,0,1,.456.772,10.611,10.611,0,0,1,.208,1.84,17.425,17.425,0,0,1-.516,3.988l-2.024,1.364v-1.043a17.686,17.686,0,0,1-4.727,4.2,2.8,2.8,0,0,1-3.109.152,5.373,5.373,0,0,1-1.57-1.334A1,1,0,0,1-1260.807,343.934Z" transform="translate(1261.2 -335.169)" fill="#6e39b7"/>
        </g>
        <g id="Grupo_21259" data-name="Grupo 21259" transform="translate(19.111 60.704)">
          <path id="Trazado_39338" data-name="Trazado 39338" d="M-1236.644,161.074a22.941,22.941,0,0,1,.088,2.461c-.016.758-1.037.819-1.134,1.463-1.6-1.091-2.331-1.409-3.39-2.045a13.007,13.007,0,0,0-1.722-.862c.016-.638.024-1.3.017-1.984,0-.42-.013-1.915-.023-3.526.022-.1.052-.192.067-.291.021-.124.038-.261.054-.4a.965.965,0,0,0,.546.1,2.366,2.366,0,0,0,1.955-1.984c.237-1.07-.255-1.96-1.243-1.867a1.923,1.923,0,0,0-1.114.457c.009-2.1-.08-4.127-.08-4.127-.459-2.757-10.737-3.9-11.795.174a24.74,24.74,0,0,0-.042,7.646,8.384,8.384,0,0,0,2.681,4.569c-.425.022-.753.043-.938.042a5.646,5.646,0,0,0-1.279.141c-1.563-8.087-4.075-12.286-1.3-17.861,2.345-4.715,4.721-6.9,11.2-6.845,2.1.019,5.74.749,8.816,5.633,1.889,3,1.569,8.682,1.251,11.014C-1234.468,156.216-1236.908,158.039-1236.644,161.074Z" transform="translate(1256.542 -136.332)" fill="#6e39b7"/>
        </g>
        <g id="Grupo_21265" data-name="Grupo 21265" transform="translate(1.978 34.344)">
          <g id="Grupo_21260" data-name="Grupo 21260" transform="translate(4.682 0.536)">
            <path id="Trazado_39339" data-name="Trazado 39339" d="M-1269.594,114.946l-.872-.2.82-3.5c.015-.052.7-2.307.9-3.058a.985.985,0,0,1,1.057-.723l.828.139-.148.882-.8-.135a.12.12,0,0,0-.074.066c-.2.767-.877,2.968-.905,3.062Z" transform="translate(1270.466 -107.455)" fill="#6e39b7"/>
          </g>
          <g id="Grupo_21261" data-name="Grupo 21261" transform="translate(6.052)">
            <path id="Trazado_39340" data-name="Trazado 39340" d="M-1268.069,114.7l-.865-.228.939-3.556a29.263,29.263,0,0,1,.8-3.089c.175-.483.463-1.036,1.153-.961a.863.863,0,0,1,.653.385,1.166,1.166,0,0,1,.057,1.043c-.527,1.591-1.377,6.226-1.384,6.273l-.881-.161c.036-.193.87-4.743,1.417-6.393a.486.486,0,0,0,.039-.277c-.019.017-.1.072-.212.4a28.652,28.652,0,0,0-.776,2.989Z" transform="translate(1268.934 -106.855)" fill="#6e39b7"/>
          </g>
          <g id="Grupo_21262" data-name="Grupo 21262" transform="translate(0 1.635)">
            <path id="Trazado_39341" data-name="Trazado 39341" d="M-1274.824,133.639l-.877-.174,2.469-12.451a5.719,5.719,0,0,1-.511-3.636,18.536,18.536,0,0,1,1.367-3.318,19.287,19.287,0,0,1,.7-2.654,16.678,16.678,0,0,1,1.362-2.025c.234-.373.495-.79,1.052-.679l-.174.877a.127.127,0,0,0,.091-.024,2.318,2.318,0,0,0-.234.334,16.767,16.767,0,0,0-1.281,1.883,19.212,19.212,0,0,0-.649,2.525.42.42,0,0,1-.042.118,18.909,18.909,0,0,0-1.315,3.151,4.987,4.987,0,0,0,.507,3.192.454.454,0,0,1,.024.342Z" transform="translate(1275.701 -108.684)" fill="#6e39b7"/>
          </g>
          <g id="Grupo_21263" data-name="Grupo 21263" transform="translate(4.886 7.841)">
            <path id="Trazado_39342" data-name="Trazado 39342" d="M-1269.353,135.233l-.885-.131,1.889-12.729a.445.445,0,0,1,.254-.34,5.417,5.417,0,0,0,2.792-2.47,7.829,7.829,0,0,0,.955-2.823,6.545,6.545,0,0,0-.38.63,3.3,3.3,0,0,1-.541.777c-.293.31-.378.415-.393.434l-.715-.537s.076-.106.456-.51a2.483,2.483,0,0,0,.408-.593,7.113,7.113,0,0,1,.485-.789,1.035,1.035,0,0,1,.826-.527.7.7,0,0,1,.582.407c.454.837-.149,2.367-.867,3.9a6.138,6.138,0,0,1-3.015,2.813Z" transform="translate(1270.237 -115.624)" fill="#6e39b7"/>
          </g>
          <g id="Grupo_21264" data-name="Grupo 21264" transform="translate(8.505 0.707)">
            <path id="Trazado_39343" data-name="Trazado 39343" d="M-1265.307,118.772l-.885-.141a36.1,36.1,0,0,0,.346-4.243.424.424,0,0,1,.021-.126,17.436,17.436,0,0,0,.6-2.4,26.777,26.777,0,0,0-.052-3.191.323.323,0,0,0-.054-.141l.1-.882a.957.957,0,0,1,.828.849,25.7,25.7,0,0,1,.066,3.448,17.955,17.955,0,0,1-.619,2.525A36.16,36.16,0,0,1-1265.307,118.772Z" transform="translate(1266.191 -107.646)" fill="#6e39b7"/>
          </g>
        </g>
        <g id="Grupo_21266" data-name="Grupo 21266" transform="translate(0 60.4)">
          <path id="Trazado_39344" data-name="Trazado 39344" d="M-1261.81,171.564c-7.279-4.106-11.353-11.534-12.428-13.713-3.136-6.354-4.183-9.1-3.451-19.961a2.287,2.287,0,0,1,.806-1.537,1.426,1.426,0,0,1,1.071-.351c1.8.233,5.183.972,5.326,1,1.316.216,1.681,1.7,1.574,3.02a19.261,19.261,0,0,0,2.613,11.543,38.493,38.493,0,0,0,9.291,9.082l-.484.752a39.448,39.448,0,0,1-9.535-9.315c-1.675-2.356-3.165-7.28-2.776-12.134.016-.2.125-1.909-.851-2.07-.058-.012-3.508-.766-5.273-.994a.528.528,0,0,0-.389.156,1.389,1.389,0,0,0-.482.906c-.717,10.63.3,13.312,3.361,19.506,1.045,2.12,5.009,9.349,12.066,13.329Z" transform="translate(1277.913 -135.992)" fill="#6e39b7"/>
        </g>
        <g id="Grupo_21269" data-name="Grupo 21269" transform="translate(48.489 40.898)">
          <g id="Grupo_21267" data-name="Grupo 21267" transform="translate(4.009)">
            <path id="Trazado_39345" data-name="Trazado 39345" d="M-1214.344,137.859l-2.491-12.552a.448.448,0,0,1,.027-.328,5,5,0,0,0,.51-3.192,18.964,18.964,0,0,0-1.317-3.151.487.487,0,0,1-.042-.117,19.273,19.273,0,0,0-.649-2.525,5.871,5.871,0,0,0-.9-1.19l.646-.619a6.656,6.656,0,0,1,1.072,1.442,19.4,19.4,0,0,1,.7,2.653,18.668,18.668,0,0,1,1.367,3.319,5.72,5.72,0,0,1-.512,3.636l2.47,12.451Z" transform="translate(1219.209 -114.184)" fill="#6e39b7"/>
          </g>
          <g id="Grupo_21268" data-name="Grupo 21268" transform="translate(0 9.912)">
            <path id="Trazado_39346" data-name="Trazado 39346" d="M-1219.712,139.891l-1.853-12.492a7.4,7.4,0,0,1-2.128-1.519l.652-.612a6.73,6.73,0,0,0,2.062,1.419.465.465,0,0,1,.263.344l1.887,12.728Z" transform="translate(1223.692 -125.268)" fill="#6e39b7"/>
          </g>
        </g>
        <g id="Grupo_21270" data-name="Grupo 21270" transform="translate(13.047 191.643)">
          <path id="Trazado_39347" data-name="Trazado 39347" d="M-1252.122,332.657a2.47,2.47,0,0,1-.665-.092,2.283,2.283,0,0,1-1.695-1.946c-.4-3.377-1.907-10.9-3.656-19.606-1.614-8.047-3.446-17.168-4.6-24.148-.25-1.506-.361-2.19-.581-4.009l.887-.107c.219,1.8.328,2.477.576,3.97,1.157,6.967,2.986,16.079,4.6,24.119,1.752,8.727,3.265,16.264,3.666,19.676a1.411,1.411,0,0,0,1.048,1.19,1.475,1.475,0,0,0,1.581-.5c1.487-1.9,1.611-26.519.182-36.092-.3-2-.5-4.348-.638-6.167l.892-.068c.138,1.8.335,4.127.63,6.1,1.287,8.612,1.538,34.351-.362,36.775A2.352,2.352,0,0,1-1252.122,332.657Z" transform="translate(1263.324 -282.748)" fill="#6e39b7"/>
        </g>
        <g id="Grupo_21271" data-name="Grupo 21271" transform="translate(27.445 198.009)">
          <path id="Trazado_39348" data-name="Trazado 39348" d="M-1226.781,326.137a.446.446,0,0,1-.339-.156c-.166-.192-16.553-19.363-19.893-33.751a12.7,12.7,0,0,1-.211-2l.893-.058a11.661,11.661,0,0,0,.189,1.852c3.113,13.412,17.826,31.15,19.538,33.18A2.263,2.263,0,0,0-1225,323.95a1.124,1.124,0,0,0-.179-1.191c-1.376-1.669-4.213-10.468-6.956-18.977-1.868-5.795-3.632-11.269-4.647-13.551l.818-.364c1.033,2.326,2.805,7.822,4.681,13.641,2.592,8.036,5.528,17.145,6.795,18.684a2.016,2.016,0,0,1,.318,2.1,3.174,3.174,0,0,1-2.561,1.848Z" transform="translate(1247.224 -289.867)" fill="#6e39b7"/>
        </g>
        <g id="Grupo_21272" data-name="Grupo 21272" transform="translate(41.077 221.428)">
          <path id="Trazado_39349" data-name="Trazado 39349" d="M-1231.766,320.368l-.214-.868.451-.106a6.631,6.631,0,0,0,2.359-.893,5.1,5.1,0,0,0,1.851-2.447l.852.268a5.913,5.913,0,0,1-2.22,2.931,7.427,7.427,0,0,1-2.641,1.011Z" transform="translate(1231.98 -316.054)" fill="#6e39b7"/>
        </g>
        <g id="Grupo_21273" data-name="Grupo 21273" transform="translate(20.842 230.436)">
          <path id="Trazado_39350" data-name="Trazado 39350" d="M-1252.252,328.04a6.269,6.269,0,0,1-2.355-.36l.3-.842a5.41,5.41,0,0,0,2.051.308,6.138,6.138,0,0,0,3.526-1.019l.5.739A7,7,0,0,1-1252.252,328.04Z" transform="translate(1254.607 -326.127)" fill="#6e39b7"/>
        </g>
        <g id="Grupo_21274" data-name="Grupo 21274" transform="translate(22.174 85.333)">
          <path id="Trazado_39351" data-name="Trazado 39351" d="M-1245.623,174.933a9.074,9.074,0,0,1-4.32-1.2c-3.287-1.77-3.34-5.465-3.079-7.51a3.134,3.134,0,0,1,2.163-2.35l.238.862a2.258,2.258,0,0,0-1.514,1.6c-.232,1.817-.2,5.093,2.617,6.609,3.006,1.619,5.245,1.139,6.6.449a6.407,6.407,0,0,0,3.346-4.53,3.313,3.313,0,0,0-.641-2.218l.7-.553a4.23,4.23,0,0,1,.822,2.889,7.243,7.243,0,0,1-3.824,5.207A6.789,6.789,0,0,1-1245.623,174.933Z" transform="translate(1253.118 -163.872)" fill="#6e39b7"/>
        </g>
        <g id="Grupo_21275" data-name="Grupo 21275" transform="translate(32.396 80.365)">
          <path id="Trazado_39352" data-name="Trazado 39352" d="M-1240.794,167.094l-.894-.021c.015-.61.032-4.007.027-4.637-.01-1.024-.027-4.115-.027-4.115l.894,0s.017,3.087.027,4.11C-1240.761,163.061-1240.778,166.48-1240.794,167.094Z" transform="translate(1241.688 -158.317)" fill="#6e39b7"/>
        </g>
        <g id="Grupo_21276" data-name="Grupo 21276" transform="translate(20.473 72.901)">
          <path id="Trazado_39353" data-name="Trazado 39353" d="M-1249.178,164.034a2.172,2.172,0,0,1-.416-.038c-1.186-.235-4.349-2.346-5.144-6.177a25.349,25.349,0,0,1,.046-7.849l.866.224a24.521,24.521,0,0,0-.038,7.443,7.523,7.523,0,0,0,4.443,5.481,5.572,5.572,0,0,0,3.384-1.259,6.755,6.755,0,0,0,3.014-4.2l.884.141a7.649,7.649,0,0,1-3.388,4.791A7.134,7.134,0,0,1-1249.178,164.034Z" transform="translate(1255.02 -149.97)" fill="#6e39b7"/>
        </g>
        <g id="Grupo_21277" data-name="Grupo 21277" transform="translate(20.199 64.816)">
          <path id="Trazado_39354" data-name="Trazado 39354" d="M-1255.326,151.672s.146-6.193,3.169-8.715c3.617-3.018,6.452-2.068,8.986-.966,2.867,1.247,3.843,3.038,4.1,4.209a9.692,9.692,0,0,1-1,7.24,1.1,1.1,0,0,0-1.222-.818,2.124,2.124,0,0,0-1.856,1.749,1.722,1.722,0,0,0-.052.212c-.7-.09-2.043-.323-2.292-.791a6.41,6.41,0,0,1,.085-2.331l-1.248,2.121Z" transform="translate(1255.326 -140.929)" fill="#6e39b7"/>
        </g>
        <g id="Grupo_21278" data-name="Grupo 21278" transform="translate(31.946 76.056)">
          <path id="Trazado_39355" data-name="Trazado 39355" d="M-1240.743,158.257a1.467,1.467,0,0,1-1.172-.593l.707-.546a.566.566,0,0,0,.532.241,1.921,1.921,0,0,0,1.568-1.637,1.3,1.3,0,0,0-.171-1.123.664.664,0,0,0-.594-.2,1.589,1.589,0,0,0-1.436,1.329l-.042.126-.842-.3.03-.092a2.5,2.5,0,0,1,2.205-1.951,1.558,1.558,0,0,1,1.349.5,2.147,2.147,0,0,1,.373,1.909,2.82,2.82,0,0,1-2.342,2.332A1.521,1.521,0,0,1-1240.743,158.257Z" transform="translate(1242.191 -153.498)" fill="#6e39b7"/>
        </g>
        <g id="Grupo_21279" data-name="Grupo 21279" transform="translate(9.794 118.011)">
          <path id="Trazado_39356" data-name="Trazado 39356" d="M-1243.369,281.715c-8.453,0-20.535-4.322-22.495-11.083-.327-1.129-.325-4.779-.321-9.833,0-3.772.005-8.467-.14-13.142-.078-2.479-.167-4.926-.253-7.3-.365-10.067-.679-18.763.095-23.078a68.134,68.134,0,0,1,5.96-16.868l.792.418a67.107,67.107,0,0,0-5.871,16.608c-.757,4.222-.445,12.872-.08,22.889.085,2.374.175,4.823.252,7.3.146,4.688.143,9.392.141,13.17,0,4.792-.006,8.576.286,9.583,2.048,7.066,16.015,11.283,24.05,10.3,1.854-.228,4.978-.964,5.066-3.332.03-.794.055-1.592.081-2.406a149.525,149.525,0,0,1,1.228-16.324c.523-3.947,1.262-8.089,1.913-11.744a80.863,80.863,0,0,0,1.405-9.511c.041-15.842-7.213-32.917-7.285-33.088l.821-.352c.074.173,7.4,17.415,7.358,33.443a78.862,78.862,0,0,1-1.418,9.666c-.65,3.645-1.387,7.777-1.907,11.7a148.425,148.425,0,0,0-1.22,16.236c-.026.816-.052,1.615-.081,2.41-.085,2.246-2.163,3.733-5.851,4.186A20.716,20.716,0,0,1-1243.369,281.715Z" transform="translate(1266.961 -200.412)" fill="#6e39b7"/>
        </g>
        <g id="Grupo_21281" data-name="Grupo 21281" transform="translate(15.753 64.04)">
          <g id="Grupo_21280" data-name="Grupo 21280">
            <path id="Trazado_39357" data-name="Trazado 39357" d="M-1244.445,199.835c-10.06,0-15.268-4.4-15.774-6.471a9.37,9.37,0,0,1,.51-3.363,21.7,21.7,0,0,0,.747-4.146c.011-.579-.235-2.266-.5-4.052-.441-3.029-.989-6.8-.8-8.4a37.877,37.877,0,0,1,2.2-8.885c.868-2.471,2.476-3.673,4.912-3.673h.049c.135,0,.573-.01.81-.023l.049.893c-.259.013-.726.029-.872.024-2.1,0-3.358.95-4.1,3.075a37.033,37.033,0,0,0-2.15,8.693c-.174,1.485.365,5.19.8,8.167a40.425,40.425,0,0,1,.5,4.2,22.335,22.335,0,0,1-.772,4.341,11.307,11.307,0,0,0-.511,2.94c.483,1.973,6.462,6.558,17.7,5.678,2.333-.182,3.953-1.193,3.984-1.553a7.737,7.737,0,0,0-.128-1.662,13.177,13.177,0,0,1-.17-1.7c-.046-2.753,1.135-7.274,2.277-11.647.465-1.78.945-3.621,1.327-5.284l.528-1.527a.447.447,0,0,1,.3-.283l1.2-.338c7.026-3.985,10.976-11.187,12.02-13.3,3.057-6.195,4.077-8.879,3.361-19.505a1.4,1.4,0,0,0-.483-.907.555.555,0,0,0-.389-.155c-1.765.227-5.215.982-5.249.989-1,.166-.891,1.881-.876,2.076.39,4.855-1.1,9.779-2.774,12.133a39.5,39.5,0,0,1-9.535,9.315.449.449,0,0,1-.16.064l-1.592.3a.451.451,0,0,1-.32-.061c-.834-.523-1.837-1.12-2.615-1.582l-.767-.458a12.5,12.5,0,0,0-1.533-.781l.352-.823a13.6,13.6,0,0,1,1.643.837l.763.455c.738.439,1.677,1,2.484,1.5l1.335-.249a38.662,38.662,0,0,0,9.217-9.034,19.261,19.261,0,0,0,2.612-11.544c-.1-1.318.26-2.8,1.6-3.025.121-.028,3.5-.766,5.3-1a1.422,1.422,0,0,1,1.07.351,2.294,2.294,0,0,1,.808,1.537c.731,10.857-.316,13.607-3.452,19.962-1.076,2.178-5.151,9.606-12.428,13.712a.434.434,0,0,1-.1.041l-1.027.29-.438,1.26c-.371,1.629-.854,3.477-1.321,5.264-1.127,4.314-2.291,8.777-2.247,11.407a12.414,12.414,0,0,0,.16,1.59,8.289,8.289,0,0,1,.134,1.866c-.1,1.183-2.611,2.2-4.8,2.37Q-1243.072,199.837-1244.445,199.835Z" transform="translate(1260.298 -140.062)" fill="#6e39b7"/>
          </g>
        </g>
        <g id="Grupo_21282" data-name="Grupo 21282" transform="translate(13.834)">
          <path id="Trazado_39358" data-name="Trazado 39358" d="M-1231.966,122.946l-.485-.75,3.566-2.31c3.789-2.4,5.538-7.672,4.93-14.84-1.159-13.625-11.221-28.886-22.43-34.021a16.73,16.73,0,0,0-6.912-1.679,10.937,10.937,0,0,0-5.533,1.616l-3.159,1.873-.456-.769,3.159-1.873a11.82,11.82,0,0,1,5.987-1.741,17.61,17.61,0,0,1,7.286,1.76c11.471,5.254,21.764,20.847,22.948,34.758.638,7.517-1.258,13.081-5.339,15.668Z" transform="translate(1262.444 -68.452)" fill="#6e39b7"/>
        </g>
        <g id="Grupo_21285" data-name="Grupo 21285" transform="translate(7.655 2.112)">
          <g id="Grupo_21284" data-name="Grupo 21284">
            <g id="Grupo_21283" data-name="Grupo 21283">
              <path id="Trazado_39359" data-name="Trazado 39359" d="M-1239,125.082a17.655,17.655,0,0,1-7.295-1.757c-11.47-5.255-21.764-20.848-22.947-34.759-.613-7.207,1.36-12.974,5.412-15.824,3.567-2.511,8.42-2.57,13.659-.17,11.47,5.255,21.764,20.848,22.948,34.759.612,7.206-1.36,12.974-5.412,15.824A10.864,10.864,0,0,1-1239,125.082Zm-6.923-2.571c4.94,2.263,9.477,2.232,12.774-.088,3.785-2.662,5.62-8.135,5.035-15.017-1.159-13.625-11.221-28.887-22.429-34.022-4.939-2.263-9.476-2.231-12.773.088-3.784,2.662-5.62,8.136-5.036,15.018,1.159,13.625,11.221,28.887,22.429,34.021Zm5.753-.808a15.475,15.475,0,0,1-6.394-1.541c-10.033-4.6-19.037-18.235-20.072-30.4-.537-6.315,1.194-11.372,4.75-13.872,3.132-2.2,7.389-2.26,11.984-.153,10.034,4.595,19.039,18.234,20.074,30.4.536,6.315-1.194,11.371-4.75,13.872A9.552,9.552,0,0,1-1240.17,121.7Zm-16.122-46.612a8.671,8.671,0,0,0-5.081,1.528c-3.288,2.313-4.882,7.075-4.373,13.065,1.01,11.882,9.782,25.189,19.553,29.665,4.3,1.967,8.238,1.941,11.1-.072,3.288-2.314,4.882-7.075,4.373-13.065-1.01-11.882-9.784-25.189-19.555-29.665A14.575,14.575,0,0,0-1256.292,75.09Z" transform="translate(1269.353 -70.813)" fill="#6e39b7"/>
            </g>
          </g>
        </g>
        <g id="Grupo_21287" data-name="Grupo 21287" transform="translate(19.96 14.728)">
          <g id="Grupo_21286" data-name="Grupo 21286">
            <path id="Trazado_39360" data-name="Trazado 39360" d="M-1248.633,112.2v-2.84l-.143-.1A17.573,17.573,0,0,1-1255.4,101l-.193-.527,2.849.283.165.4a13.306,13.306,0,0,0,5.225,5.8c2.938,1.7,4.763,1.425,4.763-.707,0-1.752-1.533-3.658-4.825-6-4.044-2.847-7.394-5.588-7.394-10.311,0-4.781,4.621-3.118,6.037-2.494l.139.062V84.921l3.068,1.772v2.589l.132.1a14.787,14.787,0,0,1,5.14,6.4l.218.538-2.6-.143-.181-.343a12.518,12.518,0,0,0-4.388-4.523c-2.788-1.61-4.388-1.438-4.388.47,0,2.059,1.941,3.6,4.478,5.41,4.164,2.982,7.9,6.067,7.9,10.991,0,4.092-3.1,4.391-6.163,2.872l-.146-.072v2.993Z" transform="translate(1255.593 -84.921)" fill="#6e39b7"/>
          </g>
        </g>
      </g>
      <path id="Trazado_39875" data-name="Trazado 39875" d="M0,37.429" transform="translate(377.889 601.87)" fill="none" stroke="#1b3e58" stroke-width="1.2"/>
    </g>
  </g>
</svg>
