<svg xmlns="http://www.w3.org/2000/svg" xmlns:xlink="http://www.w3.org/1999/xlink" width="390.994" height="493.377" viewBox="0 0 390.994 493.377">
  <defs>
    <linearGradient id="linear-gradient" x1="0.482" y1="0.335" x2="0.753" y2="2.124" gradientUnits="objectBoundingBox">
      <stop offset="0" stop-color="#f2f2f2"/>
      <stop offset="1" stop-color="#797979"/>
    </linearGradient>
  </defs>
  <g id="Grupo_22028" data-name="Grupo 22028" transform="translate(-107.711 -2729)">
    <ellipse id="Elipse_1767" data-name="Elipse 1767" cx="168.717" cy="168.979" rx="168.717" ry="168.979" transform="translate(166.396 2759.5) rotate(10)" opacity="0.1" fill="url(#linear-gradient)"/>
    <path id="Trazado_39892" data-name="Trazado 39892" d="M-4328.945-13410.771l88,48.938v219.387l-91.056-48.909Z" transform="translate(4537 16347)" fill="#ecf8f9"/>
    <path id="Trazado_39890" data-name="Trazado 39890" d="M-4194.884-13431.475v16.876l-33.763,19.328-34.215-19.328v-17.7l34.215,19.586Z" transform="translate(4537 16347)" fill="#e8e34a" opacity="0.6"/>
    <ellipse id="Elipse_1769" data-name="Elipse 1769" cx="49" cy="29.5" rx="49" ry="29.5" transform="translate(260 2730)" fill="#e8e34a" opacity="0.6"/>
    <g id="Componente_6_3" data-name="Componente 6 – 3" transform="translate(205.246 2729)">
      <path id="Trazado_39851" data-name="Trazado 39851" d="M-1960.592-411.327l-101.118,60.434h1.9L-1971.722-301l104.585-59.416Z" transform="translate(2063.714 557.699)" fill="none"/>
      <path id="Trazado_39863" data-name="Trazado 39863" d="M-5066.734-13725.1h19.151s3.344,8.2,1.387,11.672a10.658,10.658,0,0,1-4.853,4.594h-11.988l-4.9-4.594v-3.723Z" transform="translate(5160.393 13859.047)" fill="#e9fcfe"/>
      <g id="Grupo_22004" data-name="Grupo 22004" transform="translate(-0.246)" opacity="0.6">
        <path id="Trazado_39859" data-name="Trazado 39859" d="M-2017.019-508.452s-1.434,28.962,51.073,29.977c0,0,43.926.188,44.758-29.977h5.378s5.917,25.592-8.226,59.586-28.63,46.957-48.583,53.174c0,0-12.966-10.734-19.555-15.925s-7.98-7.9-7.98-7.9-24.349-36.437-22.835-83.939Z" transform="translate(2072.677 537.535)" fill="#e9fcfe" opacity="0.996"/>
        <path id="Trazado_39860" data-name="Trazado 39860" d="M-2017.821-498.21s-.1-17.6,19.34-24.339,43.638-8.785,58.343,0,17.554,9.784,18.782,20.378l5.432-1.06s.969-6.311-5.458-12.132-25.852-18.953-50.691-16.694-51.454,11.333-50.433,35.509S-2017.821-498.21-2017.821-498.21Z" transform="translate(2072.792 532.315)" fill="#e9fcfe"/>
        <path id="Trazado_39861" data-name="Trazado 39861" d="M-2010.645-476.876s-11.177-1.839-16.17,9.173-6.477,12.866,3.248,29.888c0,0,11.584,4.84,24.02,2.618s15.9,19.521,8.229,21.542l-1.566,1.3-3.811,2.086-4.917-1.976-2.935-.8-1.171-2.932-.813-2.438.813-2.742,2.786-2.056,2.446-.742,3.526,2.218.814.58v-2.8s.967-4.625-5.466-5.444-17.915-2.006-17.915-2.006-17.935-4.445-19.266-21.949,12.133-27.552,22.027-30.5S-2010.645-476.876-2010.645-476.876Z" transform="translate(2069.215 542.796)" fill="#e9fcfe"/>
        <path id="Trazado_39862" data-name="Trazado 39862" d="M-1944.558-519.084s10.386-15.506,26.017-7.325,4.021,34.176,4.021,34.176-13.642,19.046-20.3,21.806,2.257-9.066,2.257-9.066a50.13,50.13,0,0,0,11.826-15.082c4.456-9.083,2.882-25.855,0-27.026s-9.02-3.236-17.706,5.468Z" transform="translate(2089.851 533.086)" fill="#e9fcfe"/>
      </g>
      <g id="Grupo_21624" data-name="Grupo 21624" transform="translate(-0.246)">
        <g id="Grupo_21301" data-name="Grupo 21301" transform="translate(2.486 150.48)">
          <path id="Trazado_39452" data-name="Trazado 39452" d="M-2060.9-351.656l-.618-1.105,95.573-55.923.618,1.105Z" transform="translate(2061.516 408.685)" fill="#6e39b7"/>
        </g>
        <g id="Grupo_21302" data-name="Grupo 21302" transform="translate(108.77 150.495)">
          <path id="Trazado_39453" data-name="Trazado 39453" d="M-1887.5-361.043l-86.808-46.724.52-.906,86.808,46.723Z" transform="translate(1974.31 408.673)" fill="#6e39b7"/>
        </g>
        <g id="Grupo_21305" data-name="Grupo 21305" transform="translate(108.65 165.963)">
          <path id="Trazado_39454" data-name="Trazado 39454" d="M-1920.615-366.1l-53.794-28.989.543-.895,53.794,28.987Z" transform="translate(1974.409 395.981)" fill="#6e39b7"/>
        </g>
        <g id="Grupo_21310" data-name="Grupo 21310" transform="translate(35.445 179.543)">
          <path id="Trazado_39455" data-name="Trazado 39455" d="M-2033.971-359.173l-.5-.868,43.438-24.8.5.869Z" transform="translate(2034.473 384.839)" fill="#6e39b7"/>
        </g>
        <g id="Grupo_21329" data-name="Grupo 21329" transform="translate(0.246 411.112)">
          <g id="Grupo_21327" data-name="Grupo 21327" transform="translate(0 8.076)">
            <path id="Trazado_39378" data-name="Trazado 39378" d="M-2060.75-188.211v7.16l88.727,49.755.887-.366,68.726-39,1.077,3.1-68.1,39.095a6.907,6.907,0,0,1-6.9-.012l-83.582-48.357a6.9,6.9,0,0,1-2.508-9.437A6.9,6.9,0,0,1-2060.75-188.211Z" transform="translate(2063.354 188.211)" fill="#6e39b7"/>
          </g>
          <g id="Grupo_21328" data-name="Grupo 21328" transform="translate(169.463)">
            <path id="Trazado_39379" data-name="Trazado 39379" d="M-1898.877-184.983l-24.4,14.009-1.029-3.169.609-.385,25.541-14.464.2-5.844,2.13,6.247A6.806,6.806,0,0,1-1898.877-184.983Z" transform="translate(1924.31 194.837)" fill="#6e39b7"/>
          </g>
        </g>
        <g id="Grupo_21332" data-name="Grupo 21332" transform="translate(2.25 429.411)">
          <path id="Trazado_39382" data-name="Trazado 39382" d="M-1973.945-119.991a7.065,7.065,0,0,0,3.769-1.1l66.89-42.058-.481-.907-66.888,42.058a6.14,6.14,0,0,1-6.6-.012l-85.815-54.382-.481.906,85.815,54.382A7.065,7.065,0,0,0-1973.945-119.991Z" transform="translate(2063.556 176.388)" fill="#6e39b7"/>
        </g>
        <g id="Grupo_21339" data-name="Grupo 21339" transform="translate(67.128 441.87)">
          <g id="Grupo_21338" data-name="Grupo 21338" transform="translate(0 0)">
            <g id="Grupo_21336" data-name="Grupo 21336">
              <path id="Trazado_39384" data-name="Trazado 39384" d="M-2001.619-157.273a2.732,2.732,0,0,0,1.378-.357,3.535,3.535,0,0,0,1.525-3.25,10.214,10.214,0,0,0-4.617-7.994,3.139,3.139,0,0,0-4.421.406,3.141,3.141,0,0,0-.679,2.539,10.212,10.212,0,0,0,4.615,7.993A4.453,4.453,0,0,0-2001.619-157.273Zm-3.9-11.3a3.507,3.507,0,0,1,1.706.533,9.141,9.141,0,0,1,4.132,7.155,2.195,2.195,0,0,1-1.613,2.651,2.2,2.2,0,0,1-2.035-.546,9.14,9.14,0,0,1-4.13-7.154,2.622,2.622,0,0,1,1.04-2.412,1.754,1.754,0,0,1,.895-.225Z" transform="translate(2008.477 169.601)" fill="#6e39b7"/>
            </g>
            <g id="Grupo_21337" data-name="Grupo 21337" transform="translate(2.436 3.01)">
              <path id="Trazado_39385" data-name="Trazado 39385" d="M-2006.479-165.37a5.454,5.454,0,0,0,2.467,4.273c1.362.787,2.467.149,2.467-1.425a5.451,5.451,0,0,0-2.467-4.272C-2005.375-167.581-2006.479-166.943-2006.479-165.37Z" transform="translate(2006.479 167.131)" fill="#6e39b7"/>
            </g>
          </g>
        </g>
        <g id="Grupo_21343" data-name="Grupo 21343" transform="translate(11.153 411.811)">
          <g id="Grupo_21342" data-name="Grupo 21342">
            <g id="Grupo_21340" data-name="Grupo 21340">
              <path id="Trazado_39386" data-name="Trazado 39386" d="M-2047.547-181.934a2.739,2.739,0,0,0,1.38-.358,3.53,3.53,0,0,0,1.523-3.25,10.218,10.218,0,0,0-4.615-7.994,3.136,3.136,0,0,0-4.418.4,3.128,3.128,0,0,0-.681,2.542,10.214,10.214,0,0,0,4.615,7.994A4.446,4.446,0,0,0-2047.547-181.934Zm-3.9-11.3a3.5,3.5,0,0,1,1.706.534,9.14,9.14,0,0,1,4.13,7.155,2.194,2.194,0,0,1-1.613,2.65,2.2,2.2,0,0,1-2.033-.545,9.141,9.141,0,0,1-4.13-7.154A2.623,2.623,0,0,1-2052.35-193a1.765,1.765,0,0,1,.9-.228Z" transform="translate(2054.405 194.264)" fill="#6e39b7"/>
            </g>
            <g id="Grupo_21341" data-name="Grupo 21341" transform="translate(2.436 3.011)">
              <path id="Trazado_39387" data-name="Trazado 39387" d="M-2052.406-190.032a5.453,5.453,0,0,0,2.467,4.272c1.363.787,2.467.149,2.467-1.425a5.456,5.456,0,0,0-2.467-4.272C-2051.3-192.243-2052.406-191.605-2052.406-190.032Z" transform="translate(2052.406 191.793)" fill="#6e39b7"/>
            </g>
          </g>
        </g>
        <g id="Grupo_21347" data-name="Grupo 21347" transform="translate(67.471 257.725)">
          <g id="Grupo_21346" data-name="Grupo 21346">
            <g id="Grupo_21344" data-name="Grupo 21344">
              <path id="Trazado_39388" data-name="Trazado 39388" d="M-2001.341-308.362a2.743,2.743,0,0,0,1.381-.358,3.538,3.538,0,0,0,1.523-3.25,10.214,10.214,0,0,0-4.615-7.993,3.138,3.138,0,0,0-4.419.4,3.14,3.14,0,0,0-.68,2.541,10.22,10.22,0,0,0,4.616,7.994A4.455,4.455,0,0,0-2001.341-308.362Zm-3.9-11.3a3.5,3.5,0,0,1,1.706.534,9.142,9.142,0,0,1,4.131,7.154,2.195,2.195,0,0,1-1.614,2.65,2.2,2.2,0,0,1-2.033-.545,9.141,9.141,0,0,1-4.131-7.154,2.625,2.625,0,0,1,1.039-2.412,1.775,1.775,0,0,1,.894-.225Z" transform="translate(2008.197 320.69)" fill="#6e39b7"/>
            </g>
            <g id="Grupo_21345" data-name="Grupo 21345" transform="translate(2.436 3.01)">
              <path id="Trazado_39389" data-name="Trazado 39389" d="M-2006.2-316.459a5.452,5.452,0,0,0,2.467,4.272c1.363.787,2.467.149,2.467-1.423a5.453,5.453,0,0,0-2.467-4.273C-2005.094-318.671-2006.2-318.033-2006.2-316.459Z" transform="translate(2006.198 318.221)" fill="#6e39b7"/>
            </g>
          </g>
        </g>
        <g id="Grupo_21351" data-name="Grupo 21351" transform="translate(11.495 227.669)">
          <g id="Grupo_21350" data-name="Grupo 21350">
            <g id="Grupo_21348" data-name="Grupo 21348">
              <path id="Trazado_39390" data-name="Trazado 39390" d="M-2047.266-333.023a2.737,2.737,0,0,0,1.379-.358,3.53,3.53,0,0,0,1.524-3.25,10.219,10.219,0,0,0-4.615-7.994,3.139,3.139,0,0,0-4.421.4,3.134,3.134,0,0,0-.68,2.539,10.216,10.216,0,0,0,4.617,7.994A4.457,4.457,0,0,0-2047.266-333.023Zm-3.9-11.3a3.5,3.5,0,0,1,1.706.534,9.141,9.141,0,0,1,4.13,7.155,2.194,2.194,0,0,1-1.613,2.65,2.2,2.2,0,0,1-2.033-.545,9.14,9.14,0,0,1-4.132-7.155,2.62,2.62,0,0,1,1.039-2.411,1.772,1.772,0,0,1,.9-.227Z" transform="translate(2054.125 345.352)" fill="#6e39b7"/>
            </g>
            <g id="Grupo_21349" data-name="Grupo 21349" transform="translate(2.437 3.008)">
              <path id="Trazado_39391" data-name="Trazado 39391" d="M-2052.125-341.125a5.453,5.453,0,0,0,2.467,4.273c1.363.786,2.466.149,2.466-1.425a5.456,5.456,0,0,0-2.466-4.273C-2051.021-343.331-2052.125-342.694-2052.125-341.125Z" transform="translate(2052.125 342.884)" fill="#6e39b7"/>
            </g>
          </g>
        </g>
        <g id="Grupo_21373" data-name="Grupo 21373" transform="translate(99.753 228.575)">
          <path id="Trazado_39411" data-name="Trazado 39411" d="M-1975.029-316.76a.488.488,0,0,0,.244-.063l40.691-23.288a.488.488,0,0,0,.172-.668.481.481,0,0,0-.172-.172l-6.2-3.591a.484.484,0,0,0-.488,0l-40.691,23.272a.486.486,0,0,0-.173.667.491.491,0,0,0,.173.173l6.2,3.606A.488.488,0,0,0-1975.029-316.76Zm39.72-23.776-39.719,22.733-5.228-3.047,39.721-22.717Z" transform="translate(1981.708 344.608)" fill="#6e39b7"/>
        </g>
        <g id="Grupo_21374" data-name="Grupo 21374" transform="translate(111.974 240.294)">
          <path id="Trazado_39412" data-name="Trazado 39412" d="M-1961.5-285.965a.5.5,0,0,0,.244-.066l32.45-18.817a.49.49,0,0,0,.216-.572l-9.678-29.243a.49.49,0,0,0-.62-.3.476.476,0,0,0-.08.037l-32.472,18.6a.486.486,0,0,0-.219.572l9.7,29.465a.486.486,0,0,0,.288.3A.483.483,0,0,0-1961.5-285.965Zm31.865-19.523-31.592,18.319-9.385-28.519,31.614-18.1Z" transform="translate(1971.682 334.993)" fill="#6e39b7"/>
        </g>
        <g id="Grupo_21375" data-name="Grupo 21375" transform="translate(120.004 243.024)">
          <path id="Trazado_39413" data-name="Trazado 39413" d="M-1964.6-292.456l28.2-16.332a.488.488,0,0,0,.216-.57l-7.721-23.4-.919.3,7.593,23.015-27.854,16.133Z" transform="translate(1965.093 332.753)" fill="#6e39b7"/>
        </g>
        <g id="Grupo_21376" data-name="Grupo 21376" transform="translate(146.664 232.497)">
          <path id="Trazado_39414" data-name="Trazado 39414" d="M-1868.5-101.578a.491.491,0,0,0,.244-.066l4.1-2.389a.489.489,0,0,0,.216-.572L-1942.3-341.39l-.919.3,78.234,236.413-3.241,1.889-66.593-201.233a.489.489,0,0,0-.223-.271l-6.161-3.449-.474.846,6,3.357,66.721,201.626a.49.49,0,0,0,.289.3A.506.506,0,0,0-1868.5-101.578Z" transform="translate(1943.218 341.39)" fill="#6e39b7"/>
        </g>
        <g id="Grupo_21377" data-name="Grupo 21377" transform="translate(123.611 275.22)">
          <path id="Trazado_39415" data-name="Trazado 39415" d="M-1953.275-261.1a.488.488,0,0,0,.244-.065l32.45-18.818a.489.489,0,0,0,.176-.667.483.483,0,0,0-.176-.175l-6-3.361-6.3-19.088,3.807-2.225-.488-.836-32.321,18.9a.485.485,0,0,0-.216.569l8.375,25.43a.488.488,0,0,0,.459.333Zm31.471-19.294L-1953-262.3l-8.061-24.492,27.321-15.977,6.3,19.071a.479.479,0,0,0,.224.271Z" transform="translate(1962.134 306.336)" fill="#6e39b7"/>
        </g>
        <g id="Grupo_21378" data-name="Grupo 21378" transform="translate(130.321 297.292)">
          <rect id="Rectángulo_841" data-name="Rectángulo 841" width="32.57" height="0.969" transform="translate(0 16.324) rotate(-30.079)" fill="#6e39b7"/>
        </g>
        <g id="Grupo_21379" data-name="Grupo 21379" transform="translate(133.91 306.487)">
          <path id="Trazado_39416" data-name="Trazado 39416" d="M-1944.811-235.579a.49.49,0,0,0,.244-.066l32.45-18.817a.488.488,0,0,0,.169-.669.484.484,0,0,0-.177-.173l-6-3.358-6.267-18.952,3.851-2.23-.488-.839-32.419,18.769a.486.486,0,0,0-.216.57l8.383,25.425a.489.489,0,0,0,.461.333Zm31.471-19.294-31.2,18.091-8.073-24.485,27.366-15.844,6.262,18.938a.481.481,0,0,0,.224.272Z" transform="translate(1953.683 280.682)" fill="#6e39b7"/>
        </g>
        <g id="Grupo_21380" data-name="Grupo 21380" transform="translate(140.633 328.427)">
          <rect id="Rectángulo_842" data-name="Rectángulo 842" width="32.57" height="0.969" transform="translate(0 16.324) rotate(-30.079)" fill="#6e39b7"/>
        </g>
        <g id="Grupo_21381" data-name="Grupo 21381" transform="translate(144.21 337.626)">
          <path id="Trazado_39417" data-name="Trazado 39417" d="M-1936.349-210.034a.493.493,0,0,0,.244-.066l32.449-18.817a.488.488,0,0,0,.17-.669.48.48,0,0,0-.176-.173l-6-3.358-6.275-18.947,3.851-2.23-.487-.839-32.419,18.769a.487.487,0,0,0-.217.57l8.391,25.42a.488.488,0,0,0,.46.333Zm31.471-19.3-31.2,18.091-8.08-24.48,27.364-15.844,6.272,18.935a.484.484,0,0,0,.223.271Z" transform="translate(1945.232 255.132)" fill="#6e39b7"/>
        </g>
        <g id="Grupo_21382" data-name="Grupo 21382" transform="translate(150.945 359.561)">
          <rect id="Rectángulo_843" data-name="Rectángulo 843" width="32.57" height="0.969" transform="translate(0 16.324) rotate(-30.079)" fill="#6e39b7"/>
        </g>
        <g id="Grupo_21383" data-name="Grupo 21383" transform="translate(154.523 368.765)">
          <path id="Trazado_39418" data-name="Trazado 39418" d="M-1927.886-184.49a.49.49,0,0,0,.244-.065l32.45-18.818a.488.488,0,0,0,.17-.669.481.481,0,0,0-.177-.173l-6-3.357-6.283-18.943,3.852-2.23-.487-.839-32.412,18.769a.487.487,0,0,0-.217.572l8.4,25.416a.488.488,0,0,0,.461.333Zm31.471-19.294-31.2,18.091-8.087-24.477,27.364-15.844,6.278,18.93a.478.478,0,0,0,.224.271Z" transform="translate(1936.77 229.583)" fill="#6e39b7"/>
        </g>
        <g id="Grupo_21384" data-name="Grupo 21384" transform="translate(161.258 390.696)">
          <rect id="Rectángulo_844" data-name="Rectángulo 844" width="32.57" height="0.969" transform="translate(0 16.324) rotate(-30.079)" fill="#6e39b7"/>
        </g>
        <g id="Grupo_21385" data-name="Grupo 21385" transform="translate(164.828 399.83)">
          <path id="Trazado_39419" data-name="Trazado 39419" d="M-1919.424-158.931a.49.49,0,0,0,.244-.066l32.45-18.817a.488.488,0,0,0,.169-.669.476.476,0,0,0-.177-.173l-6.162-3.449a.483.483,0,0,0-.48,0l-27.725,16.061-6.142-18.564L-1895-203.256l-.488-.839-32.584,18.847a.487.487,0,0,0-.219.572l8.41,25.411a.488.488,0,0,0,.459.333Zm31.471-19.294-31.2,18.091-1.643-4.967,27.666-16.024Z" transform="translate(1928.315 204.094)" fill="#6e39b7"/>
        </g>
        <g id="Grupo_21386" data-name="Grupo 21386" transform="translate(193.079 402.623)">
          <rect id="Rectángulo_845" data-name="Rectángulo 845" width="0.969" height="20.512" transform="translate(0 0.306) rotate(-18.386)" fill="#6e39b7"/>
        </g>
        <g id="Grupo_21387" data-name="Grupo 21387" transform="translate(175.133 431.001)">
          <path id="Trazado_39420" data-name="Trazado 39420" d="M-1909.665-116.21l3.891-2.31a.489.489,0,0,0,.211-.57l-13.227-39.976,32.117-18.614-.488-.839-32.458,18.812a.486.486,0,0,0-.217.572l13.229,39.976-3.555,2.111Z" transform="translate(1919.86 178.518)" fill="#6e39b7"/>
        </g>
        <g id="Grupo_21388" data-name="Grupo 21388" transform="translate(203.498 434.099)">
          <path id="Trazado_39421" data-name="Trazado 39421" d="M-1878.952-137.837l.506-.828-6.109-3.732-11.113-33.58-.919.3,11.168,33.748a.486.486,0,0,0,.207.262Z" transform="translate(1896.586 175.976)" fill="#6e39b7"/>
        </g>
        <g id="Grupo_21389" data-name="Grupo 21389" transform="translate(2.25 206.724)">
          <path id="Trazado_39422" data-name="Trazado 39422" d="M-1972.121-92.68a.487.487,0,0,0,.488-.488h0V-312.257a.487.487,0,0,0-.244-.423l-89.113-49.8a.488.488,0,0,0-.662.2.486.486,0,0,0-.058.229l.122,219.135a.487.487,0,0,0,.244.423l88.988,49.749A.483.483,0,0,0-1972.121-92.68Zm-.487-219.292V-93.99L-2060.62-143.2l-.122-218.024Z" transform="translate(2061.71 362.537)" fill="#6e39b7"/>
        </g>
        <g id="Grupo_21391" data-name="Grupo 21391" transform="translate(169.276 409.762)">
          <path id="Trazado_39423" data-name="Trazado 39423" d="M-1924.184-173.477l26.344-15.02a.49.49,0,0,0,.244-.421v-7.027h-.975v6.745l-26.094,14.881Z" transform="translate(1924.665 195.945)" fill="#6e39b7"/>
        </g>
        <g id="Grupo_21392" data-name="Grupo 21392" transform="translate(140.688 197.237)">
          <path id="Trazado_39424" data-name="Trazado 39424" d="M-1892.685-188.29l.217-181.547a.489.489,0,0,0-.492-.484.472.472,0,0,0-.233.062l-54.929,31.347.48.841,54.2-30.932-.216,180.711Z" transform="translate(1948.122 370.321)" fill="#6e39b7"/>
        </g>
        <g id="Grupo_21393" data-name="Grupo 21393" transform="translate(91.603 251.854)">
          <path id="Trazado_39425" data-name="Trazado 39425" d="M-1894.92-83.985a.488.488,0,0,0,.484-.491.487.487,0,0,0-.023-.146l-78.647-236.952-.92.306,78.261,235.792-5.13-2.771L-1979.3-325.178a.489.489,0,0,0-.619-.3.438.438,0,0,0-.077.034l-8.4,4.673.472.847,7.884-4.388,78.284,236.564a.478.478,0,0,0,.23.274l6.374,3.444A.507.507,0,0,0-1894.92-83.985Z" transform="translate(1988.396 325.508)" fill="#6e39b7"/>
        </g>
        <g id="Grupo_21394" data-name="Grupo 21394" transform="translate(35.203 204.305)">
          <path id="Trazado_39426" data-name="Trazado 39426" d="M-1978.472-326.613a.487.487,0,0,0,.487-.488h0v-5.129a.488.488,0,0,0-.244-.42l-55.718-31.81a.488.488,0,0,0-.664.188.487.487,0,0,0-.061.234l.017,5.09a.488.488,0,0,0,.244.418l55.7,31.85A.493.493,0,0,0-1978.472-326.613Zm-.488-5.332v4.012l-54.723-31.3-.012-3.972Z" transform="translate(2034.672 364.522)" fill="#6e39b7"/>
        </g>
        <g id="Grupo_21395" data-name="Grupo 21395" transform="translate(91.164 194.902)">
          <path id="Trazado_39427" data-name="Trazado 39427" d="M-1988.269-324.994l71.4-41.249a.488.488,0,0,0,.244-.425l-.061-5.088a.49.49,0,0,0-.5-.48.485.485,0,0,0-.235.066l-71.342,41.213.487.84,70.625-40.8.047,3.978-71.16,41.107Z" transform="translate(1988.756 372.237)" fill="#6e39b7"/>
        </g>
        <g id="Grupo_21428" data-name="Grupo 21428" transform="translate(29.97 0)">
          <g id="Grupo_21427" data-name="Grupo 21427">
            <g id="Grupo_21398" data-name="Grupo 21398" transform="translate(38.854 173.36)">
              <path id="Trazado_39430" data-name="Trazado 39430" d="M-1972.445-340.014a.49.49,0,0,0,.243-.065l33.948-19.6a.488.488,0,0,0,.244-.419l.012-17.482a.488.488,0,0,0-.243-.419l-20.466-11.812-.488.84,20.232,11.671-.012,16.923-33.465,19.32-33.66-19.322-.014-16.919,20.841-11.768-.477-.845L-2006.842-378a.483.483,0,0,0-.244.423l.015,17.482a.488.488,0,0,0,.244.419l34.139,19.6A.485.485,0,0,0-1972.445-340.014Z" transform="translate(2007.086 389.912)" fill="#6e39b7"/>
            </g>
            <g id="Grupo_21399" data-name="Grupo 21399" transform="translate(39.098 185.274)">
              <path id="Trazado_39431" data-name="Trazado 39431" d="M-1972.585-359.578a.49.49,0,0,0,.244-.065l34.057-19.655-.488-.84-33.813,19.515-33.813-19.515-.488.84,34.057,19.654A.489.489,0,0,0-1972.585-359.578Z" transform="translate(2006.886 380.137)" fill="#6e39b7"/>
            </g>
            <g id="Grupo_21400" data-name="Grupo 21400" transform="translate(72.906 205.344)">
              <rect id="Rectángulo_847" data-name="Rectángulo 847" width="0.969" height="17.426" transform="matrix(1, -0.006, 0.006, 1, 0, 0.006)" fill="#6e39b7"/>
            </g>
            <g id="Grupo_21426" data-name="Grupo 21426">
              <g id="Grupo_21404" data-name="Grupo 21404" transform="translate(115.885 3.648)">
                <g id="Grupo_21402" data-name="Grupo 21402">
                  <path id="Trazado_39433" data-name="Trazado 39433" d="M-1943.207-520.182c7.435-7.288,15.8-9.845,21.839-6.672.39.206,2.933,1.714,4.223,2.482l.5-.832c-.154-.093-3.758-2.238-4.266-2.506-6.417-3.376-15.218-.758-22.968,6.836Z" transform="translate(1943.882 529.161)" fill="#6e39b7"/>
                </g>
                <g id="Grupo_21403" data-name="Grupo 21403" transform="translate(10.361 6.755)">
                  <path id="Trazado_39434" data-name="Trazado 39434" d="M-1934.832-479.686a30.427,30.427,0,0,0,6.7-6.133c8.1-10.106,11.822-23.981,8.673-32.27a12.988,12.988,0,0,0-3.707-5.53l-.628.737a12.072,12.072,0,0,1,3.43,5.136c3.037,8-.627,21.46-8.523,31.322a29.494,29.494,0,0,1-6.5,5.94Z" transform="translate(1935.381 523.618)" fill="#6e39b7"/>
                </g>
              </g>
              <g id="Grupo_21407" data-name="Grupo 21407" transform="translate(118.409 5.356)">
                <g id="Grupo_21405" data-name="Grupo 21405">
                  <path id="Trazado_39435" data-name="Trazado 39435" d="M-1934.545-470.653a44.709,44.709,0,0,0,18.17-19.186c4.579-9.049,6.553-17.642,5.558-24.194-1.026-6.758-4.416-11.4-9.543-13.079-6.36-2.08-14.382.922-21.45,8.027l.688.684c6.807-6.841,14.458-9.75,20.458-7.789,4.762,1.558,7.922,5.927,8.887,12.31.965,6.355-.975,14.739-5.465,23.611a43.775,43.775,0,0,1-17.794,18.78Z" transform="translate(1941.811 527.759)" fill="#6e39b7"/>
                </g>
                <g id="Grupo_21406" data-name="Grupo 21406" transform="translate(2.108 4.214)">
                  <path id="Trazado_39436" data-name="Trazado 39436" d="M-1934.259-475.671a35.359,35.359,0,0,0,10.079-8.288c8.094-10.106,11.822-23.979,8.673-32.269a11.763,11.763,0,0,0-8.227-7.779c-4.953-1.149-10.91,1.1-16.348,6.184l.661.707c5.2-4.854,10.831-7.027,15.467-5.948,3.454.8,6.06,3.291,7.539,7.18,3.038,8-.625,21.461-8.522,31.322a34.5,34.5,0,0,1-9.822,8.059Z" transform="translate(1940.081 524.301)" fill="#6e39b7"/>
                </g>
              </g>
              <g id="Grupo_21409" data-name="Grupo 21409" transform="translate(68.37 150.845)">
                <g id="Grupo_21408" data-name="Grupo 21408">
                  <path id="Trazado_39437" data-name="Trazado 39437" d="M-1977.446-382.08a7.6,7.6,0,0,0,3.728-.906,2.908,2.908,0,0,0,1.685-2.5v-22.763h-.975v22.8a1.97,1.97,0,0,1-1.2,1.628,7.181,7.181,0,0,1-6.487,0,2.069,2.069,0,0,1-1.2-1.515c-.011-.359-.007-16.257,0-23.046h-.975c0,19.1,0,23,.007,23.112a2.987,2.987,0,0,0,1.681,2.289A7.594,7.594,0,0,0-1977.446-382.08Z" transform="translate(1982.868 408.386)" fill="#6e39b7"/>
                </g>
              </g>
              <g id="Grupo_21410" data-name="Grupo 21410" transform="translate(62.536 138.277)">
                <path id="Trazado_39438" data-name="Trazado 39438" d="M-1976.394-405.177a16.047,16.047,0,0,0,7.848-1.875c2.25-1.3,3.453-3.055,3.391-4.947-.011-.323-.009-4.5,0-6.664h-.975c0,.256-.008,6.277,0,6.7.05,1.516-.975,2.963-2.906,4.074a16.3,16.3,0,0,1-14.728,0,5.051,5.051,0,0,1-2.9-3.763c-.024-.366-.017-4.414-.008-7.049h-.975c0,.674-.024,6.6.01,7.118a5.97,5.97,0,0,0,3.383,4.54A16.056,16.056,0,0,0-1976.394-405.177Z" transform="translate(1987.655 418.698)" fill="#6e39b7"/>
              </g>
              <g id="Grupo_21411" data-name="Grupo 21411" transform="translate(62.565 135.558)">
                <path id="Trazado_39439" data-name="Trazado 39439" d="M-1976.4-411.726a16.045,16.045,0,0,0,7.848-1.874,6.338,6.338,0,0,0,3.291-3.872,4.337,4.337,0,0,0-.7-3.456l-.8.54a3.386,3.386,0,0,1,.561,2.7,5.423,5.423,0,0,1-2.825,3.252,16.3,16.3,0,0,1-14.728,0,5.43,5.43,0,0,1-2.822-3.242,3.376,3.376,0,0,1,.544-2.681l-.808-.535a4.319,4.319,0,0,0-.68,3.442,6.351,6.351,0,0,0,3.281,3.86A16.057,16.057,0,0,0-1976.4-411.726Z" transform="translate(1987.631 420.929)" fill="#6e39b7"/>
              </g>
              <g id="Grupo_21412" data-name="Grupo 21412" transform="translate(19.818 31.015)">
                <path id="Trazado_39440" data-name="Trazado 39440" d="M-2021.268-478.857l.961-.122a161.405,161.405,0,0,1-1.309-27.666l-.968-.061A162.359,162.359,0,0,0-2021.268-478.857Z" transform="translate(2022.705 506.706)" fill="#6e39b7"/>
              </g>
              <g id="Grupo_21413" data-name="Grupo 21413" transform="translate(22.307 65.724)">
                <path id="Trazado_39441" data-name="Trazado 39441" d="M-2005.984-435.546l.836-.487c-6.877-11.761-11.775-25.96-14.559-42.194l-.955.163C-2017.858-461.713-2012.92-447.407-2005.984-435.546Z" transform="translate(2020.663 478.227)" fill="#6e39b7"/>
              </g>
              <g id="Grupo_21414" data-name="Grupo 21414" transform="translate(50.271 31.015)">
                <path id="Trazado_39442" data-name="Trazado 39442" d="M-1974.16-397.82a13.913,13.913,0,0,0,6.8-1.622,8.123,8.123,0,0,0,1.219-.853c26.194-15.2,37.268-43.352,41.933-64.278a168.061,168.061,0,0,0,3.872-42.133l-.968.062a167,167,0,0,1-3.856,41.886c-4.624,20.73-15.586,48.6-41.542,63.677a8.18,8.18,0,0,1-1.144.806,13.975,13.975,0,0,1-12.623,0,7.1,7.1,0,0,1-.981-.682.477.477,0,0,0-.2-.1,72.129,72.129,0,0,1-15.381-11.629l-.683.689a73.156,73.156,0,0,0,15.677,11.836.442.442,0,0,0,.068.03,7.943,7.943,0,0,0,1.018.7A13.9,13.9,0,0,0-1974.16-397.82Z" transform="translate(1997.718 506.706)" fill="#6e39b7"/>
              </g>
              <g id="Grupo_21421" data-name="Grupo 21421" transform="translate(0 57.873)">
                <g id="Grupo_21419" data-name="Grupo 21419">
                  <g id="Grupo_21415" data-name="Grupo 21415" transform="translate(31.905 60.471)">
                    <path id="Trazado_39443" data-name="Trazado 39443" d="M-2005.068-421.531l.365-.9c-1.082-.436-4-1.623-4.47-1.884a5.1,5.1,0,0,1-2.255-2.466,5,5,0,0,1,.528-4.819,5.431,5.431,0,0,1,4.459-2.484,4.02,4.02,0,0,1,1.381.422c.452.2,2.828,1.2,2.828,1.2l.377-.893s-2.366-1-2.73-1.155a4.946,4.946,0,0,0-1.843-.542h-.07a6.378,6.378,0,0,0-5.208,2.917,5.949,5.949,0,0,0,1.449,8.289,5.818,5.818,0,0,0,.623.383C-2009.032-423.129-2005.472-421.693-2005.068-421.531Z" transform="translate(2012.788 435.053)" fill="#6e39b7"/>
                  </g>
                  <g id="Grupo_21416" data-name="Grupo 21416" transform="translate(19.456 48.338)">
                    <path id="Trazado_39444" data-name="Trazado 39444" d="M-1998.9-440.031l.366-.9c-1.219-.5-3.112-1.266-3.291-1.35-.3-.143-.84-.344-1.152-.458-4.266-1.569-9.292-1.584-12.706-1.463a20.108,20.108,0,0,1-7.031-.808l-.288.925a21.044,21.044,0,0,0,7.354.853c3.325-.122,8.227-.107,12.334,1.4.29.106.795.292,1.073.424S-1999.216-440.159-1998.9-440.031Z" transform="translate(2023.002 445.008)" fill="#6e39b7"/>
                  </g>
                  <g id="Grupo_21417" data-name="Grupo 21417">
                    <path id="Trazado_39445" data-name="Trazado 39445" d="M-2020.838-431.745l.3-.92a27.634,27.634,0,0,1-9.4-5.189,25.517,25.517,0,0,1-8.037-19.639c.292-7.723,4.9-15.865,12.016-21.248,7.034-5.319,15.77-6.4,24.6-3.047,1.245.473,4.375,1.809,4.406,1.828l.38-.891c-.129-.055-3.18-1.358-4.443-1.837-9.155-3.478-18.219-2.349-25.529,3.177-7.346,5.554-12.1,13.978-12.4,21.984a26.5,26.5,0,0,0,8.352,20.391A28.628,28.628,0,0,0-2020.838-431.745Z" transform="translate(2038.966 484.669)" fill="#6e39b7"/>
                  </g>
                  <g id="Grupo_21418" data-name="Grupo 21418" transform="translate(39.651 55.321)">
                    <path id="Trazado_39446" data-name="Trazado 39446" d="M-2003.375-431.941h.975a10.654,10.654,0,0,0-.463-2.982,8.673,8.673,0,0,0-2.983-4.355l-.586.77a7.691,7.691,0,0,1,2.64,3.86A9.657,9.657,0,0,1-2003.375-431.941Z" transform="translate(2006.432 439.278)" fill="#6e39b7"/>
                  </g>
                </g>
                <g id="Grupo_21420" data-name="Grupo 21420" transform="translate(3.611 1.389)">
                  <path id="Trazado_39447" data-name="Trazado 39447" d="M-1997.327-410.464a7.957,7.957,0,0,0,4.349-1.28,10.573,10.573,0,0,0,4.632-10.416,12.985,12.985,0,0,0-8.008-10.6c-4.266-1.569-9.292-1.584-12.706-1.463a19.627,19.627,0,0,1-14.41-4.938c-7.933-7.191-9.185-18.361-3.187-28.451a22.286,22.286,0,0,1,13.794-10.451,20.513,20.513,0,0,1,15.747,2.489,1.685,1.685,0,0,0,.186.093.542.542,0,0,0,.522-.045.492.492,0,0,0,.213-.446c-.258-1.633-.487-3.211-.679-4.69a.486.486,0,0,0-.272-.374,24.961,24.961,0,0,0-26.262,2.821c-7.464,5.642-12.283,14.04-12.58,21.917-.274,7.277,3.235,15.157,9.157,20.563a24.158,24.158,0,0,0,10.711,5.751,31.3,31.3,0,0,0,7.465.542c1.394-.012,2.836-.023,4.252.078,4.7.339,9.415,1.076,10.857,5.942.655,2.215.882,5.3-1.764,7.409-.7.561-2.148,1.3-3.12.487a1.488,1.488,0,0,1-.424-1.679,1.3,1.3,0,0,1,1.252-.9h.056a2.268,2.268,0,0,0,2.3-2.23c0-.036,0-.074,0-.111a2.325,2.325,0,0,0-2.184-2.457c-.049,0-.1,0-.145,0a6.3,6.3,0,0,0-5.278,2.916,6.018,6.018,0,0,0-.609,5.742,6.177,6.177,0,0,0,4,3.477A7.574,7.574,0,0,0-1997.327-410.464Zm-9.363-22.84a29.77,29.77,0,0,1,9.994,1.448,11.993,11.993,0,0,1,7.379,9.809,9.63,9.63,0,0,1-4.2,9.5,6.961,6.961,0,0,1-5.673.853,5.225,5.225,0,0,1-3.392-2.934,5,5,0,0,1,.528-4.82,5.451,5.451,0,0,1,4.46-2.484,1.355,1.355,0,0,1,1.379,1.333,1.392,1.392,0,0,1-.005.146,1.305,1.305,0,0,1-1.221,1.382c-.041,0-.079,0-.12,0h-.055a2.262,2.262,0,0,0-2.161,1.531,2.474,2.474,0,0,0,.714,2.759c1.268,1.052,3.094.517,4.344-.48,2.392-1.912,3.134-4.909,2.088-8.441-1.619-5.459-6.9-6.286-11.718-6.633-1.463-.1-2.925-.093-4.33-.082a30.014,30.014,0,0,1-7.236-.518,23.2,23.2,0,0,1-10.278-5.523c-5.717-5.22-9.105-12.812-8.841-19.812.286-7.594,4.959-15.71,12.2-21.182a24.009,24.009,0,0,1,25.021-2.832c.146,1.108.311,2.268.494,3.464a21.439,21.439,0,0,0-15.789-2.194,23.238,23.238,0,0,0-14.393,10.9c-6.146,10.343-4.794,22.265,3.369,29.665a20.563,20.563,0,0,0,15.1,5.188c.72-.018,1.51-.038,2.346-.038Z" transform="translate(2036.003 483.53)" fill="#6e39b7"/>
                </g>
              </g>
              <g id="Grupo_21422" data-name="Grupo 21422" transform="translate(20.054)">
                <path id="Trazado_39448" data-name="Trazado 39448" d="M-1968.736-469.68c13.735,0,27.47-3.019,37.927-9.057,10.222-5.9,15.851-13.772,15.851-22.182s-5.63-16.274-15.85-22.182c-20.912-12.072-54.94-12.072-75.851,0-10.222,5.9-15.851,13.772-15.851,22.182s5.63,16.274,15.85,22.175l.244-.419-.244.419C-1996.207-472.7-1982.469-469.68-1968.736-469.68Zm0-61.508c13.559,0,27.116,2.98,37.441,8.94,9.908,5.721,15.366,13.3,15.366,21.336s-5.459,15.616-15.368,21.337c-20.646,11.921-54.235,11.921-74.882,0-9.906-5.72-15.369-13.3-15.369-21.331s5.458-15.616,15.368-21.338c10.328-5.962,23.888-8.943,37.447-8.943Z" transform="translate(2022.511 532.154)" fill="#6e39b7"/>
              </g>
              <g id="Grupo_21423" data-name="Grupo 21423" transform="translate(25.427 3.114)">
                <path id="Trazado_39449" data-name="Trazado 39449" d="M-1969.7-473.343c12.36,0,24.716-2.715,34.126-8.147,9.206-5.316,14.277-12.412,14.277-19.982s-5.07-14.665-14.275-19.981c-18.816-10.862-49.431-10.862-68.251,0-9.207,5.316-14.277,12.412-14.277,19.982s5.069,14.665,14.276,19.982C-1994.417-476.062-1982.058-473.343-1969.7-473.343Zm0-55.3c12.188,0,24.365,2.681,33.638,8.03,8.9,5.135,13.792,11.932,13.792,19.141s-4.9,14.006-13.793,19.141c-18.55,10.711-48.728,10.711-67.276,0-8.9-5.135-13.791-11.932-13.791-19.141s4.9-14.006,13.792-19.141c9.275-5.353,21.459-8.03,33.641-8.03Z" transform="translate(2018.103 529.599)" fill="#6e39b7"/>
              </g>
              <g id="Grupo_21424" data-name="Grupo 21424" transform="translate(53.95 173.06)">
                <path id="Trazado_39450" data-name="Trazado 39450" d="M-1974.854-366.727a28.517,28.517,0,0,0,13.938-3.328c.313-.18.622-.366.909-.562a14.565,14.565,0,0,0,2.063-1.623,8.293,8.293,0,0,0,2.918-6.767c-.256-2.769-5.989-10.62-6.234-10.952a.486.486,0,0,0-.39-.2h-.161v.6l-.23.168c1.618,2.208,5.858,8.391,6.05,10.468a7.365,7.365,0,0,1-2.621,5.978,13.748,13.748,0,0,1-1.932,1.519c-.274.185-.562.359-.854.529-7.416,4.283-19.487,4.283-26.905,0-3.738-2.157-5.7-5.108-5.4-8.1.207-2,4.074-7.678,5.729-9.957.063-.086.1-.144.144-.2l-.122-.091v-.68h-.266a.482.482,0,0,0-.39.2c-.237.321-5.775,7.89-6.056,10.63-.35,3.387,1.791,6.68,5.874,9.037A28.525,28.525,0,0,0-1974.854-366.727Z" transform="translate(1994.699 390.158)" fill="#6e39b7"/>
              </g>
              <g id="Grupo_21425" data-name="Grupo 21425" transform="translate(60.127 167.116)">
                <path id="Trazado_39451" data-name="Trazado 39451" d="M-1975.96-379.452a19.584,19.584,0,0,0,9.567-2.285c2.647-1.528,4.1-3.589,4.1-5.8s-1.462-4.275-4.1-5.8a16.334,16.334,0,0,0-4.257-1.667l-.233.94a15.375,15.375,0,0,1,4,1.565c2.334,1.348,3.62,3.11,3.62,4.964s-1.286,3.616-3.62,4.964a20.108,20.108,0,0,1-18.166,0c-2.334-1.348-3.621-3.111-3.62-4.965s1.287-3.616,3.621-4.964a15.385,15.385,0,0,1,4.067-1.584l-.229-.942a16.332,16.332,0,0,0-4.32,1.692c-2.647,1.528-4.106,3.589-4.106,5.8s1.463,4.275,4.1,5.8A19.572,19.572,0,0,0-1975.96-379.452Z" transform="translate(1989.631 395.035)" fill="#6e39b7"/>
              </g>
            </g>
          </g>
        </g>
      </g>
    </g>
  </g>
</svg>
