<svg xmlns="http://www.w3.org/2000/svg" xmlns:xlink="http://www.w3.org/1999/xlink" width="381.358" height="381.541" viewBox="0 0 381.358 381.541">
  <defs>
    <linearGradient id="linear-gradient" x1="0.482" y1="0.335" x2="0.753" y2="2.124" gradientUnits="objectBoundingBox">
      <stop offset="0" stop-color="#f2f2f2"/>
      <stop offset="1" stop-color="#797979"/>
    </linearGradient>
  </defs>
  <g id="Grupo_22006" data-name="Grupo 22006" transform="translate(20.721 3.067)">
    <ellipse id="Elipse_1768" data-name="Elipse 1768" cx="166.645" cy="166.754" rx="166.645" ry="166.754" transform="translate(-20.721 49.071) rotate(-9)" opacity="0.1" fill="url(#linear-gradient)"/>
    <g id="Grupo_22007" data-name="Grupo 22007" transform="translate(-78.997)">
      <path id="Trazado_39888" data-name="Trazado 39888" d="M-4133.264-11641.2c.334,4.3,4.5,14.393,1.955,22.57a132.654,132.654,0,0,1-4.5,12.62l-8.162,6.648s-11.964,8.49-13.5,9.121-.719,4.611-5.972,1.648-4.779-4.616-5.078-6.592-.484-21.994,0-26,6.233-11.458,6.233-11.458,20.145-12.961,21.389-13.43S-4133.6-11645.5-4133.264-11641.2Z" transform="translate(4446.43 11822.068)" fill="#e8e34a" opacity="0.6"/>
      <g id="Grupo_21996" data-name="Grupo 21996" transform="translate(132.634 111.451)">
        <path id="Trazado_39868" data-name="Trazado 39868" d="M-4297.029-11932.6l13.856,9.712-19.145,31.059-4.86,14.336v2.27l-17.6-9.713s-3.149-5.49-3.228-6.893,0-13.16,0-13.16l7.9-12.135s5.895-8.2,9.11-10.446a20.678,20.678,0,0,1,7-3.192C-4302.685-11931.159-4297.029-11932.6-4297.029-11932.6Z" transform="translate(4329.08 11932.601)" fill="#e8e34a" opacity="0.6"/>
        <path id="Trazado_39867" data-name="Trazado 39867" d="M-4303.986-11878.271a161.02,161.02,0,0,0,0,44.881,279.86,279.86,0,0,0,9.92,43.692l10.216,4.155,13.416-7.165v-11.42l-2.722-5.042-3.815-9.421v-2.981l3.815-3.25s1.373-4.334,0-5.831-3.445-6.078-3.815-7.42a17.38,17.38,0,0,1,0-4.482l3.815-2.47-2.082-8.594Z" transform="translate(4337.591 11953.151)" fill="#e9fcfe"/>
        <path id="Trazado_39865" data-name="Trazado 39865" d="M-4138.84-11928.062s-41.474,3.256-69.755,48.611-30.314,78.426-23.242,97.9,11.36,23.182,11.36,23.182-12.413-12.725-15.413-19.391-4.858-18.021-4.858-18.021l-3.112-5.822-26.326-28.854-29.462-27.369-9.931-6.781-3.269-9.041v-11.072s14.737-42.826,32.38-44.8,18.455,1.463,18.455,1.463l8.252,5.48s42.029,10.34,58.876,6.418,20.761-6.418,20.761-6.418,15.486-7.232,25.79-6.943S-4138.84-11928.062-4138.84-11928.062Z" transform="translate(4334.829 11933.531)" fill="#e9fcfe"/>
        <g id="Grupo_21632" data-name="Grupo 21632" transform="translate(0 0)">
          <g id="Grupo_21533" data-name="Grupo 21533" transform="translate(30.303 75.713)">
            <g id="Grupo_21531" data-name="Grupo 21531" transform="translate(0)">
              <path id="Trazado_39532" data-name="Trazado 39532" d="M905.934,237.465l1.2-2.387L896.9,229.946c-10.87-29.915-14.685-63.372-9.719-85.378l-2.6-.588c-5.1,22.593-1.18,56.892,9.994,87.381a1.34,1.34,0,0,0,.654.732Z" transform="translate(-882.376 -143.981)" fill="#7a0bbd"/>
            </g>
            <g id="Grupo_21532" data-name="Grupo 21532" transform="translate(14.404 9.639)">
              <path id="Trazado_39533" data-name="Trazado 39533" d="M887.115,231.578a1.321,1.321,0,0,0,.715-.208l12.648-8.029a1.345,1.345,0,0,0,.622-1.178,48.718,48.718,0,0,0-4.579-18.944l-1.565-3.348c-1.38-2.948-1.113-5.433-.061-6.136l.734-.489c2.767-1.84,2.791-6.574.056-11.016-2.09-3.394-2.08-6.638-.8-7.489,2.82-1.874,2.843-6.611.11-11.051a11.539,11.539,0,0,1-1.49-3.519l-2.608.582a14.143,14.143,0,0,0,1.764,4.24c2.091,3.391,2.08,6.638.8,7.489-2.82,1.877-2.844,6.614-.11,11.051,2.088,3.394,2.077,6.64.8,7.489l-.732.489c-2.389,1.594-2.752,5.495-.881,9.492l1.562,3.348a45.953,45.953,0,0,1,4.3,17.147l-10.085,6.4a48.745,48.745,0,0,0-4.44-16.65l-1.564-3.348c-1.378-2.95-1.116-5.433-.062-6.136l.734-.489c2.769-1.842,2.791-6.576.056-11.016-2.088-3.394-2.077-6.64-.8-7.489,2.822-1.88,2.846-6.614.112-11.054-2.091-3.393-2.08-6.638-.8-7.489,2.819-1.877,2.844-6.611.11-11.051a9.787,9.787,0,0,1-1.616-5.412l-2.665-.176a12.31,12.31,0,0,0,2.008,6.987c2.027,3.295,2.019,6.542.737,7.393-2.822,1.877-2.844,6.614-.109,11.051,2.088,3.394,2.077,6.64.8,7.492-2.822,1.874-2.846,6.611-.112,11.051,2.091,3.394,2.08,6.638.8,7.489l-.734.491c-2.387,1.586-2.747,5.487-.878,9.489l1.565,3.346a46.158,46.158,0,0,1,4.328,17.91,1.332,1.332,0,0,0,.715,1.132A1.308,1.308,0,0,0,887.115,231.578Z" transform="translate(-877.363 -147.591)" fill="#7a0bbd"/>
            </g>
          </g>
          <g id="Grupo_21534" data-name="Grupo 21534">
            <path id="Trazado_39534" data-name="Trazado 39534" d="M908,174.4l1.169-2.4-15.184-7.388c-3.289-1.623-5.274-5.473-5.583-10.837-.684-11.985,7.129-26.761,17.424-32.94a16.049,16.049,0,0,1,7.548-2.534,8.815,8.815,0,0,1,4.467.993,1.269,1.269,0,0,0,.315.125l12.49,6.605,1.244-2.358L919.107,116.9a1.232,1.232,0,0,0-.3-.115,11.014,11.014,0,0,0-5.529-1.153,18.616,18.616,0,0,0-8.825,2.913C893.4,125.183,885,141.056,885.74,153.928c.363,6.365,2.878,11.011,7.076,13.083Z" transform="translate(-885.695 -115.624)" fill="#7a0bbd"/>
          </g>
          <g id="Grupo_21535" data-name="Grupo 21535" transform="translate(21.494 1.453)">
            <path id="Trazado_39535" data-name="Trazado 39535" d="M888.89,192.367l1.081-2.446a20.12,20.12,0,0,1-12.4-17.7c-1.031-18.014,10.72-40.229,26.193-49.515a24.458,24.458,0,0,1,11.521-3.858,14.38,14.38,0,0,1,11.219,5.1l2.035-1.728a17.236,17.236,0,0,0-13.352-6.042,27.068,27.068,0,0,0-12.8,4.235c-16.233,9.745-28.56,33.054-27.479,51.958A22.725,22.725,0,0,0,888.89,192.367Z" transform="translate(-874.836 -116.168)" fill="#7a0bbd"/>
          </g>
          <g id="Grupo_21536" data-name="Grupo 21536" transform="translate(26.648 5.405)">
            <path id="Trazado_39536" data-name="Trazado 39536" d="M909.86,250.562,912,248.973c-8.929-12.06-28.412-36.125-58.6-61.853a26.359,26.359,0,0,1-6.918-15.427c-1.219-17.2,10.1-38.584,25.22-47.662a23.532,23.532,0,0,1,11.08-3.711,27.916,27.916,0,0,1,4.7.547c.2.035.371.064.526.085,58.817,19.651,86.19,5.465,87.324,4.851l-1.263-2.352c-.273.144-27.674,14.223-85.335-5.073a1.4,1.4,0,0,0-.347-.067l-.438-.075a29.823,29.823,0,0,0-5.268-.585,26.158,26.158,0,0,0-12.359,4.09c-15.9,9.543-27.789,32.034-26.507,50.137a29.088,29.088,0,0,0,7.591,17.016,1.76,1.76,0,0,0,.2.2C881.628,214.675,900.988,238.587,909.86,250.562Z" transform="translate(-843.724 -117.648)" fill="#7a0bbd"/>
          </g>
          <g id="Grupo_21537" data-name="Grupo 21537" transform="translate(91.752 2.536)">
            <path id="Trazado_39537" data-name="Trazado 39537" d="M852.118,292.537l1.148-2.411c-14.49-6.913-23.651-22.946-25.135-43.985-3.044-43.08,24.847-95.81,62.167-117.541,18.255-10.632,35.845-12.258,49.5-4.579l1.309-2.328c-14.527-8.157-33.046-6.525-52.155,4.6-38.111,22.2-66.592,76.044-63.487,120.037C827.021,268.355,836.736,285.2,852.118,292.537Z" transform="translate(-825.235 -116.574)" fill="#7a0bbd"/>
          </g>
          <g id="Grupo_21538" data-name="Grupo 21538" transform="translate(107.739 20.228)">
            <path id="Trazado_39538" data-name="Trazado 39538" d="M854.442,265.5c.392,0,.788-.008,1.183-.024l.2-1.343-.064-1.335c-.6.024-.956.032-1.316.032a27.207,27.207,0,0,1-3.759-.259l-.369,2.643A29.582,29.582,0,0,0,854.442,265.5Zm12.252-2.171a51.728,51.728,0,0,0,5.078-2.064l-1.133-2.419a48.133,48.133,0,0,1-4.811,1.954Zm-26.86-1.92,1.423-2.259a24.55,24.55,0,0,1-3.973-3.124l-1.858,1.92A27.307,27.307,0,0,0,839.834,261.414Zm41.356-5.61c1.458-1.007,2.926-2.1,4.36-3.244l-1.669-2.085c-1.386,1.105-2.8,2.16-4.208,3.129Zm-52.257-6.819,2.382-1.2a40.8,40.8,0,0,1-2.013-4.753l-2.518.886A42.955,42.955,0,0,0,828.933,248.986Zm64.656-3.682q1.887-1.914,3.7-3.954l-2-1.77q-1.759,1.986-3.6,3.848Zm-69.315-12.023,2.643-.363c-.227-1.671-.4-3.423-.5-5.209l-2.665.152C823.857,229.716,824.034,231.54,824.274,233.281Zm79.781-.355q1.582-2.171,3.084-4.432l-2.227-1.476q-1.466,2.211-3.014,4.336Zm8.657-13.673q1.294-2.363,2.489-4.785l-2.393-1.185q-1.174,2.371-2.438,4.689Zm6.872-14.65q1-2.519,1.877-5.07l-2.523-.87q-.862,2.5-1.837,4.958Zm4.958-15.417q.657-2.639,1.18-5.276l-2.619-.518q-.513,2.571-1.151,5.148Zm2.731-15.983q.24-2.723.323-5.412l-2.67-.077q-.076,2.607-.312,5.252Zm-2.742-15.966,2.656-.294c-.205-1.837-.481-3.65-.828-5.391l-2.616.523C924.075,153.739,924.339,155.477,924.532,157.237Zm-3.858-15.053,2.435-1.089a37.952,37.952,0,0,0-2.606-4.875l-2.254,1.434A34.781,34.781,0,0,1,920.673,142.184Zm-9.3-11.932,1.554-2.171a25.821,25.821,0,0,0-4.892-2.758l-1.05,2.456A23.187,23.187,0,0,1,911.376,130.251Zm-19.4-3.917c1.693-.243,3.294-.414,4.178-.446.326-.011.644-.019.959-.019l-.011-2.67c-.347,0-.7.008-1.049.021-.983.037-2.648.211-4.454.467Z" transform="translate(-823.753 -123.2)" fill="#7a0bbd"/>
          </g>
          <g id="Grupo_21544" data-name="Grupo 21544" transform="translate(104.384 40.767)">
            <g id="Grupo_21539" data-name="Grupo 21539" transform="translate(30.771 0)">
              <rect id="Rectángulo_877" data-name="Rectángulo 877" width="47.029" height="2.67" transform="translate(41.196 25.025) rotate(-151.159)" fill="#7a0bbd"/>
            </g>
            <g id="Grupo_21540" data-name="Grupo 21540" transform="translate(0 56.206)">
              <rect id="Rectángulo_878" data-name="Rectángulo 878" width="49.789" height="2.671" transform="translate(44.037 25.595) rotate(-152.185)" fill="#7a0bbd"/>
            </g>
            <g id="Grupo_21541" data-name="Grupo 21541" transform="translate(6.567 38.145)">
              <rect id="Rectángulo_879" data-name="Rectángulo 879" width="37.064" height="2.671" transform="translate(32.705 19.795) rotate(-151.934)" fill="#7a0bbd"/>
            </g>
            <g id="Grupo_21542" data-name="Grupo 21542" transform="translate(17.745 16.825)">
              <rect id="Rectángulo_880" data-name="Rectángulo 880" width="36.162" height="2.67" transform="translate(31.789 19.585) rotate(-151.53)" fill="#7a0bbd"/>
            </g>
            <g id="Grupo_21543" data-name="Grupo 21543" transform="translate(38.555 22.31)">
              <path id="Trazado_39539" data-name="Trazado 39539" d="M842.829,199.509a9.98,9.98,0,0,0,5.254-1.685l16.111-10.117c6.32-3.965,11.2-14.146,10.889-22.69l-.561-15.061c-.179-4.753-1.955-8.362-4.873-9.906-2.491-1.319-5.518-1-8.525.884l-16.108,10.117c-6.32,3.968-11.2,14.146-10.888,22.69l.561,15.064c.177,4.747,1.952,8.357,4.87,9.9A6.923,6.923,0,0,0,842.829,199.509Zm3.836-3.946c-2.165,1.362-4.248,1.637-5.858.785-2.053-1.087-3.311-3.871-3.449-7.644l-.56-15.061c-.283-7.564,4.133-16.874,9.636-20.329L862.541,143.2c2.165-1.356,4.245-1.639,5.861-.785,2.051,1.087,3.311,3.871,3.45,7.644l.561,15.061c.281,7.564-4.133,16.874-9.638,20.332Z" transform="translate(-834.112 -139.248)" fill="#7a0bbd"/>
            </g>
          </g>
          <g id="Grupo_21545" data-name="Grupo 21545" transform="translate(98.426 5.178)">
            <path id="Trazado_39540" data-name="Trazado 39540" d="M854.706,295.974c9.844,0,20.716-3.546,31.856-10.541,36.589-22.975,65.057-76.794,63.455-119.97-.788-21.205-8.6-36.784-21.99-43.871s-30.673-4.769-48.639,6.517C842.8,151.082,814.331,204.9,815.93,248.077c.788,21.208,8.6,36.787,21.993,43.868A35.485,35.485,0,0,0,854.706,295.974Zm56.532-175.736a32.844,32.844,0,0,1,15.539,3.717c12.517,6.619,19.819,21.395,20.569,41.606,1.57,42.327-26.334,95.086-62.2,117.61-17.128,10.755-33.455,13.032-45.969,6.416s-19.819-21.395-20.572-41.609c-1.567-42.327,26.337-95.086,62.2-117.61C891.509,123.65,901.9,120.238,911.238,120.238Z" transform="translate(-815.866 -117.563)" fill="#7a0bbd"/>
          </g>
          <g id="Grupo_21546" data-name="Grupo 21546" transform="translate(49.255 127.946)">
            <rect id="Rectángulo_881" data-name="Rectángulo 881" width="2.669" height="15.598" transform="matrix(-0.547, -0.837, 0.837, -0.547, 1.461, 10.77)" fill="#7a0bbd"/>
          </g>
        </g>
      </g>
    </g>
  </g>
</svg>
