<svg xmlns="http://www.w3.org/2000/svg" width="18.587" height="24.237" viewBox="0 0 18.587 24.237">
  <path id="Trazado_39363" data-name="Trazado 39363" d="M-1592.913,493.595v-2.209c-.189.078-.285.087-.324.138-2.847,3.747-9.186,3.12-11.747-1.221a10.2,10.2,0,0,1,.015-10.961c2.575-4.335,8.758-4.767,11.641-1.448a3.174,3.174,0,0,0,.394.3v-8.442h4.948v23.846Zm.047-8.913c0-.082-.006-.321-.035-.557-.327-2.645-2.374-4.456-4.681-4.147a4.525,4.525,0,0,0-3.864,4.649c-.069,2.623,1.356,4.627,3.617,5.026a4.115,4.115,0,0,0,1.417,0C-1594.257,489.26-1592.863,487.344-1592.866,484.681Z" transform="translate(1606.573 -469.749)" fill="#e8e34a"/>
</svg>
