<svg xmlns="http://www.w3.org/2000/svg" width="21.869" height="21.88" viewBox="0 0 21.869 21.88">
  <g id="Grupo_20899" data-name="Grupo 20899" transform="translate(-212.646 -404.446)">
    <g id="Grupo_20898" data-name="Grupo 20898" transform="translate(212.646 404.446)">
      <g id="Grupo_20897" data-name="Grupo 20897">
        <rect id="Rectángulo_756" data-name="Rectángulo 756" width="4.515" height="14.586" transform="translate(0.434 7.294)" fill="#e8e34a"/>
        <path id="Trazado_39052" data-name="Trazado 39052" d="M215.316,409.83a2.692,2.692,0,1,0-2.67-2.692A2.681,2.681,0,0,0,215.316,409.83Z" transform="translate(-212.646 -404.446)" fill="#e8e34a"/>
      </g>
      <path id="Trazado_39053" data-name="Trazado 39053" d="M225.494,419.265c0-2.051.943-3.272,2.751-3.272,1.66,0,2.458,1.173,2.458,3.272v7.657H235.2v-9.236c0-3.907-2.214-5.8-5.306-5.8a5.086,5.086,0,0,0-4.4,2.41v-1.965h-4.331v14.586h4.331Z" transform="translate(-213.328 -405.042)" fill="#e8e34a"/>
    </g>
  </g>
</svg>
