<svg xmlns="http://www.w3.org/2000/svg" width="22.085" height="22.118" viewBox="0 0 22.085 22.118">
  <path id="Trazado_39054" data-name="Trazado 39054" d="M-159.8,48.12c1.546,1.522,3.148,3.09,4.738,4.669.727.722,1.419,1.479,2.152,2.195a.7.7,0,0,1,.058,1.084c-.109.132-.209.271-.325.4-.834.894-1.01.923-1.885.067q-3.114-3.045-6.178-6.141a.745.745,0,0,0-1.1-.143,7.833,7.833,0,0,1-9.129-.519,7.819,7.819,0,0,1-3-8.455,7.992,7.992,0,0,1,6.566-6.11,7.748,7.748,0,0,1,8.042,3.351,7.87,7.87,0,0,1,.376,8.9c-.082.149-.178.291-.261.44A1.5,1.5,0,0,0-159.8,48.12Zm-1.3-4.848a5.364,5.364,0,0,0-5.579-5.5,5.405,5.405,0,0,0-5.281,5.369,5.368,5.368,0,0,0,5.253,5.53A5.343,5.343,0,0,0-161.1,43.272Z" transform="translate(174.709 -35.036)" fill="#e8e34a"/>
</svg>
