<svg id="Grupo_3514" data-name="Grupo 3514" xmlns="http://www.w3.org/2000/svg" width="34.09" height="34.09" viewBox="0 0 34.09 34.09">
  <g id="Trazado_12947" data-name="Trazado 12947" transform="translate(0 0)" fill="none">
    <path d="M17.045,0A17.045,17.045,0,1,1,0,17.045,17.045,17.045,0,0,1,17.045,0Z" stroke="none"/>
    <path d="M 17.04474258422852 1.500003814697266 C 12.89259338378906 1.500003814697266 8.988962173461914 3.116943359375 6.052951812744141 6.052951812744141 C 3.116943359375 8.988962173461914 1.500003814697266 12.89259338378906 1.500003814697266 17.04474258422852 C 1.500003814697266 21.19689178466797 3.116943359375 25.10052299499512 6.052951812744141 28.03653335571289 C 8.988962173461914 30.97254180908203 12.89259338378906 32.58948135375977 17.04474258422852 32.58948135375977 C 21.19689178466797 32.58948135375977 25.10052299499512 30.97254180908203 28.03653335571289 28.03653335571289 C 30.97254180908203 25.10052299499512 32.58948135375977 21.19689178466797 32.58948135375977 17.04474258422852 C 32.58948135375977 12.89259338378906 30.97254180908203 8.988962173461914 28.03653335571289 6.052951812744141 C 25.10052299499512 3.116943359375 21.19689178466797 1.500003814697266 17.04474258422852 1.500003814697266 M 17.04474258422852 3.814697265625e-06 C 26.45829200744629 3.814697265625e-06 34.08948135375977 7.631193161010742 34.08948135375977 17.04474258422852 C 34.08948135375977 26.45829200744629 26.45829200744629 34.08948135375977 17.04474258422852 34.08948135375977 C 7.631193161010742 34.08948135375977 3.814697265625e-06 26.45829200744629 3.814697265625e-06 17.04474258422852 C 3.814697265625e-06 7.631193161010742 7.631193161010742 3.814697265625e-06 17.04474258422852 3.814697265625e-06 Z" stroke="none" fill="#6e39b7"/>
  </g>
  <g id="noun_linkedin_2045186" transform="translate(10.406 9.46)">
    <g id="Grupo_3715" data-name="Grupo 3715">
      <path id="Trazado_13153" data-name="Trazado 13153" d="M8.967,7a1.967,1.967,0,1,0,1.967,1.967A1.972,1.972,0,0,0,8.967,7Zm.1,3.64c.728,0,.129-2.4.129-1.673s.495,1.311-.233,1.311.1.309.1-.419S8.343,10.64,9.071,10.64Zm8.418.621a3.179,3.179,0,0,0-2.294.958v-.3a.341.341,0,0,0-.328-.328H12.245a.341.341,0,0,0-.328.328v8.85a.341.341,0,0,0,.328.328h2.786a.341.341,0,0,0,.328-.328V15.85a1.9,1.9,0,0,1,.323-1.076.829.829,0,0,1,.661-.4h.328a.829.829,0,0,1,.661.4,1.9,1.9,0,0,1,.323,1.076v4.917a.341.341,0,0,0,.328.328h2.786a.341.341,0,0,0,.328-.328V15.031a4.088,4.088,0,0,0-.789-2.725A3.52,3.52,0,0,0,17.489,11.261Zm-9.864.328a.34.34,0,0,0-.3.328v8.85a.341.341,0,0,0,.328.328h2.786a.341.341,0,0,0,.328-.328v-8.85a.341.341,0,0,0-.328-.328Zm9.181,2.334c1.176,0,2.308-1.166,2.745-.654s0,.927,0,1.936l.888,5.235H18.308l2.3.123c0-.548-.278-7.438-.56-7.831S17.159,11.8,16.67,11.8l-.328,1.923c-.49,0-2.686-1.382-2.968-.988s.822,2.784.822,3.331l.507,1.754h-.195a.328.328,0,1,0,.031.656H14.7v.656h-.195a.328.328,0,1,0,.031.656H14.7v.656H12.572l2.294.123-.328-8.318v.819a.337.337,0,0,0,.219.309c.127.045.024.763.109.658C15.417,13.345,15.576,13.923,16.806,13.923Zm-6.692,6.844v-2.95H9.919a.328.328,0,1,0,.031.656h.164v.656H9.919a.328.328,0,1,0,.031.656h.164v.656H7.983Z" transform="translate(-7 -7)" fill="#6e39b7"/>
    </g>
  </g>
</svg>
