<svg xmlns="http://www.w3.org/2000/svg" width="103.499" height="103.499" viewBox="0 0 103.499 103.499">
  <g id="Grupo_22012" data-name="Grupo 22012" transform="translate(-85.59 -36.967)">
    <circle id="Elipse_1770" data-name="Elipse 1770" cx="51.75" cy="51.75" r="51.75" transform="translate(85.59 36.967)" fill="#0c284c"/>
    <g id="Grupo_22011" data-name="Grupo 22011" transform="translate(114.14 70.5)">
      <path id="Trazado_39893" data-name="Trazado 39893" d="M209.433,108.806v-.031a3.942,3.942,0,0,1-.469.031Z" transform="translate(-166.589 -101.027)" fill="#34a792"/>
      <path id="Trazado_39894" data-name="Trazado 39894" d="M209.433,95.3h-.469a3.941,3.941,0,0,1,.469.03Z" transform="translate(-166.589 -95.297)" fill="#34a792"/>
      <path id="Trazado_39895" data-name="Trazado 39895" d="M169.446,158.445h.087l-.087,0Z" transform="translate(-149.789 -122.14)" fill="#2492d3"/>
      <path id="Trazado_39896" data-name="Trazado 39896" d="M169.659,144.922v-.007h-.213v.017C169.517,144.929,169.587,144.922,169.659,144.922Z" transform="translate(-149.789 -116.39)" fill="#2492d3"/>
      <path id="Trazado_39897" data-name="Trazado 39897" d="M202.2,99.187a3.89,3.89,0,0,0,3.89,3.89,3.941,3.941,0,0,0,.469-.031,3.887,3.887,0,0,0,0-7.718,3.941,3.941,0,0,0-.469-.03A3.889,3.889,0,0,0,202.2,99.187Z" transform="translate(-163.712 -95.297)" fill="#bbd497"/>
      <path id="Trazado_39898" data-name="Trazado 39898" d="M210.012,123.443h-.032a4.016,4.016,0,0,0-7.981,0h-.032v14.242H202a4.018,4.018,0,1,0,7.974,0h.036Z" transform="translate(-163.614 -105.749)" fill="#eedc31"/>
      <g id="Grupo_22010" data-name="Grupo 22010" transform="translate(0 0)">
        <path id="Trazado_39899" data-name="Trazado 39899" d="M151.145,123.822h-5.519a2.291,2.291,0,0,1-2.593-2.593V99.18h0a3.889,3.889,0,0,0-7.779,0h0v22.049q0,10.373,10.373,10.373h5.519v-7.78Z" transform="translate(-135.253 -95.297)" fill="#2492d3"/>
        <g id="Grupo_22009" data-name="Grupo 22009" transform="translate(15.892)">
          <path id="Trazado_39900" data-name="Trazado 39900" d="M169.659,144.922v-.007h-.213v.017C169.517,144.929,169.587,144.922,169.659,144.922Z" transform="translate(-165.681 -116.39)" fill="none"/>
          <path id="Trazado_39901" data-name="Trazado 39901" d="M173.319,103.076H189.38a3.89,3.89,0,1,1,0-7.779H173.319Q162.9,95.3,162.9,105.67v18.152h3.978v.007a3.887,3.887,0,0,1,3.839,3.287v-9.777h4.68v-.012a3.885,3.885,0,0,0,0-7.756v-.012h-4.68v-3.89A2.3,2.3,0,0,1,173.319,103.076Z" transform="translate(-162.897 -95.297)" fill="#34a792"/>
          <path id="Trazado_39902" data-name="Trazado 39902" d="M166.875,144.922c-.072,0-.143.007-.213.01v-.017H162.9v7.78h3.765v0l.087,0c.042,0,.084.006.126.006a3.89,3.89,0,0,0,3.89-3.89,3.934,3.934,0,0,0-.051-.6A3.887,3.887,0,0,0,166.875,144.922Z" transform="translate(-162.897 -116.39)" fill="#7bbdda"/>
        </g>
      </g>
    </g>
  </g>
</svg>
