<svg xmlns="http://www.w3.org/2000/svg" width="107.182" height="107.182" viewBox="0 0 107.182 107.182">
  <g id="Grupo_21991" data-name="Grupo 21991" transform="translate(-94.178 -55.54)">
    <circle id="Elipse_1754" data-name="Elipse 1754" cx="53.591" cy="53.591" r="53.591" transform="translate(94.178 55.54)" fill="#492974"/>
    <g id="Grupo_21990" data-name="Grupo 21990" transform="translate(123.564 83.628)">
      <g id="Grupo_21988" data-name="Grupo 21988" transform="translate(0.037)">
        <path id="Trazado_39834" data-name="Trazado 39834" d="M210.987,112.876v-.032a3.981,3.981,0,0,1-.485.032Z" transform="translate(-166.619 -104.82)" fill="#35b4a3"/>
        <path id="Trazado_39835" data-name="Trazado 39835" d="M210.987,100.111H210.5a4.109,4.109,0,0,1,.485.032Z" transform="translate(-166.619 -100.111)" fill="#35b4a3"/>
        <path id="Trazado_39836" data-name="Trazado 39836" d="M173.169,159.767h.09l-.09,0Z" transform="translate(-152.813 -122.171)" fill="#2492d3"/>
        <path id="Trazado_39837" data-name="Trazado 39837" d="M173.39,146.992v-.006h-.221V147C173.243,147,173.316,146.992,173.39,146.992Z" transform="translate(-152.813 -117.446)" fill="#2492d3"/>
        <path id="Trazado_39838" data-name="Trazado 39838" d="M204.11,104.139a4.028,4.028,0,0,0,4.028,4.028,3.981,3.981,0,0,0,.485-.032,4.025,4.025,0,0,0,0-7.993,4.109,4.109,0,0,0-.485-.032A4.028,4.028,0,0,0,204.11,104.139Z" transform="translate(-164.255 -100.111)" fill="#bbd497"/>
        <path id="Trazado_39839" data-name="Trazado 39839" d="M212.223,127.024h-.033a4.159,4.159,0,0,0-8.264,0h-.033v14.749h.037a4.161,4.161,0,1,0,8.257,0h.037Z" transform="translate(-164.175 -108.7)" fill="#eedc31"/>
        <g id="Grupo_21987" data-name="Grupo 21987">
          <path id="Trazado_39840" data-name="Trazado 39840" d="M157.324,129.651h-5.715a2.374,2.374,0,0,1-2.686-2.686V104.132h0a4.028,4.028,0,0,0-8.056,0h0v22.833q0,10.743,10.742,10.742h5.715v-8.056Z" transform="translate(-140.867 -100.111)" fill="#2492d3"/>
          <g id="Grupo_21986" data-name="Grupo 21986" transform="translate(16.457)">
            <path id="Trazado_39841" data-name="Trazado 39841" d="M173.39,146.992v-.006h-.221V147C173.243,147,173.316,146.992,173.39,146.992Z" transform="translate(-169.27 -117.446)" fill="none"/>
            <path id="Trazado_39842" data-name="Trazado 39842" d="M177.775,108.167h16.633a4.028,4.028,0,0,1,0-8.056H177.775q-10.794,0-10.793,10.742v18.8h4.12v.006a4.027,4.027,0,0,1,3.975,3.4V122.937h4.846v-.012a4.023,4.023,0,0,0,0-8.032v-.013h-4.846v-4.028A2.379,2.379,0,0,1,177.775,108.167Z" transform="translate(-166.982 -100.111)" fill="#35b4a3"/>
            <path id="Trazado_39843" data-name="Trazado 39843" d="M171.1,146.992c-.074,0-.147.008-.221.011v-.018h-3.9v8.056h3.9v0l.09,0c.044,0,.087.006.131.006a4.028,4.028,0,0,0,4.028-4.028,4.082,4.082,0,0,0-.053-.625A4.027,4.027,0,0,0,171.1,146.992Z" transform="translate(-166.982 -117.446)" fill="#7bbdda"/>
          </g>
        </g>
      </g>
      <g id="Grupo_21989" data-name="Grupo 21989" transform="translate(0 41.923)">
        <path id="Trazado_39844" data-name="Trazado 39844" d="M140.808,167.761a.959.959,0,0,1,.966-.966h.213a.989.989,0,0,1,.878.5l2.334,3.8,2.346-3.814a.946.946,0,0,1,.865-.489h.213a.959.959,0,0,1,.966.966v6.976a.96.96,0,1,1-1.92,0v-4.379l-1.694,2.61a.9.9,0,0,1-1.606,0L142.7,170.4v4.365a.942.942,0,0,1-.952.941.932.932,0,0,1-.942-.941Z" transform="translate(-140.808 -166.695)" fill="#fff"/>
        <path id="Trazado_39845" data-name="Trazado 39845" d="M157.5,174.691v-6.85a.959.959,0,0,1,.966-.966h4.868a.866.866,0,0,1,.865.865.856.856,0,0,1-.865.853h-3.914v1.782h3.349a.868.868,0,0,1,.867.865.858.858,0,0,1-.867.853h-3.349v1.845H163.4a.867.867,0,0,1,.866.865.857.857,0,0,1-.866.853h-4.93A.959.959,0,0,1,157.5,174.691Z" transform="translate(-146.98 -166.724)" fill="#fff"/>
        <path id="Trazado_39846" data-name="Trazado 39846" d="M170.246,167.841a.959.959,0,0,1,.965-.966h2.459a4.377,4.377,0,0,1,4.668,4.365v.025a4.4,4.4,0,0,1-4.668,4.391h-2.459a.958.958,0,0,1-.965-.966Zm3.424,6.072a2.5,2.5,0,0,0,2.648-2.622v-.025a2.522,2.522,0,0,0-2.648-2.647h-1.492v5.294Z" transform="translate(-151.694 -166.724)" fill="#fff"/>
        <path id="Trazado_39847" data-name="Trazado 39847" d="M185.365,167.721a.966.966,0,1,1,1.932,0v7a.966.966,0,0,1-1.932,0Z" transform="translate(-157.286 -166.68)" fill="#fff"/>
        <path id="Trazado_39848" data-name="Trazado 39848" d="M190.7,171.2v-.025a4.669,4.669,0,0,1,9.334-.025v.025a4.669,4.669,0,0,1-9.334.025Zm7.314,0v-.025a2.668,2.668,0,0,0-2.66-2.76,2.626,2.626,0,0,0-2.634,2.734v.025a2.669,2.669,0,0,0,2.66,2.76A2.626,2.626,0,0,0,198.017,171.2Z" transform="translate(-159.26 -166.636)" fill="#fff"/>
        <path id="Trazado_39849" data-name="Trazado 39849" d="M207.061,174.654a.9.9,0,0,1-.364-.727.888.888,0,0,1,.9-.89.929.929,0,0,1,.551.175,3.7,3.7,0,0,0,2.246.79c.79,0,1.267-.314,1.267-.828v-.025c0-.489-.3-.74-1.769-1.117-1.769-.452-2.911-.941-2.911-2.685v-.025c0-1.593,1.279-2.647,3.074-2.647a5.094,5.094,0,0,1,2.785.778.879.879,0,0,1,.427.765.889.889,0,0,1-.9.89.926.926,0,0,1-.49-.137,3.651,3.651,0,0,0-1.845-.59c-.74,0-1.129.339-1.129.766v.025c0,.577.376.765,1.894,1.155,1.782.464,2.786,1.1,2.786,2.634v.025c0,1.744-1.33,2.722-3.225,2.722A5.661,5.661,0,0,1,207.061,174.654Z" transform="translate(-165.174 -166.65)" fill="#fff"/>
      </g>
    </g>
  </g>
</svg>
