<svg xmlns="http://www.w3.org/2000/svg" width="129.164" height="54.499" viewBox="0 0 129.164 54.499">
  <g id="Grupo_22014" data-name="Grupo 22014" transform="translate(1730 -327.703)">
    <g id="Grupo_5475" data-name="Grupo 5475" transform="translate(-1730 327.703)">
      <text id="_" data-name=" " transform="translate(107.663 17.561)" fill="#4b4e52" font-size="19" font-family="ArialMT, Arial"><tspan x="0" y="0"> </tspan></text>
      <g id="Grupo_5471" data-name="Grupo 5471" transform="translate(0 0)">
        <path id="Trazado_25998" data-name="Trazado 25998" d="M460.534,772.2q1.759.035,3.643.176a25.617,25.617,0,0,1,3.748.563l-.247,2.5q-1.513-.07-3.4-.106t-3.643-.035q-1.232,0-2.111.07a3.513,3.513,0,0,0-1.443.387,1.869,1.869,0,0,0-.827,1.021,5.69,5.69,0,0,0-.264,1.936,3.834,3.834,0,0,0,.7,2.622,4.542,4.542,0,0,0,2.288,1.144l4.892,1.3a6.069,6.069,0,0,1,3.872,2.375,8.334,8.334,0,0,1,1.056,4.488,10.159,10.159,0,0,1-.475,3.414,4.072,4.072,0,0,1-1.478,2.006,6.407,6.407,0,0,1-2.587.985,21.863,21.863,0,0,1-3.766.282q-1.2,0-3.167-.106a34.137,34.137,0,0,1-4.54-.6l.246-2.569q2.076.071,3.4.123t2.27.053h1.9a11.584,11.584,0,0,0,2.78-.264,2.142,2.142,0,0,0,1.443-1.056,5.008,5.008,0,0,0,.422-2.305,5.464,5.464,0,0,0-.3-2.024,2.262,2.262,0,0,0-.95-1.108,6.083,6.083,0,0,0-1.672-.633l-5.033-1.373a6.071,6.071,0,0,1-3.748-2.358,8.051,8.051,0,0,1-1.074-4.435,10.162,10.162,0,0,1,.475-3.414,3.819,3.819,0,0,1,1.461-1.953,6.169,6.169,0,0,1,2.5-.879A24.653,24.653,0,0,1,460.534,772.2Z" transform="translate(-452.474 -771.641)" fill="#fff"/>
        <path id="Trazado_25999" data-name="Trazado 25999" d="M502.059,772.639a.9.9,0,0,1,1.021,1.021v2.006a.9.9,0,0,1-1.021,1.021h-1.584a.9.9,0,0,1-1.021-1.021V773.66a.9.9,0,0,1,1.021-1.021Zm.88,7.356V797.17h-3.344V779.995Z" transform="translate(-480.449 -771.9)" fill="#fff"/>
        <path id="Trazado_26000" data-name="Trazado 26000" d="M524.8,783.414v2.534H512.938V783.59l3.379-.176Zm-5.35-5.033V795.7a2.352,2.352,0,0,0,.511,1.707,2.412,2.412,0,0,0,1.742.511h2.534l.388,2.5a9.426,9.426,0,0,1-1.355.282q-.757.106-1.513.158t-1.214.053a4.446,4.446,0,0,1-3.343-1.2,4.754,4.754,0,0,1-1.162-3.449V778.381Z" transform="translate(-488.478 -775.319)" fill="#fff"/>
        <path id="Trazado_26001" data-name="Trazado 26001" d="M552.7,789.778q3.977,0,5.755,1.425a5.073,5.073,0,0,1,1.777,4.206,5.393,5.393,0,0,1-1,3.59,4.1,4.1,0,0,1-3.361,1.267h-9.925v-2.428h9.045a1.5,1.5,0,0,0,1.513-.739,3.889,3.889,0,0,0,.352-1.689,2.657,2.657,0,0,0-.932-2.235,5.438,5.438,0,0,0-3.08-.651,5.95,5.95,0,0,0-2.816.493,2.91,2.91,0,0,0-1.425,1.83,12.89,12.89,0,0,0-.4,3.66,12.267,12.267,0,0,0,.51,4.03,3.2,3.2,0,0,0,1.655,1.918,7.347,7.347,0,0,0,3.044.528q1.337,0,3.009-.123t3.044-.3l.352,2.217a10.417,10.417,0,0,1-2.041.581,23.506,23.506,0,0,1-2.464.334q-1.267.106-2.323.106a10.931,10.931,0,0,1-4.857-.915,5.546,5.546,0,0,1-2.675-2.9,13.546,13.546,0,0,1-.845-5.226,13.866,13.866,0,0,1,.845-5.35,5.2,5.2,0,0,1,2.64-2.8A11.08,11.08,0,0,1,552.7,789.778Z" transform="translate(-507.334 -782.105)" fill="#fff"/>
        <path id="Trazado_26002" data-name="Trazado 26002" d="M600.4,778.907v2.534H585.407v-2.358l3.238-.176Zm-6.757-8.095q.739,0,1.971.07t2.147.211v2.428h-2.921a3.116,3.116,0,0,0-2.288.687,3.424,3.424,0,0,0-.669,2.411v19.463H588.5v-19.85a7.682,7.682,0,0,1,.493-2.921,3.718,3.718,0,0,1,1.619-1.848A6.041,6.041,0,0,1,593.643,770.812Zm8.869.7a.9.9,0,0,1,1.021,1.021v2.006a.9.9,0,0,1-1.021,1.021h-1.549a.9.9,0,0,1-1.021-1.021v-2.006a.9.9,0,0,1,1.021-1.021Zm.95,7.391v17.175h-3.379V778.907Z" transform="translate(-531.63 -770.812)" fill="#fff"/>
        <path id="Trazado_26003" data-name="Trazado 26003" d="M641.989,790.2l.317,3.308.246.493v13.374h-3.379V790.2Zm7.919-.422q4.68,0,4.681,4.716v12.881h-3.414v-11.9a3.521,3.521,0,0,0-.528-2.235,2.311,2.311,0,0,0-1.831-.616,6.917,6.917,0,0,0-2.992.722q-1.513.721-3.625,1.988l-.141-2.288A17.063,17.063,0,0,1,646,790.623,9.854,9.854,0,0,1,649.908,789.778Z" transform="translate(-563.645 -782.105)" fill="#fff"/>
        <path id="Trazado_26004" data-name="Trazado 26004" d="M688.495,772.639a.9.9,0,0,1,1.021,1.021v2.006a.9.9,0,0,1-1.021,1.021h-1.584a.9.9,0,0,1-1.021-1.021V773.66a.9.9,0,0,1,1.021-1.021Zm.88,7.356V797.17h-3.344V779.995Z" transform="translate(-591.463 -771.9)" fill="#fff"/>
        <path id="Trazado_26005" data-name="Trazado 26005" d="M711.236,783.414v2.534H699.375V783.59l3.379-.176Zm-5.35-5.033V795.7a2.352,2.352,0,0,0,.51,1.707,2.412,2.412,0,0,0,1.742.511h2.534l.387,2.5a9.408,9.408,0,0,1-1.355.282q-.757.106-1.513.158t-1.214.053a4.447,4.447,0,0,1-3.344-1.2,4.754,4.754,0,0,1-1.161-3.449V778.381Z" transform="translate(-599.493 -775.319)" fill="#fff"/>
        <path id="Trazado_26006" data-name="Trazado 26006" d="M731.621,790.822l4.329,12.494q.176.528.335,1.073t.264,1.109h.845L736.3,808h-.985a1.229,1.229,0,0,1-.739-.229,1.269,1.269,0,0,1-.458-.651L728,790.822Zm14.078,0-6.757,17.985a14.456,14.456,0,0,1-1.073,2.288,9.653,9.653,0,0,1-1.6,2.059,7.146,7.146,0,0,1-5.209,2.059l-.317-2.147a8.285,8.285,0,0,0,3.256-1.76,7.884,7.884,0,0,0,1.812-2.675l.88-2.112q.282-.739.563-1.637t.528-1.566l4.259-12.494Z" transform="translate(-616.536 -782.727)" fill="#fff"/>
      </g>
      <g id="Grupo_5474" data-name="Grupo 5474" transform="translate(54.339 29.529)">
        <g id="Grupo_5472" data-name="Grupo 5472" transform="translate(24.615)">
          <g id="Grupo_4035" data-name="Grupo 4035" transform="translate(10.892 0.001)">
            <path id="Trazado_24333" data-name="Trazado 24333" d="M679.922,858.915v7.114h-5.357v-15.11q0-7.109,7.142-7.109h11.329v5.332H681.708a1.575,1.575,0,0,0-1.786,1.777v2.666h3.208v5.332Z" transform="translate(-674.565 -843.809)" fill="#83db3b"/>
          </g>
          <g id="Grupo_4036" data-name="Grupo 4036" transform="translate(0.002 2.661)">
            <path id="Trazado_24334" data-name="Trazado 24334" d="M661.262,867.272V872.6h-6.508q-7.109,0-7.109-7.109V850.384h5.331V865.5a1.571,1.571,0,0,0,1.778,1.777Z" transform="translate(-647.645 -850.384)" fill="#83db3b"/>
          </g>
          <circle id="Elipse_475" data-name="Elipse 475" cx="2.666" cy="2.666" r="2.666" fill="#83db3b"/>
          <circle id="Elipse_476" data-name="Elipse 476" cx="2.666" cy="2.666" r="2.666" transform="translate(26.377)" fill="#83db3b"/>
          <circle id="Elipse_477" data-name="Elipse 477" cx="2.754" cy="2.754" r="2.754" transform="translate(26.289 9.687)" fill="#83db3b"/>
          <circle id="Elipse_478" data-name="Elipse 478" cx="2.666" cy="2.666" r="2.666" transform="translate(16.63 9.775)" fill="#83db3b"/>
          <g id="Grupo_4038" data-name="Grupo 4038" transform="translate(26.285 12.127)">
            <path id="Trazado_24335" data-name="Trazado 24335" d="M718.13,883.544h-5.515v-9.761h5.513Z" transform="translate(-712.615 -873.783)" fill="#83db3b"/>
          </g>
          <circle id="Elipse_479" data-name="Elipse 479" cx="2.754" cy="2.754" r="2.754" transform="translate(26.289 19.462)" fill="#83db3b"/>
          <circle id="Elipse_480" data-name="Elipse 480" cx="2.666" cy="2.666" r="2.666" transform="translate(10.953 19.555)" fill="#83db3b"/>
          <rect id="Rectángulo_22" data-name="Rectángulo 22" width="2.58" height="5.332" transform="translate(10.892 19.55)" fill="#83db3b"/>
        </g>
        <g id="Grupo_5473" data-name="Grupo 5473" transform="translate(0 4.594)">
          <path id="Trazado_26007" data-name="Trazado 26007" d="M588.908,855.162l.017,2.968c0,.373-.015.731-.044,1.075a5.281,5.281,0,0,1-.183,1l.209.244v6.6l-2.113-.105V855.162Zm2.986,3.44a2.761,2.761,0,0,1,2.392,1.03,5.959,5.959,0,0,1,.751,3.422,8.741,8.741,0,0,1-.184,1.869,3.726,3.726,0,0,1-.628,1.44,2.76,2.76,0,0,1-1.231.917,5.452,5.452,0,0,1-2.008.315q-.436,0-1-.035t-1.135-.122q-.577-.087-1.109-.2a5.363,5.363,0,0,1-.952-.288l1.694-1.292a6.515,6.515,0,0,0,.812.2,7.1,7.1,0,0,0,.856.105q.428.026.795.026a2.144,2.144,0,0,0,1.109-.28,1.539,1.539,0,0,0,.6-.9,6.321,6.321,0,0,0,.192-1.755,7.227,7.227,0,0,0-.148-1.65,1.324,1.324,0,0,0-.532-.847,2.056,2.056,0,0,0-1.1-.245,2.345,2.345,0,0,0-1.161.3,12.723,12.723,0,0,0-1.231.8l-.14-1.135a6.833,6.833,0,0,1,1-.89,4.211,4.211,0,0,1,1.135-.585A3.84,3.84,0,0,1,591.894,858.6Z" transform="translate(-586.795 -855.162)" fill="#83db3b"/>
          <path id="Trazado_26008" data-name="Trazado 26008" d="M611.667,864.183l1.9,5.9q.087.3.157.6t.123.6h.436l-.663,1.467h-.559a.725.725,0,0,1-.437-.14.7.7,0,0,1-.262-.385l-2.951-8.05Zm6.914,0-3.212,8.836a8.431,8.431,0,0,1-.568,1.214,4.56,4.56,0,0,1-.864,1.091,3.853,3.853,0,0,1-1.24.769,3.767,3.767,0,0,1-1.659.209l-.175-1.257a4.237,4.237,0,0,0,1.633-.8,3.455,3.455,0,0,0,.917-1.292l.471-1.118q.157-.383.306-.881t.253-.864l1.868-5.9Z" transform="translate(-600.264 -860.534)" fill="#83db3b"/>
        </g>
      </g>
    </g>
  </g>
</svg>
