<svg id="Grupo_3515" data-name="Grupo 3515" xmlns="http://www.w3.org/2000/svg" width="34.089" height="34.089" viewBox="0 0 34.089 34.089">
  <g id="Elipse_422" data-name="Elipse 422" fill="none" stroke="#E8E34A" stroke-width="1.5">
    <ellipse cx="17.045" cy="17.045" rx="17.045" ry="17.045" stroke="none"/>
    <ellipse cx="17.045" cy="17.045" rx="16.295" ry="16.295" fill="none"/>
  </g>
  <g id="Grupo_737" data-name="Grupo 737" transform="translate(9.812 11.943)">
    <path id="Trazado_5047" data-name="Trazado 5047" d="M4.606,11.9a8.492,8.492,0,0,0,8.552-8.55c0-.13,0-.26-.009-.389a6.118,6.118,0,0,0,1.5-1.556,6.014,6.014,0,0,1-1.725.473A3.018,3.018,0,0,0,14.242.219a6.063,6.063,0,0,1-1.908.73,3.009,3.009,0,0,0-5.123,2.74A8.537,8.537,0,0,1,1.018.549a3.007,3.007,0,0,0,.93,4.011A2.963,2.963,0,0,1,.585,4.184v.039A3.007,3.007,0,0,0,3,7.168a2.977,2.977,0,0,1-1.358.051A3.007,3.007,0,0,0,4.447,9.306,6.024,6.024,0,0,1,.716,10.6,6.069,6.069,0,0,1,0,10.553,8.515,8.515,0,0,0,4.606,11.9" transform="translate(0 0)" fill="#E8E34A"/>
  </g>
</svg>
