<svg xmlns="http://www.w3.org/2000/svg" xmlns:xlink="http://www.w3.org/1999/xlink" width="381.358" height="381.541" viewBox="0 0 381.358 381.541">
  <defs>
    <linearGradient id="linear-gradient" x1="0.482" y1="0.335" x2="0.753" y2="2.124" gradientUnits="objectBoundingBox">
      <stop offset="0" stop-color="#f2f2f2"/>
      <stop offset="1" stop-color="#797979"/>
    </linearGradient>
  </defs>
  <g id="Grupo_22475" data-name="Grupo 22475" transform="translate(-227 -5942.338)">
    <ellipse id="Elipse_1771" data-name="Elipse 1771" cx="166.645" cy="166.754" rx="166.645" ry="166.754" transform="translate(227 5994.477) rotate(-9)" opacity="0.1" fill="url(#linear-gradient)"/>
    <g id="Grupo_22472" data-name="Grupo 22472" transform="translate(258.638 4783.105)">
      <path id="Trazado_40031" data-name="Trazado 40031" d="M207.133,1646.275l6.763-3.423.275-3.409-69.664-40.431L97.735,1625.69l.321,2.143,47.266,28.124,38.49-21.712Z" transform="translate(-32.414 -231.455)" fill="#e9fcfe"/>
      <path id="Trazado_40032" data-name="Trazado 40032" d="M587.765,1641.444s-.94,12.138-.642,19.587,4.9,25.209.919,30.307c0,0-3.195,1.956-3.291-.744s-1.963-20.166-4.269-24.1c0,0,.869,13.336.386,15.673s-.84,14.084-1.3,14.169-5.108,1.4-4.944-1.609.135-5.321-.734-12.926-5.3-23.009-4.561-29.514,1.8-7.14,1.8-7.14S576.593,1648.007,587.765,1641.444Z" transform="translate(-318.765 -257.224)" fill="#e9fcfe"/>
      <path id="Trazado_40033" data-name="Trazado 40033" d="M199.192,1366.455s-5.386,11.86,0,28.294l2.688,12.367s-2.984,3.389,3.087,1.925a42.355,42.355,0,0,0,11.321-4.816s-.414-31.02-2.3-33.259-6.571-4.073-6.571-4.073S200.875,1367.229,199.192,1366.455Z" transform="translate(-92.576 -90.221)" fill="#e9fcfe"/>
      <path id="Trazado_40034" data-name="Trazado 40034" d="M274.206,1259.423l.393-38.974a2.575,2.575,0,0,1,3.1,0c1.923,1.11,109.764,63.486,109.764,63.486l-.393,39.288-57.033,11.514Z" transform="translate(-139.586 -1.252)" fill="#e8e34a" opacity="0.6" style="isolation: isolate"/>
      <g id="Grupo_22302" data-name="Grupo 22302" transform="translate(105.944 1336.106)">
        <g id="Grupo_22300" data-name="Grupo 22300" transform="translate(15.695 0.776)">
          <path id="Trazado_40035" data-name="Trazado 40035" d="M242.193,1524.353c.354.577.639,1.029.913,1.4v-4.112a12.591,12.591,0,0,0-1.842-.746c-.055.852-.094,1.583-.114,2.161A4.5,4.5,0,0,1,242.193,1524.353Z" transform="translate(-241.15 -1520.899)" fill="#ebf0f6"/>
        </g>
        <g id="Grupo_22301" data-name="Grupo 22301" transform="translate(0 0)">
          <path id="Trazado_40036" data-name="Trazado 40036" d="M218.834,1527.661l-.018-.007a9.444,9.444,0,0,1-2.742-1.976l.057.555-1.15-.615a9.322,9.322,0,0,1-.492-2.092,5.672,5.672,0,0,1,.011-.99.882.882,0,0,1,.216-.464,27.024,27.024,0,0,1-.484-2.984,18.945,18.945,0,0,0-2.512-.166,18.678,18.678,0,0,0-3.089.253c-.116.573-.221,1.084-.311,1.524a.636.636,0,0,1,.234.335,7.224,7.224,0,0,1-.3,2.183,17.217,17.217,0,0,1-.447,3c-.262.527-.852,1.743-1.341,1.886a2.927,2.927,0,0,1-1.26-.573,3.889,3.889,0,0,1-.49-2.237,11.363,11.363,0,0,1,.9-2.056,14.358,14.358,0,0,1,.857-2.529c.028-.269.04-.62.042-1.032-3.185.994-5.335,2.871-5.335,5.025,0,3.191,4.717,5.778,10.537,5.778a16.138,16.138,0,0,0,7.115-1.517Z" transform="translate(-201.182 -1518.922)" fill="#ebf0f6"/>
        </g>
      </g>
      <g id="Grupo_22305" data-name="Grupo 22305" transform="translate(69.924 1418.937)">
        <g id="Grupo_22303" data-name="Grupo 22303" transform="translate(0 0)">
          <path id="Trazado_40037" data-name="Trazado 40037" d="M110.218,1732.805l1.069.613-.47-1.574s-.022-.984-.048-1.993l-.571.34a1.514,1.514,0,0,0,.02,2.615Z" transform="translate(-109.457 -1729.851)" fill="#6e39b7" fill-rule="evenodd"/>
        </g>
        <g id="Grupo_22304" data-name="Grupo 22304" transform="translate(67.632 37.107)">
          <path id="Trazado_40038" data-name="Trazado 40038" d="M292.75,1824.345l-8.068,4.506-2.9-.363-.094.069,2.343,1.345a1.524,1.524,0,0,0,1.517,0l8.435-4.841Z" transform="translate(-281.684 -1824.345)" fill="#6e39b7" fill-rule="evenodd"/>
        </g>
      </g>
      <g id="Grupo_22312" data-name="Grupo 22312" transform="translate(182.564 1385.697)">
        <g id="Grupo_22307" data-name="Grupo 22307" transform="translate(0 8.666)">
          <g id="Grupo_22306" data-name="Grupo 22306" transform="translate(0 0)">
            <rect id="Rectángulo_1016" data-name="Rectángulo 1016" width="0.785" height="0.393" transform="translate(0.535 0.919) rotate(-29.343)" fill="#6e39b7"/>
            <rect id="Rectángulo_1017" data-name="Rectángulo 1017" width="1.571" height="1.178" transform="translate(0 0.77) rotate(-29.344)" fill="#6e39b7"/>
          </g>
        </g>
        <g id="Grupo_22309" data-name="Grupo 22309" transform="translate(2.126 2.36)">
          <g id="Grupo_22308" data-name="Grupo 22308">
            <path id="Trazado_40039" data-name="Trazado 40039" d="M403.265,1658.283l-.192-.343,1.441-.809.192.343Zm2.885-1.65-.223-.324a5.921,5.921,0,0,0,1.18-1.073l.3.252A6.323,6.323,0,0,1,406.15,1656.633Zm2.164-2.584-.357-.163a5.915,5.915,0,0,0,.459-1.527l.388.061A6.315,6.315,0,0,1,408.314,1654.049Z" transform="translate(-402.538 -1651.91)" fill="#6e39b7"/>
            <path id="Trazado_40040" data-name="Trazado 40040" d="M402.287,1658.123l-.576-1.028,2.126-1.194.576,1.028Zm2.935-1.639-.668-.97.324-.223a5.526,5.526,0,0,0,1.1-1l.253-.3.9.757-.252.3a6.71,6.71,0,0,1-1.336,1.215Zm2.46-2.61-1.072-.488.163-.357a5.516,5.516,0,0,0,.428-1.426l.061-.388,1.164.184-.061.388a6.706,6.706,0,0,1-.52,1.73Z" transform="translate(-401.711 -1651.215)" fill="#6e39b7"/>
          </g>
        </g>
        <g id="Grupo_22311" data-name="Grupo 22311" transform="translate(7.688 0)">
          <g id="Grupo_22310" data-name="Grupo 22310" transform="translate(0)">
            <rect id="Rectángulo_1018" data-name="Rectángulo 1018" width="0.785" height="0.393" transform="matrix(0.014, -1, 1, 0.014, 0.398, 1.184)" fill="#6e39b7"/>
            <rect id="Rectángulo_1019" data-name="Rectángulo 1019" width="1.571" height="1.178" transform="translate(0 1.571) rotate(-89.217)" fill="#6e39b7"/>
          </g>
        </g>
      </g>
      <g id="Grupo_22331" data-name="Grupo 22331" transform="translate(44.362 1408.389)">
        <g id="Grupo_22314" data-name="Grupo 22314" transform="translate(104.91 49.497)">
          <g id="Grupo_22313" data-name="Grupo 22313">
            <path id="Trazado_40041" data-name="Trazado 40041" d="M313.1,1831.126l-.2-.336.683-.39.195.341Z" transform="translate(-312.357 -1829.863)" fill="#6e39b7"/>
            <path id="Trazado_40042" data-name="Trazado 40042" d="M312.124,1830.828l-.609-1.009,1.373-.784.584,1.023Z" transform="translate(-311.515 -1829.035)" fill="#6e39b7"/>
          </g>
        </g>
        <g id="Grupo_22316" data-name="Grupo 22316" transform="translate(65.855 50.643)">
          <g id="Grupo_22315" data-name="Grupo 22315">
            <path id="Trazado_40043" data-name="Trazado 40043" d="M213.621,1845.11l-.194-.341,1.323-.754.194.342Zm2.646-1.507-.195-.341,1.323-.753.194.341Zm2.645-1.507-.194-.341,1.323-.753.195.341Zm2.646-1.507-.194-.341,1.323-.753.194.341Zm2.645-1.507-.194-.341,1.323-.754.194.341Zm2.645-1.507-.194-.341,1.323-.754.195.341Zm15.784-.629c-.4,0-.817-.007-1.244-.022l.013-.392c.422.015.834.021,1.23.022h.285l.005.393Zm1.825-.075-.036-.391a7.946,7.946,0,0,0,1.461-.251l.11.377A8.354,8.354,0,0,1,244.457,1836.872Zm-4.6-.025c-.505-.033-1.015-.073-1.524-.119l.035-.391c.506.045,1.014.085,1.515.118Zm-3.045-.269c-.518-.056-1.026-.115-1.517-.175l.048-.39c.489.06,1,.119,1.511.175Zm-3.031-.372c-.55-.075-1.059-.149-1.511-.216l.058-.388c.451.067.959.141,1.507.215Zm-4.292-.137-.194-.342.988-.562.037.119.5.083-.063.388c-.269-.044-.441-.072-.552-.1Zm17.9-.15-.194-.341,1.323-.753.194.341Zm2.646-1.507-.195-.341,1.322-.755.195.341Z" transform="translate(-212.891 -1832.781)" fill="#6e39b7"/>
            <path id="Trazado_40044" data-name="Trazado 40044" d="M212.646,1844.818l-.583-1.024,2.005-1.142.583,1.024Zm2.645-1.507-.583-1.024,2-1.142.583,1.024Zm2.645-1.508-.583-1.023,2.005-1.142.583,1.024Zm2.646-1.507-.583-1.023,2.005-1.142.583,1.024Zm2.645-1.507-.583-1.023,2.005-1.142.583,1.024Zm2.645-1.506-.583-1.024,2.005-1.142.583,1.024Zm15.931-.772h0c-.4,0-.824-.007-1.255-.022l-.392-.013.04-1.178.393.014c.417.014.825.02,1.217.021l.671-.006.015,1.178Zm1.47-.041-.108-1.173.391-.036a7.538,7.538,0,0,0,1.387-.237l.377-.11.33,1.131-.377.11a8.731,8.731,0,0,1-1.609.279Zm-3.876-.034-.392-.026c-.508-.033-1.021-.073-1.533-.119l-.391-.035.1-1.173.391.035c.5.045,1.007.084,1.506.117l.392.026Zm-3.062-.254-.39-.042c-.52-.056-1.03-.115-1.523-.176l-.39-.048.144-1.17.39.048c.487.06.991.118,1.505.174l.39.042Zm-3.043-.362-.389-.053c-.551-.076-1.062-.149-1.516-.217l-.388-.058.174-1.166.389.058c.45.067.955.14,1.5.214l.389.053Zm-4.774-.044-.583-1.024,1.753-1,.11.353.651.107-.19,1.163-.388-.063c-.179-.03-.315-.052-.419-.071Zm17.9-.15-.582-1.024,2-1.142.584,1.023Zm2.647-1.507-.585-1.023,2-1.144.585,1.023Z" transform="translate(-212.063 -1831.953)" fill="#6e39b7"/>
          </g>
        </g>
        <g id="Grupo_22318" data-name="Grupo 22318" transform="translate(63.184 62.839)">
          <g id="Grupo_22317" data-name="Grupo 22317">
            <path id="Trazado_40045" data-name="Trazado 40045" d="M207.4,1865.159l-.78-.444.194-.342.585.333.585-.333.194.341Z" transform="translate(-206.089 -1863.838)" fill="#6e39b7"/>
            <path id="Trazado_40046" data-name="Trazado 40046" d="M206.576,1864.783l-1.315-.749.583-1.024.732.417.732-.417.583,1.024Z" transform="translate(-205.261 -1863.01)" fill="#6e39b7"/>
          </g>
        </g>
        <g id="Grupo_22320" data-name="Grupo 22320" transform="translate(2.587 28.308)">
          <g id="Grupo_22319" data-name="Grupo 22319">
            <path id="Trazado_40047" data-name="Trazado 40047" d="M111.534,1810.528l-1.377-.785.194-.342,1.377.785Zm-2.754-1.57-1.377-.785.194-.341,1.377.785Zm-2.754-1.569-1.377-.785.194-.341,1.377.785Zm-2.754-1.57-1.377-.785.194-.341,1.377.785Zm-2.755-1.569-1.377-.785.194-.341,1.377.785Zm-2.754-1.57-1.377-.785.194-.341,1.377.785Zm-2.754-1.57-1.377-.785.194-.342,1.377.785Zm-2.754-1.57-1.377-.785.194-.342,1.377.785Zm-2.754-1.57-1.377-.785.194-.341,1.377.785Zm-2.754-1.57-1.377-.785.194-.341,1.377.785Zm-2.754-1.57-1.377-.785.194-.341,1.377.785Zm-2.754-1.569-1.378-.785.195-.341,1.377.785Zm-2.754-1.57-1.378-.785.194-.341,1.378.785Zm-2.755-1.57-1.377-.785.194-.342,1.378.785Zm-2.754-1.57-1.377-.785.194-.341,1.377.785Zm-2.754-1.569-1.377-.785.194-.341,1.377.785Zm-2.754-1.57-1.377-.784.194-.341,1.377.785Zm-2.754-1.569-1.377-.785.194-.341,1.377.784Zm-2.754-1.569-1.377-.785.194-.341,1.377.785Zm-2.755-1.569-1.377-.785.194-.341,1.377.785Zm-2.754-1.57-1.377-.785.195-.342,1.377.785Zm-2.754-1.57-1.377-.785.194-.341,1.377.785Z" transform="translate(-51.778 -1775.906)" fill="#6e39b7"/>
            <path id="Trazado_40048" data-name="Trazado 40048" d="M110.852,1810.236l-2.06-1.173.583-1.024,2.06,1.173Zm-2.754-1.569-2.06-1.173.583-1.024,2.06,1.174Zm-2.755-1.569-2.059-1.174.583-1.024,2.059,1.174Zm-2.754-1.57-2.059-1.174.583-1.024,2.059,1.174Zm-2.754-1.57-2.059-1.173.583-1.024,2.06,1.174Zm-2.754-1.57-2.06-1.173.583-1.024,2.06,1.173Zm-2.754-1.569-2.06-1.174.583-1.024,2.06,1.174Zm-2.754-1.57-2.06-1.174.583-1.024,2.06,1.174Zm-2.754-1.569-2.06-1.174.583-1.024,2.06,1.173Zm-2.754-1.57L84,1794.937l.583-1.024,2.06,1.173Zm-2.754-1.57-2.06-1.173.583-1.024,2.06,1.173Zm-2.754-1.569-2.06-1.174.583-1.024,2.06,1.174ZM77.8,1791.4l-2.06-1.174.583-1.024,2.06,1.174Zm-2.754-1.57-2.06-1.173.583-1.024,2.06,1.173Zm-2.754-1.57-2.06-1.173.583-1.024,2.06,1.174Zm-2.754-1.57-2.06-1.174.583-1.024,2.06,1.174Zm-2.754-1.569-2.06-1.174.583-1.024,2.06,1.174Zm-2.754-1.57-2.06-1.174.583-1.024,2.06,1.174Zm-2.755-1.57-2.059-1.173.583-1.024,2.059,1.173Zm-2.754-1.57-2.059-1.173.583-1.024,2.059,1.173Zm-2.754-1.57-2.059-1.174.583-1.024,2.06,1.173Zm-2.754-1.569-2.06-1.174.583-1.024,2.06,1.174Z" transform="translate(-50.95 -1775.078)" fill="#6e39b7"/>
          </g>
        </g>
        <g id="Grupo_22322" data-name="Grupo 22322" transform="translate(0 26.726)">
          <g id="Grupo_22321" data-name="Grupo 22321">
            <path id="Trazado_40049" data-name="Trazado 40049" d="M47.3,1773.557l-.972-.554.956-.581.2.335-.386.235.393.224Z" transform="translate(-45.558 -1771.882)" fill="#6e39b7"/>
            <path id="Trazado_40050" data-name="Trazado 40050" d="M46.254,1773.258l-1.893-1.079,1.861-1.132.612,1.007-.152.092.155.088Z" transform="translate(-44.362 -1771.047)" fill="#6e39b7"/>
          </g>
        </g>
        <g id="Grupo_22324" data-name="Grupo 22324" transform="translate(2.457 14.394)">
          <g id="Grupo_22323" data-name="Grupo 22323">
            <path id="Trazado_40051" data-name="Trazado 40051" d="M52.2,1752.915l-.2-.336,1.267-.771.2.336Zm2.534-1.541-.2-.335,1.267-.771.2.335Zm2.534-1.541-.2-.336,1.267-.771.2.336Zm2.534-1.542-.2-.335,1.267-.771.2.336Zm2.534-1.541-.2-.336,1.267-.771.2.336Zm2.534-1.542-.2-.335,1.267-.771.2.336Zm2.534-1.541-.2-.335,1.267-.771.2.335Zm2.534-1.541-.2-.336,1.267-.771.2.336Z" transform="translate(-51.453 -1740.479)" fill="#6e39b7"/>
            <path id="Trazado_40052" data-name="Trazado 40052" d="M51.23,1752.62l-.612-1.006,1.938-1.179.612,1.006Zm2.534-1.541-.612-1.007,1.938-1.179.612,1.007Zm2.534-1.542-.612-1.007,1.938-1.179.612,1.007ZM58.832,1748l-.612-1.007,1.938-1.178.612,1.006Zm2.534-1.541-.612-1.006,1.938-1.179.612,1.006Zm2.534-1.542-.612-1.007,1.938-1.179.612,1.006Zm2.534-1.541-.612-1.007,1.938-1.179.612,1.007Zm2.534-1.542-.612-1.007,1.938-1.179.612,1.007Z" transform="translate(-50.618 -1739.644)" fill="#6e39b7"/>
          </g>
        </g>
        <g id="Grupo_22326" data-name="Grupo 22326" transform="translate(22.728 12.747)">
          <g id="Grupo_22325" data-name="Grupo 22325">
            <path id="Trazado_40053" data-name="Trazado 40053" d="M103.822,1738.06l-.2-.335.4-.247a2.834,2.834,0,0,1-.391-.345l.285-.269a2.5,2.5,0,0,0,.572.45l.287.166Z" transform="translate(-103.076 -1736.308)" fill="#6e39b7"/>
            <path id="Trazado_40054" data-name="Trazado 40054" d="M102.853,1737.741l-.612-1.006.285-.173-.017-.018-.269-.285.857-.808.269.285a2.1,2.1,0,0,0,.482.38l.861.5Z" transform="translate(-102.239 -1735.45)" fill="#6e39b7"/>
          </g>
        </g>
        <g id="Grupo_22328" data-name="Grupo 22328" transform="translate(22.126 1.208)">
          <g id="Grupo_22327" data-name="Grupo 22327">
            <path id="Trazado_40055" data-name="Trazado 40055" d="M101.73,1717.692a2.89,2.89,0,0,1,.3-1.7l.349.181a2.483,2.483,0,0,0-.277,1.141,2.445,2.445,0,0,0,.022.33Zm1.712-2.578-.2-.34,1.419-.816.2.34Zm2.837-1.632-.2-.34,1.419-.816.2.341Zm2.837-1.632-.2-.341,1.419-.816.2.341Zm2.838-1.632-.2-.34,1.419-.816.2.341Zm2.837-1.632-.2-.34,1.419-.816.2.34Z" transform="translate(-101.312 -1706.895)" fill="#6e39b7"/>
            <path id="Trazado_40056" data-name="Trazado 40056" d="M100.785,1717.3l-.052-.389a3.323,3.323,0,0,1-.029-.434,3.275,3.275,0,0,1,.365-1.5l.181-.349,1.046.543-.181.348a2.1,2.1,0,0,0-.214,1.239l.051.389Zm1.9-2.482-.587-1.021,2.1-1.208.587,1.021Zm2.837-1.632-.587-1.022,2.1-1.207.587,1.022Zm2.838-1.632-.587-1.022,2.1-1.207.587,1.021Zm2.838-1.632-.587-1.021,2.1-1.207.587,1.021Zm2.837-1.632-.587-1.022,2.1-1.207.587,1.022Z" transform="translate(-100.705 -1706.066)" fill="#6e39b7"/>
          </g>
        </g>
        <g id="Grupo_22330" data-name="Grupo 22330" transform="translate(37.711 0)">
          <g id="Grupo_22329" data-name="Grupo 22329">
            <rect id="Rectángulo_1020" data-name="Rectángulo 1020" width="0.785" height="0.393" transform="translate(0.536 0.927) rotate(-29.872)" fill="#6e39b7"/>
            <rect id="Rectángulo_1021" data-name="Rectángulo 1021" width="1.571" height="1.178" transform="translate(0 0.782) rotate(-29.87)" fill="#6e39b7"/>
          </g>
        </g>
      </g>
      <g id="Grupo_22333" data-name="Grupo 22333" transform="translate(119.21 1260.43)">
        <g id="Grupo_22332" data-name="Grupo 22332" transform="translate(0 0)">
          <path id="Trazado_40057" data-name="Trazado 40057" d="M240.017,1333.553c-.15-.19-.289-.372-.418-.542s-.26-.343-.376-.485a23.284,23.284,0,0,1-2.942-4.844l.36-.157a22.8,22.8,0,0,0,2.887,4.753c.118.145.245.313.384.5s.264.348.413.536Z" transform="translate(-235.764 -1327.01)" fill="#6e39b7"/>
          <path id="Trazado_40058" data-name="Trazado 40058" d="M239.154,1333.306l-.244-.307c-.147-.185-.283-.365-.41-.531l-.026-.034c-.128-.168-.246-.323-.356-.458a23.675,23.675,0,0,1-3-4.935l-.157-.36,1.08-.469.157.36a22.411,22.411,0,0,0,2.831,4.661c.12.148.249.317.389.5s.264.348.411.533l.244.307Zm-.341-1.076Z" transform="translate(-234.965 -1326.211)" fill="#6e39b7"/>
        </g>
      </g>
      <g id="Grupo_22335" data-name="Grupo 22335" transform="translate(117.872 1268.656)">
        <g id="Grupo_22334" data-name="Grupo 22334">
          <path id="Trazado_40059" data-name="Trazado 40059" d="M238.033,1352.79a9.075,9.075,0,0,1-3.545-2.487c-.37-.377-.752-.766-1.228-1.18q-.144-.125-.29-.264l.271-.285q.14.133.278.253c.487.423.875.818,1.25,1.2a8.744,8.744,0,0,0,3.409,2.4Z" transform="translate(-232.415 -1348.019)" fill="#6e39b7"/>
          <path id="Trazado_40060" data-name="Trazado 40060" d="M237.394,1352.441l-.365-.145a9.393,9.393,0,0,1-3.679-2.576c-.366-.373-.742-.756-1.206-1.16-.1-.087-.2-.179-.3-.276l-.285-.27.811-.855.285.271q.133.127.265.241c.5.432.888.83,1.267,1.216a8.332,8.332,0,0,0,3.28,2.313l.365.145Z" transform="translate(-231.556 -1347.16)" fill="#6e39b7"/>
        </g>
      </g>
      <g id="Grupo_22337" data-name="Grupo 22337" transform="translate(108.884 1337.141)">
        <g id="Grupo_22336" data-name="Grupo 22336" transform="translate(0 0)">
          <path id="Trazado_40061" data-name="Trazado 40061" d="M211.592,1530.762a3.2,3.2,0,0,1-1.374-.638,4,4,0,0,1-.542-2.384,4.282,4.282,0,0,1,.567-1.4,6.709,6.709,0,0,0,.344-.706c.07-.193.143-.48.22-.783a4.957,4.957,0,0,1,.721-1.875l.288.267a4.959,4.959,0,0,0-.628,1.7c-.079.313-.154.609-.231.82a6.785,6.785,0,0,1-.366.756,4.241,4.241,0,0,0-.522,1.247,3.717,3.717,0,0,0,.438,2.09,3.329,3.329,0,0,0,1.067.515c.386-.112.971-1.29,1.191-1.734l.024-.049a5.921,5.921,0,0,0,.3-1.8,8.763,8.763,0,0,1,.133-1.158l.028-.123a6.84,6.84,0,0,0,.27-1.965.424.424,0,0,0-.124-.2l.27-.286a.823.823,0,0,1,.233.384,6.1,6.1,0,0,1-.266,2.157l-.028.122a8.639,8.639,0,0,0-.124,1.1,5.96,5.96,0,0,1-.338,1.944l-.024.048c-.426.859-.924,1.788-1.438,1.939A.318.318,0,0,1,211.592,1530.762Z" transform="translate(-209.276 -1522.417)" fill="#6e39b7"/>
          <path id="Trazado_40062" data-name="Trazado 40062" d="M210.985,1530.3a3.457,3.457,0,0,1-1.661-.763,4.305,4.305,0,0,1-.646-2.679,4.489,4.489,0,0,1,.612-1.56,6.531,6.531,0,0,0,.322-.657c.062-.172.132-.446.205-.735a5.158,5.158,0,0,1,.816-2.055l.267-.289.864.8-.267.288a5.357,5.357,0,0,0-.536,1.534c-.081.322-.158.627-.243.859a7.08,7.08,0,0,1-.387.8,4.531,4.531,0,0,0-.479,1.092,3.581,3.581,0,0,0,.335,1.8,4.333,4.333,0,0,0,.72.365,6.008,6.008,0,0,0,.9-1.489l.025-.05a5.949,5.949,0,0,0,.259-1.654,8.973,8.973,0,0,1,.141-1.216l.029-.124a5.592,5.592,0,0,0,.273-1.773l-.286-.27.255-.306.54-.571.285.27a1.208,1.208,0,0,1,.341.565,5.729,5.729,0,0,1-.262,2.349l-.028.121a8.562,8.562,0,0,0-.115,1.041,6.158,6.158,0,0,1-.378,2.089l-.024.048c-.5,1.017-1.012,1.946-1.679,2.141A.7.7,0,0,1,210.985,1530.3Z" transform="translate(-208.669 -1521.558)" fill="#6e39b7"/>
        </g>
      </g>
      <g id="Grupo_22339" data-name="Grupo 22339" transform="translate(118.643 1338.67)">
        <g id="Grupo_22338" data-name="Grupo 22338">
          <path id="Trazado_40063" data-name="Trazado 40063" d="M238.982,1532.633a9.446,9.446,0,0,1-2.41-1.631.2.2,0,0,1-.085.194.194.194,0,0,1-.2.01l-1.151-.615a.2.2,0,0,1-.091-.1,9.423,9.423,0,0,1-.5-2.142,5.865,5.865,0,0,1,.011-1.031,1.477,1.477,0,0,1,.2-.488l.335.2a1.143,1.143,0,0,0-.147.33,5.585,5.585,0,0,0-.01.948,9.143,9.143,0,0,0,.455,1.973l.758.406-.019-.187a.2.2,0,0,1,.34-.153,9.314,9.314,0,0,0,2.678,1.93Z" transform="translate(-234.129 -1526.285)" fill="#6e39b7"/>
          <path id="Trazado_40064" data-name="Trazado 40064" d="M238.57,1532.318l-.358-.162a9.518,9.518,0,0,1-2.2-1.421.583.583,0,0,1-.523-.018l-1.149-.614a.6.6,0,0,1-.273-.311,9.893,9.893,0,0,1-.527-2.244,6.19,6.19,0,0,1,.012-1.115,1.782,1.782,0,0,1,.256-.646l.2-.335,1.007.612-.2.336a1.066,1.066,0,0,0-.1.2,5.356,5.356,0,0,0,0,.839,8.553,8.553,0,0,0,.386,1.739l.165.088a.581.581,0,0,1,.207-.154.591.591,0,0,1,.676.141,8.967,8.967,0,0,0,2.55,1.836l.357.162Z" transform="translate(-233.521 -1525.451)" fill="#6e39b7"/>
        </g>
      </g>
      <g id="Grupo_22340" data-name="Grupo 22340" transform="translate(121.618 1338.975)">
        <path id="Trazado_40065" data-name="Trazado 40065" d="M242.859,1529.033c-.252-.352-.518-.775-.867-1.343a4.808,4.808,0,0,0-.9-1.164l.253-.3a5.114,5.114,0,0,1,.98,1.259c.344.561.606.977.851,1.32Z" transform="translate(-241.095 -1526.226)" fill="#6e39b7"/>
      </g>
      <g id="Grupo_22342" data-name="Grupo 22342" transform="translate(117.65 1316.947)">
        <g id="Grupo_22341" data-name="Grupo 22341" transform="translate(0 0)">
          <path id="Trazado_40066" data-name="Trazado 40066" d="M234.52,1494.551a1.2,1.2,0,0,1-.869-.373c-1.1-1.144-1.859-14.643-1.639-19.417.077-1.666,0-3.551,0-3.571l.392-.017c0,.019.081,1.921,0,3.6-.231,4.984.589,18.152,1.529,19.127a.828.828,0,0,0,.914.188.8.8,0,0,0,.52-.729c.046-3.054,1-13.519,1.971-21.533l.39.048c-.966,8-1.923,18.448-1.969,21.491a1.179,1.179,0,0,1-.768,1.088A1.291,1.291,0,0,1,234.52,1494.551Z" transform="translate(-231.588 -1470.765)" fill="#6e39b7"/>
          <path id="Trazado_40067" data-name="Trazado 40067" d="M233.923,1494.312a1.586,1.586,0,0,1-1.151-.492c-1.338-1.389-1.93-15.77-1.748-19.709.075-1.614,0-3.457,0-3.535l-.016-.392,1.177-.051.016.393c0,.08.08,1.973,0,3.639-.254,5.484.689,17.984,1.421,18.839a.442.442,0,0,0,.486.093.409.409,0,0,0,.271-.369c.046-3.063,1.006-13.548,1.974-21.575l.047-.39,1.17.141-.047.39c-.965,7.994-1.92,18.419-1.966,21.45a1.565,1.565,0,0,1-1.016,1.448A1.681,1.681,0,0,1,233.923,1494.312Z" transform="translate(-230.991 -1470.133)" fill="#6e39b7"/>
        </g>
      </g>
      <g id="Grupo_22344" data-name="Grupo 22344" transform="translate(110 1317.598)">
        <g id="Grupo_22343" data-name="Grupo 22343">
          <path id="Trazado_40068" data-name="Trazado 40068" d="M214.479,1494.648a1.6,1.6,0,0,1-1.182-.491,1.025,1.025,0,0,1-.217-1.067c.262-.746.044-4.165-.186-7.784-.308-4.837-.656-10.318-.075-12.094l.373.122c-.557,1.7-.211,7.145.094,11.947.243,3.819.453,7.117.164,7.939a.641.641,0,0,0,.138.674,1.255,1.255,0,0,0,1.081.348c.285-1.351,2.749-13.093,3.681-20.442v-1.01h.393v1.034c-.988,7.807-3.688,20.5-3.715,20.626a.2.2,0,0,1-.145.15A1.708,1.708,0,0,1,214.479,1494.648Z" transform="translate(-212.115 -1472.398)" fill="#6e39b7"/>
          <path id="Trazado_40069" data-name="Trazado 40069" d="M213.875,1494.434a2,2,0,0,1-1.473-.62,1.419,1.419,0,0,1-.3-1.46c.235-.671,0-4.365-.207-7.625-.311-4.876-.662-10.4-.057-12.245l.122-.373,1.12.366-.122.373c-.534,1.632-.175,7.27.113,11.8.284,4.467.442,7.241.143,8.094a.247.247,0,0,0,.059.28.786.786,0,0,0,.471.223c.478-2.279,2.726-13.141,3.608-20.078l0-1.378h1.178l0,1.476c-.984,7.772-3.694,20.532-3.721,20.658a.592.592,0,0,1-.436.449A2.091,2.091,0,0,1,213.875,1494.434Z" transform="translate(-211.511 -1471.791)" fill="#6e39b7"/>
        </g>
      </g>
      <g id="Grupo_22346" data-name="Grupo 22346" transform="translate(103.947 1275.736)">
        <g id="Grupo_22345" data-name="Grupo 22345" transform="translate(0 0)">
          <path id="Trazado_40070" data-name="Trazado 40070" d="M205.147,1409.042a6.544,6.544,0,0,1-1.769-.212,2.082,2.082,0,0,1-1.707-1.658c-.059-.421-.116-.845-.174-1.277a79.475,79.475,0,0,0-1.533-8.571c-1.092-4.589-2.531-11.672-2.7-13.3-.892-8.5,2.08-17.483,2.11-17.573l.373.125c-.03.089-2.976,8.991-2.093,17.407.17,1.612,1.6,8.668,2.693,13.245a79.751,79.751,0,0,1,1.541,8.609c.058.431.115.854.174,1.275.09.642.569,1.091,1.425,1.335,3.086.881,9.92-1.171,12.681-4.478l.3.252C214.074,1407.093,208.693,1409.042,205.147,1409.042Z" transform="translate(-196.703 -1365.957)" fill="#6e39b7"/>
          <path id="Trazado_40071" data-name="Trazado 40071" d="M204.541,1408.665a6.923,6.923,0,0,1-1.877-.227,2.476,2.476,0,0,1-1.987-1.981c-.059-.419-.116-.842-.174-1.272a79.15,79.15,0,0,0-1.527-8.54c-1.095-4.6-2.538-11.71-2.71-13.346-.9-8.579,2.1-17.648,2.128-17.738l.125-.373,1.117.375-.125.373c-.029.088-2.948,8.911-2.074,17.24.168,1.6,1.6,8.63,2.684,13.2a80.018,80.018,0,0,1,1.548,8.648l.008.058c.055.41.11.814.166,1.215.025.176.1.714,1.144,1.011,2.918.835,9.645-1.2,12.272-4.351l.252-.3.9.755-.252.3C213.688,1406.673,208.155,1408.665,204.541,1408.665Z" transform="translate(-196.097 -1365.188)" fill="#6e39b7"/>
        </g>
      </g>
      <g id="Grupo_22348" data-name="Grupo 22348" transform="translate(119.523 1277.984)">
        <g id="Grupo_22347" data-name="Grupo 22347" transform="translate(0 0)">
          <path id="Trazado_40072" data-name="Trazado 40072" d="M240.451,1391.61l-.09-1.346c-.371-5.566-.722-10.823-1.382-13.121a28.693,28.693,0,0,0-1.879-4.718l.352-.174a29.1,29.1,0,0,1,1.9,4.784c.672,2.338,1.023,7.616,1.4,13.2l.09,1.346Z" transform="translate(-236.575 -1371.725)" fill="#6e39b7"/>
          <path id="Trazado_40073" data-name="Trazado 40073" d="M239.273,1391.215l-.116-1.739c-.37-5.546-.719-10.782-1.367-13.038a28.28,28.28,0,0,0-1.854-4.653l-.174-.352,1.056-.522.174.352a29.494,29.494,0,0,1,1.93,4.85c.683,2.378,1.036,7.675,1.41,13.284l.117,1.739Z" transform="translate(-235.762 -1370.912)" fill="#6e39b7"/>
        </g>
      </g>
      <g id="Grupo_22353" data-name="Grupo 22353" transform="translate(105.487 1256.913)">
        <g id="Grupo_22350" data-name="Grupo 22350" transform="translate(11.421 0)">
          <g id="Grupo_22349" data-name="Grupo 22349">
            <path id="Trazado_40074" data-name="Trazado 40074" d="M231.19,1334.707c-.032-.24-.075-.507-.119-.787a11.84,11.84,0,0,1-.226-2.337,9.447,9.447,0,0,1,.753-2.1,11.876,11.876,0,0,0,1.135-3.483c-.011-.3-.014-.631-.017-.983a17.481,17.481,0,0,0-.452-4.454,2.149,2.149,0,0,0-2.094-1.845l.029-.391a2.551,2.551,0,0,1,2.445,2.137,17.817,17.817,0,0,1,.465,4.551c0,.348.005.673.016.971a11.645,11.645,0,0,1-1.166,3.651,10.18,10.18,0,0,0-.722,1.971,11.631,11.631,0,0,0,.221,2.251c.046.284.089.555.121.8Z" transform="translate(-229.75 -1317.905)" fill="#6e39b7"/>
            <path id="Trazado_40075" data-name="Trazado 40075" d="M230.2,1334.5l-.051-.389c-.031-.235-.073-.5-.117-.771a12.171,12.171,0,0,1-.231-2.429,9.155,9.155,0,0,1,.783-2.23,12.185,12.185,0,0,0,1.1-3.316c-.011-.3-.014-.636-.017-.991a17.177,17.177,0,0,0-.439-4.359,1.763,1.763,0,0,0-1.744-1.554l-.391-.029.087-1.175.392.029a2.94,2.94,0,0,1,2.794,2.428,18.119,18.119,0,0,1,.478,4.647c0,.359.005.672.016.96a11.505,11.505,0,0,1-1.2,3.819,11.638,11.638,0,0,0-.692,1.842,11.432,11.432,0,0,0,.218,2.165c.047.291.09.564.122.809l.051.389Z" transform="translate(-229.1 -1317.254)" fill="#6e39b7"/>
          </g>
        </g>
        <g id="Grupo_22352" data-name="Grupo 22352" transform="translate(0 0.515)">
          <g id="Grupo_22351" data-name="Grupo 22351">
            <path id="Trazado_40076" data-name="Trazado 40076" d="M206.652,1339.416a18.618,18.618,0,0,1-2.922-.242c-1.144-.182-2.42-.813-2.423-1.426a4.423,4.423,0,0,1,.15-.978,6.761,6.761,0,0,0,.154-.846,34.066,34.066,0,0,0-.263-5.425c-.325-3.451-.631-6.712.255-7.787a13.4,13.4,0,0,1,4.039-2.58c.171-.083.328-.159.465-.227l.175.351c-.138.069-.3.146-.468.229a13.426,13.426,0,0,0-3.908,2.477c-.783.95-.456,4.43-.167,7.5a34.259,34.259,0,0,1,.263,5.5,6.968,6.968,0,0,1-.162.9,4.162,4.162,0,0,0-.14.889c0,.242.885.847,2.092,1.039a15.191,15.191,0,0,0,6.188-.163l.1.38A13.659,13.659,0,0,1,206.652,1339.416Z" transform="translate(-200.627 -1319.379)" fill="#6e39b7"/>
            <path id="Trazado_40077" data-name="Trazado 40077" d="M206.042,1338.995a19.076,19.076,0,0,1-2.984-.247c-1.141-.182-2.75-.864-2.754-1.812a4.71,4.71,0,0,1,.159-1.066,6.459,6.459,0,0,0,.146-.8,33.979,33.979,0,0,0-.263-5.35c-.347-3.688-.647-6.873.342-8.073a13.621,13.621,0,0,1,4.17-2.684l.462-.226.351-.175.525,1.055-.352.174c-.139.069-.3.146-.469.229a13.219,13.219,0,0,0-3.779,2.374c-.68.825-.333,4.518-.079,7.214a34.41,34.41,0,0,1,.263,5.574,7.248,7.248,0,0,1-.17.945,4.6,4.6,0,0,0-.128.724,3.575,3.575,0,0,0,1.759.73,14.805,14.805,0,0,0,6.028-.156l.38-.1.3,1.141-.38.1A14.1,14.1,0,0,1,206.042,1338.995Zm-4.585-2.173" transform="translate(-200.018 -1318.565)" fill="#6e39b7"/>
          </g>
        </g>
      </g>
      <g id="Grupo_22355" data-name="Grupo 22355" transform="translate(109.027 1257.042)">
        <g id="Grupo_22354" data-name="Grupo 22354" transform="translate(0 0)">
          <path id="Trazado_40078" data-name="Trazado 40078" d="M214.147,1324.451a4.395,4.395,0,0,1-2.58-.824,3.282,3.282,0,0,1-1.527-2.68c.044-.522.789-1.255.874-1.337l.273.282a2.713,2.713,0,0,0-.756,1.088,2.89,2.89,0,0,0,1.364,2.328,4.255,4.255,0,0,0,4.278.328c1.589-.7,1.747-2.462,1.7-3.451a1.265,1.265,0,0,0-.776-.95l.134-.369a1.658,1.658,0,0,1,1.034,1.3c.051,1.09-.131,3.036-1.935,3.829A5.183,5.183,0,0,1,214.147,1324.451Z" transform="translate(-209.64 -1318.363)" fill="#6e39b7"/>
          <path id="Trazado_40079" data-name="Trazado 40079" d="M213.54,1324.066a4.8,4.8,0,0,1-2.809-.9,3.679,3.679,0,0,1-1.691-3.032,3.235,3.235,0,0,1,.992-1.587l.283-.273.818.847-.282.272a2.8,2.8,0,0,0-.637.844,2.539,2.539,0,0,0,1.2,1.97,3.872,3.872,0,0,0,3.891.288c1.374-.6,1.509-2.184,1.467-3.073a.894.894,0,0,0-.518-.6l-.369-.134.4-1.107.369.134a2.058,2.058,0,0,1,1.293,1.651c.056,1.19-.151,3.32-2.17,4.207A5.553,5.553,0,0,1,213.54,1324.066Z" transform="translate(-209.033 -1317.585)" fill="#6e39b7"/>
        </g>
      </g>
      <g id="Grupo_22356" data-name="Grupo 22356" transform="translate(112.027 1251.037)">
        <path id="Trazado_40080" data-name="Trazado 40080" d="M220.222,1309.5a3.61,3.61,0,0,1-1.964-.917,4.044,4.044,0,0,1-1.586-2.668l.392-.031a3.655,3.655,0,0,0,1.444,2.4,3.019,3.019,0,0,0,1.781.824,4.071,4.071,0,0,0,2.636-2.762,13.174,13.174,0,0,0,.3-3.986l.387-.068a13.473,13.473,0,0,1-.308,4.165,4.426,4.426,0,0,1-2.968,3.042A.944.944,0,0,1,220.222,1309.5Z" transform="translate(-216.672 -1302.291)" fill="#6e39b7"/>
      </g>
      <g id="Grupo_22357" data-name="Grupo 22357" transform="translate(110.75 1252.173)">
        <path id="Trazado_40081" data-name="Trazado 40081" d="M214.695,1307.682a.773.773,0,0,1-.145-.014,1.447,1.447,0,0,1-1.114-1.307,1.1,1.1,0,0,1,.267-.965.788.788,0,0,1,.7-.2,1.3,1.3,0,0,1,1.058,1.1l.013.052-.379.1-.016-.067a.9.9,0,0,0-.743-.8.4.4,0,0,0-.362.093.738.738,0,0,0-.151.628,1.068,1.068,0,0,0,.8.975.358.358,0,0,0,.357-.147l.308.243A.751.751,0,0,1,214.695,1307.682Z" transform="translate(-213.42 -1305.184)" fill="#6e39b7"/>
      </g>
      <g id="Grupo_22364" data-name="Grupo 22364" transform="translate(149.218 1383.699)">
        <g id="Grupo_22359" data-name="Grupo 22359" transform="translate(0 2.74)">
          <g id="Grupo_22358" data-name="Grupo 22358" transform="translate(0 0)">
            <rect id="Rectángulo_1022" data-name="Rectángulo 1022" width="0.785" height="0.393" transform="translate(0.536 0.929) rotate(-29.995)" fill="#6e39b7"/>
            <rect id="Rectángulo_1023" data-name="Rectángulo 1023" width="1.571" height="1.178" transform="translate(0 0.785) rotate(-29.987)" fill="#6e39b7"/>
          </g>
        </g>
        <g id="Grupo_22361" data-name="Grupo 22361" transform="translate(2.062 0)">
          <g id="Grupo_22360" data-name="Grupo 22360">
            <path id="Trazado_40082" data-name="Trazado 40082" d="M362.928,1680.777l-.2-.34,1.382-.8.2.341Zm2.763-1.595-.2-.34,1.382-.8.2.34Zm2.764-1.6-.2-.34,1.382-.8.2.34Zm2.763-1.595-.2-.341,1.382-.8.2.34Zm2.764-1.6-.2-.34.382-.221a6.406,6.406,0,0,0,.92-.636l.252.3a6.881,6.881,0,0,1-.976.676Zm2.425-2.168-.347-.184a2.289,2.289,0,0,0,.285-1.073,1.909,1.909,0,0,0-.03-.341l.386-.07a2.3,2.3,0,0,1,.036.411A2.679,2.679,0,0,1,376.407,1672.228Zm-.809-2.855a3.96,3.96,0,0,0-.763-.562l-.518-.3.194-.341.52.3a4.361,4.361,0,0,1,.839.62Zm-2.667-1.649-1.385-.791.195-.341,1.386.791Zm-2.771-1.581-1.385-.791.195-.341,1.385.791Zm-2.771-1.582-1.385-.79.195-.341,1.385.791Zm-2.771-1.581-1.385-.791.195-.341,1.385.791Zm-2.771-1.582-1.385-.791.195-.341,1.386.791Zm-2.771-1.581-1.385-.791.195-.341,1.385.791Zm-2.771-1.582-1.385-.791.195-.341,1.385.791Zm-2.771-1.581-1.385-.791.195-.341,1.385.791Zm-2.771-1.582-1.385-.791.195-.341,1.385.791Zm-2.771-1.581-1.385-.791.195-.341,1.385.791Zm-2.771-1.581-1.385-.791.195-.341,1.385.791Zm-2.771-1.582-1.385-.791.195-.341,1.385.791Zm-2.771-1.582-1.386-.791.195-.341,1.385.791Zm-2.772-1.582-1.385-.791.195-.341,1.385.791Zm-2.771-1.582-1.385-.791.195-.341,1.385.791ZM331.362,1644l-1.385-.791.195-.341,1.385.791Zm-13.171-.458-.2-.34,1.385-.8.19.344Zm10.4-1.124a6.138,6.138,0,0,0-1.427-.587l.105-.378a6.5,6.5,0,0,1,1.506.618Zm-7.6-.306-.129-.371a11.135,11.135,0,0,1,1.569-.417l.073.386A10.738,10.738,0,0,0,321,1642.114Zm4.635-.558a10.857,10.857,0,0,0-1.566-.031l-.02-.392a11.19,11.19,0,0,1,1.623.032Z" transform="translate(-317.459 -1640.725)" fill="#6e39b7"/>
            <path id="Trazado_40083" data-name="Trazado 40083" d="M361.954,1680.706l-.589-1.02,2.062-1.19.589,1.021Zm2.764-1.595-.589-1.021,2.062-1.19.589,1.021Zm2.764-1.6-.589-1.02,2.062-1.19.589,1.021Zm2.763-1.595-.589-1.021,2.062-1.19.589,1.021Zm2.763-1.6-.589-1.02.722-.417a6.05,6.05,0,0,0,.864-.6l.3-.252.757.9-.3.252a7.249,7.249,0,0,1-1.032.715Zm2.732-2.174-1.041-.551.183-.347a1.9,1.9,0,0,0,.239-.89,1.506,1.506,0,0,0-.024-.271l-.069-.386,1.16-.208.069.387a2.669,2.669,0,0,1,.042.48,3.064,3.064,0,0,1-.376,1.44Zm-.961-2.83-.284-.272a3.557,3.557,0,0,0-.688-.506l-.858-.489.584-1.023.86.49a4.766,4.766,0,0,1,.917.678l.283.272Zm-2.533-1.669-2.068-1.18.584-1.023,2.068,1.18Zm-2.771-1.581-2.068-1.18.584-1.023,2.068,1.18Zm-2.771-1.582-2.068-1.18.584-1.023,2.068,1.18Zm-2.772-1.581-2.068-1.18.584-1.023,2.068,1.18Zm-2.771-1.582-2.068-1.18.584-1.023,2.068,1.18Zm-2.771-1.582-2.068-1.18.584-1.023,2.068,1.18Zm-2.771-1.581-2.068-1.18.584-1.023,2.068,1.18Zm-2.772-1.582-2.068-1.18.584-1.023,2.068,1.18ZM350.078,1655l-2.068-1.18.584-1.023,2.068,1.18Zm-2.771-1.581-2.068-1.18.584-1.023,2.068,1.18Zm-2.771-1.581-2.068-1.18.584-1.023,2.068,1.18Zm-2.772-1.582-2.068-1.18.584-1.023,2.068,1.18Zm-2.771-1.581-2.068-1.18.584-1.023,2.068,1.18Zm-2.772-1.581-2.068-1.181.585-1.023,2.068,1.181Zm-2.771-1.582-2.068-1.18.584-1.023,2.068,1.18Zm-2.772-1.581-2.068-1.18.584-1.023,2.068,1.18Zm-13.461-.457-.589-1.02,2.071-1.195.571,1.031Zm10.7-1.117-.351-.2a5.8,5.8,0,0,0-1.336-.549l-.379-.105.317-1.135.378.106a6.9,6.9,0,0,1,1.6.655l.329.19Zm-7.993-.348-.387-1.113.371-.129a11.533,11.533,0,0,1,1.624-.431l.386-.074.22,1.158-.386.073a10.359,10.359,0,0,0-1.458.387Zm5.231-.63-.391-.036a10.432,10.432,0,0,0-1.508-.029l-.392.02-.061-1.177.392-.02a11.693,11.693,0,0,1,1.68.034l.391.037Z" transform="translate(-316.629 -1640.118)" fill="#6e39b7"/>
          </g>
        </g>
        <g id="Grupo_22363" data-name="Grupo 22363" transform="translate(44.728 39.978)">
          <g id="Grupo_22362" data-name="Grupo 22362" transform="translate(0 0)">
            <rect id="Rectángulo_1024" data-name="Rectángulo 1024" width="0.785" height="0.393" transform="translate(0.537 0.929) rotate(-29.995)" fill="#6e39b7"/>
            <rect id="Rectángulo_1025" data-name="Rectángulo 1025" width="1.571" height="1.178" transform="matrix(0.866, -0.5, 0.5, 0.866, 0, 0.785)" fill="#6e39b7"/>
          </g>
        </g>
      </g>
      <g id="Grupo_22369" data-name="Grupo 22369" transform="translate(105.492 1261.181)">
        <g id="Grupo_22366" data-name="Grupo 22366" transform="translate(14.896 13.686)">
          <g id="Grupo_22365" data-name="Grupo 22365">
            <path id="Trazado_40084" data-name="Trazado 40084" d="M246.761,1369.005c-.172,0-.344-.005-.5-.018a7.357,7.357,0,0,1-2.55-.878l-4.573-.931.078-.385,4.6.937a.189.189,0,0,1,.059.022,7.172,7.172,0,0,0,2.416.843,11.282,11.282,0,0,0,1.5-.029,5.243,5.243,0,0,0,.671-.179.505.505,0,0,0,.328-.358l-.024-.012a.2.2,0,0,1,.068-.378c.067,0,.13,0,.184,0a.3.3,0,0,0,.142-.155.09.09,0,0,0-.033-.018.23.23,0,0,1-.152-.15.2.2,0,0,1,.041-.192.543.543,0,0,0,.115-.28c-.008-.035-.046-.058-.13-.064a.2.2,0,0,1-.149-.3.21.21,0,0,0,.035-.072,2.251,2.251,0,0,0-.428-.182l-.59-.163a.2.2,0,0,1-.141-.222.2.2,0,0,1,.206-.163,1.354,1.354,0,0,0,.416-.013.246.246,0,0,0,.058-.027,4.1,4.1,0,0,0-1.773-.464c-.415.01-1.255.113-1.408.131l-1.118.439a.2.2,0,0,1-.123.007l-4.321-1.168.1-.379,4.259,1.151,1.08-.424a.2.2,0,0,1,.047-.012c.04-.005,1-.126,1.471-.138a4.69,4.69,0,0,1,2.029.538.316.316,0,0,1,.193.311.419.419,0,0,1-.137.267c.2.074.475.206.547.4a.336.336,0,0,1,.018.161.444.444,0,0,1,.169.134.409.409,0,0,1,.073.334,1.275,1.275,0,0,1-.085.284.388.388,0,0,1,.113.361.667.667,0,0,1-.358.43.292.292,0,0,1,0,.041.88.88,0,0,1-.575.717,5.661,5.661,0,0,1-.766.2C247.813,1368.959,247.283,1369.005,246.761,1369.005Z" transform="translate(-238.679 -1363.718)" fill="#6e39b7"/>
            <path id="Trazado_40085" data-name="Trazado 40085" d="M246.045,1368.652c-.185,0-.368-.006-.532-.02a7.638,7.638,0,0,1-2.653-.9l-4.9-1,.234-1.154,4.988,1.016a.584.584,0,0,1,.174.066,6.771,6.771,0,0,0,2.255.793,10.686,10.686,0,0,0,1.415-.027,5.441,5.441,0,0,0,.55-.142.589.589,0,0,1,.293-.726.6.6,0,0,1,.042-.288.582.582,0,0,1-.133-.177.589.589,0,0,1-.059-.218c-.027-.01-.055-.019-.082-.027l-.582-.161a.588.588,0,0,1-.423-.666.594.594,0,0,1,.029-.109,2.511,2.511,0,0,0-.722-.1c-.375.01-1.124.1-1.323.123l-1.072.421a.593.593,0,0,1-.363.022l-4.706-1.271.307-1.138,4.513,1.219.96-.376a.607.607,0,0,1,.144-.037s1-.128,1.508-.141a5.124,5.124,0,0,1,2.207.576.7.7,0,0,1,.417.692.545.545,0,0,1-.006.057.921.921,0,0,1,.392.439.643.643,0,0,1,.026.081.827.827,0,0,1,.107.115.8.8,0,0,1,.145.651c-.008.04-.019.091-.034.149a.782.782,0,0,1,.062.5,1.038,1.038,0,0,1-.381.589,1.277,1.277,0,0,1-.787.884,5.675,5.675,0,0,1-.838.226C247.123,1368.606,246.585,1368.652,246.045,1368.652Z" transform="translate(-237.963 -1362.973)" fill="#6e39b7"/>
          </g>
        </g>
        <g id="Grupo_22368" data-name="Grupo 22368" transform="translate(0 0)">
          <g id="Grupo_22367" data-name="Grupo 22367">
            <path id="Trazado_40086" data-name="Trazado 40086" d="M215.514,1346.272c-1.408,0-7.593-2.279-8.734-3.476-1.166-1.224-3.592-3.773-5.685-12.188-.238-.959.213-1.293.5-1.407,1.314-.516,4.64,1.383,6,3.844.315.568.718,1.425,1.145,2.332a30.227,30.227,0,0,0,2.075,3.962,8.071,8.071,0,0,0,3.218,1.906,7.654,7.654,0,0,1,2.463,1.343,2.877,2.877,0,0,1,.155,2.14c-.107.469-.37,1.289-.934,1.517A.586.586,0,0,1,215.514,1346.272Zm-14.038-15.759c2.068,8.314,4.446,10.812,5.589,12.012,1.242,1.3,7.97,3.517,8.514,3.353a1.775,1.775,0,0,0,.7-1.239,2.64,2.64,0,0,0-.062-1.788,7.52,7.52,0,0,0-2.324-1.245,8.286,8.286,0,0,1-3.384-2.036,30.419,30.419,0,0,1-2.113-4.027c-.424-.9-.825-1.752-1.133-2.309-1.343-2.424-4.466-4.082-5.515-3.668C201.629,1329.61,201.285,1329.745,201.477,1330.513Z" transform="translate(-200.636 -1328.725)" fill="#6e39b7"/>
            <path id="Trazado_40087" data-name="Trazado 40087" d="M214.908,1346.062c-1.467,0-7.755-2.271-9.018-3.6-1.189-1.249-3.664-3.847-5.782-12.364-.331-1.332.483-1.766.74-1.868,1.6-.628,5.122,1.549,6.49,4.019.32.578.725,1.438,1.153,2.348a30.276,30.276,0,0,0,2.039,3.9,7.894,7.894,0,0,0,3.052,1.776,7.822,7.822,0,0,1,2.6,1.441,3.241,3.241,0,0,1,.247,2.492,2.425,2.425,0,0,1-1.17,1.794A.939.939,0,0,1,214.908,1346.062Zm-13.367-16.775a.715.715,0,0,0-.261.041c-.119.047-.069.325-.029.487h0c2.043,8.215,4.373,10.661,5.492,11.836,1.162,1.22,7.356,3.227,8.128,3.241a1.976,1.976,0,0,0,.414-.942,2.778,2.778,0,0,0,.02-1.45,7.744,7.744,0,0,0-2.175-1.134,8.511,8.511,0,0,1-3.55-2.166,30.512,30.512,0,0,1-2.152-4.092c-.421-.893-.818-1.738-1.122-2.286C205.137,1330.707,202.585,1329.287,201.541,1329.287Zm13.358,15.6Z" transform="translate(-200.03 -1328.123)" fill="#6e39b7"/>
          </g>
        </g>
      </g>
      <g id="Grupo_22371" data-name="Grupo 22371" transform="translate(151.398 1401.114)">
        <g id="Grupo_22370" data-name="Grupo 22370" transform="translate(0 0)">
          <rect id="Rectángulo_1026" data-name="Rectángulo 1026" width="0.393" height="32.436" transform="matrix(0.968, -0.252, 0.252, 0.968, 0.479, 0.578)" fill="#6e39b7"/>
          <rect id="Rectángulo_1027" data-name="Rectángulo 1027" width="1.178" height="33.221" transform="matrix(0.968, -0.252, 0.252, 0.968, 0, 0.297)" fill="#6e39b7"/>
        </g>
      </g>
      <g id="Grupo_22373" data-name="Grupo 22373" transform="translate(104.78 1428.022)">
        <g id="Grupo_22372" data-name="Grupo 22372">
          <path id="Trazado_40088" data-name="Trazado 40088" d="M269.5,1796.5h-.393v-2.592l-69.1-39.56a.2.2,0,0,1,.114-.366l59.318,4.8a.2.2,0,0,1,.173.143l.936,3.3,55.378,5.1a.2.2,0,0,1,.079.366L269.5,1793.912Zm-8.834-33.871,8.759,30.872,45.842-25.844Zm-59.7-8.185,68.014,38.94-9.709-34.221Z" transform="translate(-199.247 -1753.592)" fill="#6e39b7"/>
          <path id="Trazado_40089" data-name="Trazado 40089" d="M268.865,1796.289h-1.178v-2.757l-68.9-39.446a.587.587,0,0,1-.287-.617l-.282-.161.323.026a.594.594,0,0,1,.589-.346l59.315,4.8a.591.591,0,0,1,.519.426l.862,3.039,55.11,5.074a.586.586,0,0,1,.517.442l.073.007-.064.036a.585.585,0,0,1-.291.615l-46.308,26.106Zm-8.693-33.82,8.466,29.841,44.312-24.981Zm-58.509-8.1,65.652,37.588-9.372-33.032Z" transform="translate(-198.219 -1752.985)" fill="#6e39b7"/>
        </g>
      </g>
      <g id="Grupo_22375" data-name="Grupo 22375" transform="translate(70.568 1408.226)">
        <g id="Grupo_22374" data-name="Grupo 22374">
          <path id="Trazado_40090" data-name="Trazado 40090" d="M113.252,1719.162l-1.067-3.13a.183.183,0,0,1-.011-.058l-.079-2.88a.2.2,0,0,1,.1-.175l15.373-8.976.2.339-15.273,8.917.075,2.734,1.057,3.1Z" transform="translate(-111.703 -1703.406)" fill="#6e39b7"/>
          <path id="Trazado_40091" data-name="Trazado 40091" d="M112.4,1718.829l-1.193-3.5a.573.573,0,0,1-.031-.173l-.079-2.881a.588.588,0,0,1,.293-.525l15.712-9.174.594,1.017-15.411,9,.067,2.443,1.164,3.417Z" transform="translate(-111.095 -1702.575)" fill="#6e39b7"/>
        </g>
      </g>
      <g id="Grupo_22377" data-name="Grupo 22377" transform="translate(70.697 1417.277)">
        <g id="Grupo_22376" data-name="Grupo 22376" transform="translate(0 0)">
          <rect id="Rectángulo_1028" data-name="Rectángulo 1028" width="0.393" height="39.087" transform="translate(0.436 0.826) rotate(-83.186)" fill="#6e39b7"/>
          <path id="Trazado_40092" data-name="Trazado 40092" d="M151.016,1731.525l-.39-.046-39.2-4.684.14-1.17,39.59,4.73Z" transform="translate(-111.425 -1725.625)" fill="#6e39b7"/>
        </g>
      </g>
      <g id="Grupo_22378" data-name="Grupo 22378" transform="translate(50.9 1418.881)">
        <path id="Trazado_40093" data-name="Trazado 40093" d="M118.979,1780.235a.192.192,0,0,1-.1-.026L61.11,1747.18a.2.2,0,0,1,0-.34l29.623-17.13.2.34L61.6,1747.008l57.377,32.8,29.64-17.14.2.34-29.738,17.2A.2.2,0,0,1,118.979,1780.235Z" transform="translate(-61.011 -1729.709)" fill="#6e39b7"/>
      </g>
      <g id="Grupo_22380" data-name="Grupo 22380" transform="translate(126.142 1449.207)">
        <g id="Grupo_22379" data-name="Grupo 22379">
          <path id="Trazado_40094" data-name="Trazado 40094" d="M267.676,1819.2h-.022l-13.933-1.55.043-.391,13.716,1.526.019-2.645-2.716-7.808.371-.129,2.727,7.84a.188.188,0,0,1,.011.066l-.021,2.9a.2.2,0,0,1-.2.195Z" transform="translate(-253.288 -1807.708)" fill="#6e39b7"/>
          <path id="Trazado_40095" data-name="Trazado 40095" d="M267.005,1818.825l-.063,0-14.325-1.594.13-1.171,13.674,1.521.015-2.142-2.822-8.114,1.113-.387,2.856,8.211a.573.573,0,0,1,.033.2l-.021,2.9a.589.589,0,0,1-.589.586Z" transform="translate(-252.617 -1806.935)" fill="#6e39b7"/>
        </g>
      </g>
      <g id="Grupo_22382" data-name="Grupo 22382" transform="translate(139.898 1455.276)">
        <g id="Grupo_22381" data-name="Grupo 22381" transform="translate(0 0)">
          <rect id="Rectángulo_1029" data-name="Rectángulo 1029" width="9.178" height="0.393" transform="matrix(0.87, -0.493, 0.493, 0.87, 0.536, 5.06)" fill="#6e39b7"/>
          <rect id="Rectángulo_1030" data-name="Rectángulo 1030" width="9.963" height="1.178" transform="translate(0 4.912) rotate(-29.536)" fill="#6e39b7"/>
        </g>
      </g>
      <g id="Grupo_22384" data-name="Grupo 22384" transform="translate(139.916 1453.77)">
        <g id="Grupo_22383" data-name="Grupo 22383" transform="translate(0 0)">
          <rect id="Rectángulo_1031" data-name="Rectángulo 1031" width="6.224" height="0.393" transform="matrix(0.864, -0.504, 0.504, 0.864, 0.537, 3.672)" fill="#6e39b7"/>
          <rect id="Rectángulo_1032" data-name="Rectángulo 1032" width="7.009" height="1.178" transform="translate(0 3.531) rotate(-30.246)" fill="#6e39b7"/>
        </g>
      </g>
      <g id="Grupo_22386" data-name="Grupo 22386" transform="translate(122.959 1238.411)">
        <g id="Grupo_22385" data-name="Grupo 22385" transform="translate(0 0)">
          <path id="Trazado_40096" data-name="Trazado 40096" d="M246.078,1275.621l-.2-.339,4.5-2.644a.2.2,0,0,1,.062-.023l6.63-1.3.076.385-6.6,1.3Z" transform="translate(-245.341 -1270.852)" fill="#6e39b7"/>
          <path id="Trazado_40097" data-name="Trazado 40097" d="M245.106,1275.445l-.6-1.016,4.843-2.842a.581.581,0,0,1,.185-.07l7.015-1.378.227,1.156-6.917,1.358Z" transform="translate(-244.51 -1270.139)" fill="#6e39b7"/>
        </g>
      </g>
      <g id="Grupo_22388" data-name="Grupo 22388" transform="translate(162.232 1226.651)">
        <g id="Grupo_22387" data-name="Grupo 22387" transform="translate(0 0)">
          <path id="Trazado_40098" data-name="Trazado 40098" d="M409.989,1285.05,377.835,1241.6l-32.067,6.3-.075-.385,32.189-6.324a.2.2,0,0,1,.2.076l32.228,43.545Z" transform="translate(-345.232 -1240.799)" fill="#6e39b7"/>
          <path id="Trazado_40099" data-name="Trazado 40099" d="M409.194,1284.992l-32.24-43.561-32.209,6.328-.227-1.156.385-.076,32.189-6.324a.592.592,0,0,1,.588.229l32.46,43.86Z" transform="translate(-344.519 -1240.192)" fill="#6e39b7"/>
        </g>
      </g>
      <g id="Grupo_22390" data-name="Grupo 22390" transform="translate(246.975 1297.866)">
        <g id="Grupo_22389" data-name="Grupo 22389" transform="translate(0 0)">
          <path id="Trazado_40100" data-name="Trazado 40100" d="M571.526,1444.861l-.2-.339,4.316-2.533-13.926-18.816.316-.234,14.055,18.991a.2.2,0,0,1-.059.286Z" transform="translate(-561.169 -1422.391)" fill="#6e39b7"/>
          <path id="Trazado_40101" data-name="Trazado 40101" d="M570.537,1444.549l-.6-1.016,4.278-2.511-13.9-18.78.947-.7,14.289,19.307a.588.588,0,0,1-.177.859Z" transform="translate(-560.319 -1421.542)" fill="#6e39b7"/>
        </g>
      </g>
      <g id="Grupo_22392" data-name="Grupo 22392" transform="translate(122.961 1345.714)">
        <g id="Grupo_22391" data-name="Grupo 22391" transform="translate(0 0)">
          <rect id="Rectángulo_1033" data-name="Rectángulo 1033" width="0.393" height="151.992" transform="translate(0.536 0.877) rotate(-60)" fill="#6e39b7"/>
          <rect id="Rectángulo_1034" data-name="Rectángulo 1034" width="1.178" height="152.777" transform="translate(0 1.02) rotate(-60)" fill="#6e39b7"/>
        </g>
      </g>
      <g id="Grupo_22394" data-name="Grupo 22394" transform="translate(261.149 1317.13)">
        <g id="Grupo_22393" data-name="Grupo 22393" transform="translate(0 0)">
          <rect id="Rectángulo_1035" data-name="Rectángulo 1035" width="0.393" height="20.454" transform="translate(0.393 0.393)" fill="#6e39b7"/>
          <rect id="Rectángulo_1036" data-name="Rectángulo 1036" width="1.178" height="21.239" fill="#6e39b7"/>
        </g>
      </g>
      <g id="Grupo_22397" data-name="Grupo 22397" transform="translate(134.227 1217.895)">
        <g id="Grupo_22396" data-name="Grupo 22396" transform="translate(0 0)">
          <g id="Grupo_22395" data-name="Grupo 22395">
            <path id="Trazado_40102" data-name="Trazado 40102" d="M371.494,1325.949l-.073-.386,15.651-2.984V1283.4l-111.02-64.1-1.453.5v38.974h-.393v-39.131a.2.2,0,0,1,.211-.2l1.591-.546a.194.194,0,0,1,.162.016l111.2,64.2a.2.2,0,0,1,.1.17v39.45a.2.2,0,0,1-.159.193Z" transform="translate(-273.813 -1218.502)" fill="#6e39b7"/>
            <path id="Trazado_40103" data-name="Trazado 40103" d="M370.574,1325.8l-.221-1.158,15.718-3v-38.623L275.4,1219.129l-1.018.349v39.086h-1.178v-39.524a.59.59,0,0,1,.532-.587l1.535-.527a.586.586,0,0,1,.486.047l111.2,64.2a.59.59,0,0,1,.295.51v39.45a.589.589,0,0,1-.479.578Z" transform="translate(-273.206 -1217.895)" fill="#6e39b7"/>
          </g>
        </g>
      </g>
      <g id="Grupo_22399" data-name="Grupo 22399" transform="translate(123.007 1278.292)">
        <g id="Grupo_22398" data-name="Grupo 22398" transform="translate(0 0)">
          <path id="Trazado_40104" data-name="Trazado 40104" d="M377.042,1514.643l-64.478-87.122-66.7,13.1a.2.2,0,0,1-.234-.193V1372.7h.393v67.5l66.585-13.081a.2.2,0,0,1,.2.076l64.552,87.221Z" transform="translate(-245.239 -1372.303)" fill="#6e39b7"/>
          <path id="Trazado_40105" data-name="Trazado 40105" d="M376.353,1514.584l-64.564-87.237L245.335,1440.4a.58.58,0,0,1-.487-.123.587.587,0,0,1-.216-.456V1371.7h1.178v67.413l66.117-12.989a.591.591,0,0,1,.587.229l64.785,87.536Z" transform="translate(-244.632 -1371.696)" fill="#6e39b7"/>
        </g>
      </g>
      <g id="Grupo_22401" data-name="Grupo 22401" transform="translate(123.007 1242.415)">
        <g id="Grupo_22400" data-name="Grupo 22400">
          <path id="Trazado_40106" data-name="Trazado 40106" d="M379.662,1376.677h-.393v-17.734l-66.584,13.081a.2.2,0,0,1-.2-.076l-66.465-89.8v32.515h-.393v-33.11a.2.2,0,0,1,.354-.117l66.745,90.182,66.7-13.1a.2.2,0,0,1,.234.192Z" transform="translate(-245.239 -1280.953)" fill="#6e39b7"/>
          <path id="Trazado_40107" data-name="Trazado 40107" d="M379.448,1376.453H378.27V1358.8l-66.116,12.989a.589.589,0,0,1-.587-.228l-65.757-88.847v31.717h-1.178v-33.5a.59.59,0,0,1,.393-.556v-.04l.024.032a.591.591,0,0,1,.646.212l66.6,89.983,66.453-13.055a.59.59,0,0,1,.7.578Z" transform="translate(-244.632 -1280.336)" fill="#6e39b7"/>
        </g>
      </g>
      <g id="Grupo_22403" data-name="Grupo 22403" transform="translate(127.511 1239.975)">
        <g id="Grupo_22402" data-name="Grupo 22402">
          <rect id="Rectángulo_1037" data-name="Rectángulo 1037" width="0.393" height="8.411" transform="translate(0.393 0.393)" fill="#6e39b7"/>
          <rect id="Rectángulo_1038" data-name="Rectángulo 1038" width="1.178" height="9.196" fill="#6e39b7"/>
        </g>
      </g>
      <g id="Grupo_22404" data-name="Grupo 22404" transform="translate(71.149 1418.301)">
        <rect id="Rectángulo_1039" data-name="Rectángulo 1039" width="5.224" height="0.393" transform="translate(0 2.312) rotate(-26.265)" fill="#6e39b7"/>
      </g>
      <g id="Grupo_22445" data-name="Grupo 22445" transform="translate(240.192 1336.907)">
        <g id="Grupo_22406" data-name="Grupo 22406" transform="translate(22.091 95.539)">
          <g id="Grupo_22405" data-name="Grupo 22405">
            <path id="Trazado_40108" data-name="Trazado 40108" d="M606.91,1766.852c-.71.68-3.135.689-3.244-.41-.013-.135-.033-.362-.057-.658a3.765,3.765,0,0,1-1.025-.365c-.568-.321-1.913-.172-2.208.409a.2.2,0,0,0-.007.027.982.982,0,0,0-.015.695,6.931,6.931,0,0,0,2.9,2.521,5.935,5.935,0,0,0,1.126.324v.439s.415.551.622.629a5.82,5.82,0,0,0,2.037-.28s.031.049.066-.757A6.489,6.489,0,0,0,606.91,1766.852Z" transform="translate(-599.907 -1764.86)" fill="#6e39b7"/>
            <path id="Trazado_40109" data-name="Trazado 40109" d="M604.7,1770.284a1.329,1.329,0,0,1-.445-.062,2.417,2.417,0,0,1-.8-.761l-.079-.1v-.254a4.038,4.038,0,0,1-.935-.3c-1.93-1.151-2.536-1.8-3.036-2.662a1.376,1.376,0,0,1-.022-1.014l.036-.086a1.445,1.445,0,0,1,.917-.665,2.558,2.558,0,0,1,1.832.1,3.376,3.376,0,0,0,.917.324l.283.063.023.289c.024.292.043.518.056.651.016.166.161.3.429.4a2.6,2.6,0,0,0,2.153-.234l.448-.429.2.589a6.814,6.814,0,0,1,.211,2.743c-.034.809-.043,1.008-.353,1.091l-.046.012A7.7,7.7,0,0,1,604.7,1770.284Zm-.538-1.193a2.348,2.348,0,0,0,.384.4,4.837,4.837,0,0,0,1.531-.229c.007-.1.016-.248.026-.464a6.848,6.848,0,0,0-.048-1.943,3.654,3.654,0,0,1-2.45.073,1.288,1.288,0,0,1-.938-1.058c-.009-.09-.02-.22-.034-.384a3.756,3.756,0,0,1-.849-.337,1.83,1.83,0,0,0-1.219-.028.827.827,0,0,0-.432.249l-.044.135a.859.859,0,0,0,.008.258c.421.724.966,1.3,2.748,2.36a5.38,5.38,0,0,0,1,.276l.316.063Zm-4.06-3.666Z" transform="translate(-599.302 -1764.251)" fill="#6e39b7"/>
          </g>
        </g>
        <g id="Grupo_22408" data-name="Grupo 22408" transform="translate(12.51 101.788)">
          <g id="Grupo_22407" data-name="Grupo 22407">
            <path id="Trazado_40110" data-name="Trazado 40110" d="M583.571,1782.272a1.49,1.49,0,0,0-.632-.664,1.109,1.109,0,0,1-.381.757,3.123,3.123,0,0,1-1.105.2c-.459,0-1.082-.078-1.171-.952,0-.014,0-.047,0-.089a2.291,2.291,0,0,1-.26-.1,8.044,8.044,0,0,1-1.425-.166,2.318,2.318,0,0,0-2.354.576c-.105.068-.2.133-.275.177a.98.98,0,0,0-.009.672,4.957,4.957,0,0,0,3.588,1.9c.281.045,1.149.207,1.149.207v.336s.723.413.924.488c.457.17,2.192-.875,2.192-.875s.03.047.064-.735A4.407,4.407,0,0,0,583.571,1782.272Z" transform="translate(-575.508 -1780.771)" fill="#6e39b7"/>
            <path id="Trazado_40111" data-name="Trazado 40111" d="M581.12,1785.4a.7.7,0,0,1-.246-.039c-.22-.082-.857-.444-.982-.515l-.2-.113v-.237c-.275-.05-.651-.119-.819-.145a5.4,5.4,0,0,1-3.866-2.088c-.149-.258-.176-1.008.144-1.2.048-.03.114-.072.185-.119l.022-.014a2.746,2.746,0,0,1,2.718-.666,7.582,7.582,0,0,0,1.351.156l.079,0,.071.034a2,2,0,0,0,.216.087l.262.087.008.34c.046.447.234.593.775.593h.005a2.887,2.887,0,0,0,.918-.148,1.013,1.013,0,0,0,.184-.49l.113-.56.483.307a1.8,1.8,0,0,1,.792.869h0a4.861,4.861,0,0,1,.322,1.875c-.033.755-.043.975-.3,1.069A5.668,5.668,0,0,1,581.12,1785.4Zm-.641-1.124c.29.162.582.317.668.349a5.716,5.716,0,0,0,1.7-.751c.008-.1.018-.252.029-.508a4.1,4.1,0,0,0-.281-1.576h0a.437.437,0,0,0-.067-.118.952.952,0,0,1-.387.429,3.442,3.442,0,0,1-1.292.244h-.005a1.352,1.352,0,0,1-1.536-1.15,8.087,8.087,0,0,1-1.411-.173,1.98,1.98,0,0,0-1.941.419l-.044.062-.144.094-.075.049a.824.824,0,0,0,.008.245,4.685,4.685,0,0,0,3.3,1.684c.283.045,1.159.208,1.159.208l.321.06Zm-4.911-2.551,0,0Z" transform="translate(-574.902 -1780.165)" fill="#6e39b7"/>
          </g>
        </g>
        <g id="Grupo_22409" data-name="Grupo 22409" transform="translate(8.5 94.528)">
          <path id="Trazado_40112" data-name="Trazado 40112" d="M585.689,1763.531c-.07.3-.143.6-.223.878a.622.622,0,0,1-.179.271,6.417,6.417,0,0,1,.191,2.574c-.032.806-.063.757-.063.757a5.828,5.828,0,0,1-2.037.28c-.207-.077-.622-.629-.622-.629v-.439a5.935,5.935,0,0,1-1.126-.324,6.929,6.929,0,0,1-2.9-2.521,1.01,1.01,0,0,1,.009-.693.125.125,0,0,0,.012-.03c.3-.582,1.64-.73,2.208-.409a3.766,3.766,0,0,0,1.025.365c-.031-.375-.07-.864-.118-1.444a20.534,20.534,0,0,0-4.463-.492c-.231,2.433-.462,4.916-.514,7.255-.006.272-.3.506-.727.671-.009.058-.02.115-.031.172a1.489,1.489,0,0,1,.632.664,4.271,4.271,0,0,1,.3,1.719c-.029.782-.06.735-.06.735s-1.735,1.045-2.192.875c-.2-.075-.924-.488-.924-.488v-.336s-.869-.161-1.149-.206a4.958,4.958,0,0,1-3.589-1.9.98.98,0,0,1,.009-.672c.07-.044.17-.109.275-.177a2.319,2.319,0,0,1,2.354-.576,8.053,8.053,0,0,0,1.425.166,1.219,1.219,0,0,1-.783-1.049c.01-.993-.084-3.374-.271-6.2-4.4,1.172-7.465,3.786-7.465,6.824,0,4.133,5.667,7.483,12.657,7.483s12.657-3.35,12.657-7.483C590.006,1766.914,588.334,1764.9,585.689,1763.531Z" transform="translate(-564.693 -1761.676)" fill="#ebf0f6"/>
        </g>
        <g id="Grupo_22411" data-name="Grupo 22411" transform="translate(21.727 12.286)">
          <g id="Grupo_22410" data-name="Grupo 22410" transform="translate(0 0)">
            <rect id="Rectángulo_1040" data-name="Rectángulo 1040" width="0.393" height="1.226" transform="translate(0.48 0.581) rotate(-14.856)" fill="#6e39b7"/>
            <rect id="Rectángulo_1041" data-name="Rectángulo 1041" width="1.178" height="2.012" transform="translate(0 0.302) rotate(-14.855)" fill="#6e39b7"/>
          </g>
        </g>
        <g id="Grupo_22413" data-name="Grupo 22413" transform="translate(16.683 102.015)">
          <g id="Grupo_22412" data-name="Grupo 22412">
            <path id="Trazado_40113" data-name="Trazado 40113" d="M587.9,1783.2a1.192,1.192,0,0,1-1.352-1.128c0-.022,0-.073-.005-.146l.393-.005c0,.057,0,.1,0,.114.066.642.424.784.976.774a2.973,2.973,0,0,0,1.011-.172c.047-.026.208-.155.306-.743l.388.065c-.092.553-.258.888-.506,1.023a3.265,3.265,0,0,1-1.2.219Z" transform="translate(-586.148 -1781.441)" fill="#6e39b7"/>
            <path id="Trazado_40114" data-name="Trazado 40114" d="M587.3,1782.894h-.016a1.558,1.558,0,0,1-1.743-1.481c0-.031-.006-.092-.007-.18l-.006-.393,1.179-.017.005.393c0,.043,0,.074,0,.09.034.328.111.422.578.41a3.171,3.171,0,0,0,.8-.112,1.454,1.454,0,0,0,.138-.474l.064-.387,1.162.193-.064.388a1.658,1.658,0,0,1-.706,1.3A3.57,3.57,0,0,1,587.3,1782.894Z" transform="translate(-585.531 -1780.743)" fill="#6e39b7"/>
          </g>
        </g>
        <g id="Grupo_22415" data-name="Grupo 22415" transform="translate(12.948 3.828)">
          <g id="Grupo_22414" data-name="Grupo 22414">
            <path id="Trazado_40115" data-name="Trazado 40115" d="M579.819,1541.5c-1.307,0-2.062-.541-2.608-2.972a51.77,51.77,0,0,1-.186-5.84c-.044-.288.034-.773.979-.939,1.887-.33,6.178.834,6.434,2.295a20.368,20.368,0,0,1,.227,4.168c-.24,1.859-1.456,2.933-3.614,3.191A10.691,10.691,0,0,1,579.819,1541.5Zm-1.03-9.419a4.192,4.192,0,0,0-.717.055c-.479.084-.7.254-.657.5a.182.182,0,0,1,0,.036,54.161,54.161,0,0,0,.176,5.766c.651,2.9,1.459,2.8,3.409,2.571,1.985-.238,3.055-1.171,3.271-2.852a20.408,20.408,0,0,0-.225-4.054C583.873,1533.1,580.774,1532.084,578.79,1532.084Z" transform="translate(-576.625 -1531.308)" fill="#6e39b7"/>
            <path id="Trazado_40116" data-name="Trazado 40116" d="M579.214,1541.3c-1.644,0-2.455-.889-2.991-3.279a50.04,50.04,0,0,1-.2-5.9c-.035-.3-.005-1.12,1.3-1.35,1.91-.331,6.571.809,6.889,2.615a20.812,20.812,0,0,1,.229,4.286c-.262,2.031-1.63,3.252-3.957,3.531A10.939,10.939,0,0,1,579.214,1541.3Zm-2.01-9.271,0,.06a50.34,50.34,0,0,0,.167,5.674c.574,2.555,1.083,2.494,2.98,2.266,1.805-.216,2.736-1.014,2.929-2.511a19.219,19.219,0,0,0-.224-3.945c-.114-.647-2.8-1.693-4.873-1.693a3.77,3.77,0,0,0-.649.05A1.058,1.058,0,0,0,577.2,1532.026Z" transform="translate(-576.019 -1530.708)" fill="#6e39b7"/>
          </g>
        </g>
        <g id="Grupo_22417" data-name="Grupo 22417" transform="translate(9.923 45.487)">
          <g id="Grupo_22416" data-name="Grupo 22416">
            <path id="Trazado_40117" data-name="Trazado 40117" d="M577.455,1694.878c-1.143,0-2.354-.395-2.416-1.51.024-2.432-.661-15.006-1.9-19.6l-.068-.25c-1.56-5.772-4.171-15.433-3.7-23.385.064-1.079.221-4.04.351-6.525l.392.021c-.13,2.485-.287,5.448-.352,6.528-.468,7.887,2.132,17.509,3.686,23.258l.068.25c1.25,4.626,1.94,17.264,1.916,19.694.047.852,1.12,1.137,2.1,1.125,1.1-.018,1.961-.409,1.969-.732.053-2.421.3-5,.536-7.5a68.526,68.526,0,0,0,.483-8.64c-.014-.348-.081-1.094-.158-1.959-.125-1.391-.265-2.968-.245-3.54a94.058,94.058,0,0,0-.11-10.062.2.2,0,0,1,.387-.06c.026.116,2.614,11.593,2.925,12.937a110.241,110.241,0,0,1,1.636,13.1c.04.5.07.858.088,1.048.055.55.9.669,1.16.692.874.079,1.769-.2,1.879-.587a41.445,41.445,0,0,0,1.049-11.239c-.074-1.431-.345-4.748-.51-6.056-.106-.836-.234-1.74-.37-2.7a95.407,95.407,0,0,1-1.141-12.079,88.653,88.653,0,0,1,.59-9.567c.172-1.74.321-3.244.321-4.115a51.185,51.185,0,0,0-.315-5.489l.39-.042a51.572,51.572,0,0,1,.317,5.531c0,.891-.15,2.4-.323,4.154a88.337,88.337,0,0,0-.588,9.522,95.062,95.062,0,0,0,1.137,12.03c.136.964.264,1.87.37,2.708.166,1.314.439,4.648.513,6.085a41.875,41.875,0,0,1-1.064,11.367c-.189.657-1.315.958-2.292.87-.891-.081-1.458-.471-1.515-1.044-.019-.191-.049-.557-.089-1.055a109.916,109.916,0,0,0-1.627-13.043c-.225-.972-1.638-7.232-2.415-10.676.064,1.772.108,4.47-.013,7.786-.02.547.126,2.179.244,3.491.078.869.144,1.62.159,1.978a68.693,68.693,0,0,1-.485,8.693c-.237,2.491-.482,5.067-.534,7.473-.015.7-1.225,1.1-2.355,1.117Z" transform="translate(-568.922 -1637.461)" fill="#6e39b7"/>
            <path id="Trazado_40118" data-name="Trazado 40118" d="M576.848,1694.6c-1.667,0-2.744-.721-2.808-1.881.024-2.438-.658-14.962-1.889-19.52l-.068-.25c-1.566-5.8-4.188-15.494-3.711-23.51.064-1.079.221-4.038.351-6.523l.02-.392,1.176.063-.02.392c-.13,2.486-.288,5.45-.352,6.53-.465,7.823,2.125,17.406,3.672,23.132l.068.251c1.259,4.66,1.954,17.36,1.929,19.8.031.545.935.744,1.7.729a2.791,2.791,0,0,0,1.582-.406c.056-2.417.3-4.984.536-7.468a68.362,68.362,0,0,0,.482-8.592c-.014-.336-.079-1.071-.155-1.922-.127-1.419-.269-3.008-.247-3.606a94.579,94.579,0,0,0-.109-10.015.589.589,0,0,1,1.161-.179c.025.11,2.617,11.605,2.925,12.935a110.446,110.446,0,0,1,1.644,13.157c.041.5.069.855.088,1.041.015.151.368.3.8.34a2.037,2.037,0,0,0,1.471-.315,41.024,41.024,0,0,0,1.03-11.1c-.074-1.424-.344-4.727-.508-6.027-.106-.835-.233-1.737-.369-2.7a95.729,95.729,0,0,1-1.145-12.128,88.961,88.961,0,0,1,.593-9.611c.171-1.729.319-3.224.319-4.076a50.81,50.81,0,0,0-.313-5.447l-.042-.39,1.171-.125.042.39a51.926,51.926,0,0,1,.32,5.572c0,.91-.15,2.43-.324,4.19a88.088,88.088,0,0,0-.587,9.48,94.7,94.7,0,0,0,1.134,11.981l.006.04c.134.951.26,1.845.365,2.674.167,1.319.441,4.669.516,6.113a42.331,42.331,0,0,1-1.079,11.5c-.257.894-1.555,1.255-2.7,1.152-1.094-.1-1.793-.621-1.87-1.4-.019-.193-.049-.561-.09-1.062a109.587,109.587,0,0,0-1.618-12.987c-.158-.683-.907-4-1.577-6.961,0,1.191-.022,2.534-.075,4-.019.521.132,2.205.242,3.435.079.88.146,1.634.161,2a68.941,68.941,0,0,1-.486,8.746c-.236,2.488-.48,5.054-.533,7.443-.022,1-1.436,1.479-2.741,1.5Z" transform="translate(-568.315 -1636.793)" fill="#6e39b7"/>
          </g>
        </g>
        <g id="Grupo_22419" data-name="Grupo 22419" transform="translate(9.891 12.459)">
          <g id="Grupo_22418" data-name="Grupo 22418">
            <path id="Trazado_40119" data-name="Trazado 40119" d="M575.731,1592.472a8.854,8.854,0,0,1-4.729-1.219l.214-.329a8.734,8.734,0,0,0,5.021,1.144c5.313-.242,9.166-1.764,11.143-4.4a3.651,3.651,0,0,0,.6-3.233c-.033-.181-.063-.349-.082-.506-.047-.406-.093-.777-.135-1.122-.435-3.563-.538-4.41.776-11.957.045-.259.112-.6.193-1,.721-3.643,2.409-12.174-1.2-15.111-1.547-1.258-3.577-.5-5.387.213a3.291,3.291,0,0,1-.5,2.775c-.746.891-2.126,1.219-4.1.972a1.58,1.58,0,0,1-1.144-.612,1.725,1.725,0,0,1-.3-.983,27.688,27.688,0,0,0-6.04,4.622c-.042.042-.081.084-.117.128l-.3-.252c.044-.052.091-.1.141-.154a27.671,27.671,0,0,1,6.448-4.858.2.2,0,0,1,.283.212,1.528,1.528,0,0,0,.205,1.056,1.209,1.209,0,0,0,.873.451c1.833.228,3.1-.052,3.751-.834a3.068,3.068,0,0,0,.379-2.584.2.2,0,0,1,.115-.241l.04-.016c1.844-.727,4.14-1.631,5.9-.2,3.8,3.086,2.077,11.78,1.342,15.492-.079.4-.146.738-.191,1-1.3,7.489-1.2,8.325-.773,11.842.042.346.088.718.135,1.124.018.149.047.31.078.481a4.034,4.034,0,0,1-.677,3.539c-2.05,2.733-6.005,4.308-11.44,4.556C576.078,1592.469,575.9,1592.472,575.731,1592.472Z" transform="translate(-569.09 -1553.285)" fill="#6e39b7"/>
            <path id="Trazado_40120" data-name="Trazado 40120" d="M574.875,1592.266a9.2,9.2,0,0,1-4.943-1.282l-.329-.214.641-.988.329.214a8.363,8.363,0,0,0,4.789,1.082c5.192-.237,8.943-1.7,10.847-4.243a3.278,3.278,0,0,0,.533-2.927c-.035-.189-.066-.367-.086-.531-.045-.385-.088-.738-.128-1.068l-.007-.053c-.441-3.61-.545-4.467.779-12.071.045-.257.111-.592.19-.991.712-3.6,2.368-11.964-1.063-14.752-1.233-1-2.794-.576-4.693.155a3.5,3.5,0,0,1-.645,2.78c-.838,1-2.334,1.373-4.45,1.109a1.953,1.953,0,0,1-1.413-.772,1.892,1.892,0,0,1-.284-.593,27.936,27.936,0,0,0-5.458,4.28,1.294,1.294,0,0,0-.092.1l-.252.3-.905-.757.252-.3q.077-.093.165-.18a28.05,28.05,0,0,1,6.545-4.929.589.589,0,0,1,.849.635,1.122,1.122,0,0,0,.137.751.836.836,0,0,0,.6.292c1.692.21,2.838-.023,3.4-.7a2.694,2.694,0,0,0,.3-2.218.592.592,0,0,1,.347-.72l.041-.016c1.837-.723,4.354-1.715,6.292-.139,3.98,3.235,2.228,12.091,1.479,15.873-.079.4-.145.732-.189.987-1.294,7.432-1.194,8.256-.77,11.726.042.347.088.72.135,1.127.016.138.044.287.073.445a4.437,4.437,0,0,1-.747,3.856c-2.122,2.83-6.18,4.46-11.736,4.713C575.235,1592.263,575.055,1592.266,574.875,1592.266Z" transform="translate(-568.235 -1552.686)" fill="#6e39b7"/>
          </g>
        </g>
        <g id="Grupo_22421" data-name="Grupo 22421" transform="translate(5.116 19.978)">
          <g id="Grupo_22420" data-name="Grupo 22420">
            <path id="Trazado_40121" data-name="Trazado 40121" d="M560.014,1605.745a.591.591,0,0,1-.422-.177,12.052,12.052,0,0,0-1.149-.948,12.344,12.344,0,0,1-1.19-.984.615.615,0,0,1,0-.867,5.582,5.582,0,0,0,.552-.791,1.024,1.024,0,0,1-.021-.728,74.156,74.156,0,0,0,2.788-10.5,24.811,24.811,0,0,0-.167-6.156c-.346-3.4-.7-6.924.385-9.648.587-1.467,1.609-2.231,2.8-2.094a3.707,3.707,0,0,1,2.924,3.275c.128.828.28,1.705.437,2.618.821,4.752,1.842,10.667.441,15.535-1.188,4.128-1.731,6.011-3.977,8.967-.488.643-1.406,1.715-2.05,1.66a1.109,1.109,0,0,1-.273-.067c-.329.385-.537.62-.635.717A.641.641,0,0,1,560.014,1605.745Zm3.32-32.517c-.913,0-1.7.667-2.175,1.862-1.054,2.634-.7,6.105-.359,9.462a25,25,0,0,1,.163,6.264,74.671,74.671,0,0,1-2.809,10.578.711.711,0,0,0,.055.529.2.2,0,0,1-.015.181,6.745,6.745,0,0,1-.66.943.221.221,0,0,0,0,.313,12.02,12.02,0,0,0,1.149.948,12.471,12.471,0,0,1,1.19.984.221.221,0,0,0,.318-.016c.1-.1.333-.364.7-.8a.2.2,0,0,1,.226-.054,1.058,1.058,0,0,0,.288.091c.32.012,1-.579,1.705-1.506,2.2-2.9,2.738-4.759,3.912-8.838,1.377-4.781.364-10.647-.45-15.359-.158-.915-.31-1.8-.438-2.625a3.359,3.359,0,0,0-2.58-2.944A1.905,1.905,0,0,0,563.334,1573.228Z" transform="translate(-556.683 -1572.441)" fill="#6e39b7"/>
            <path id="Trazado_40122" data-name="Trazado 40122" d="M559.406,1605.529a.98.98,0,0,1-.7-.293,11.954,11.954,0,0,0-1.1-.907,12.616,12.616,0,0,1-1.238-1.026,1.008,1.008,0,0,1,.006-1.421,4.5,4.5,0,0,0,.4-.573,1.329,1.329,0,0,1,.041-.811,73.722,73.722,0,0,0,2.766-10.427,24.577,24.577,0,0,0-.17-6.044c-.351-3.455-.714-7.024.411-9.837.658-1.645,1.83-2.5,3.213-2.338a4.1,4.1,0,0,1,3.267,3.6c.125.808.272,1.663.426,2.552l.01.059c.828,4.791,1.858,10.754.432,15.71-1.2,4.176-1.751,6.082-4.042,9.1-.955,1.257-1.756,1.865-2.4,1.813-.033,0-.068-.008-.1-.014-.246.286-.406.463-.5.552A1.029,1.029,0,0,1,559.406,1605.529Zm.135-1.123h0Zm-.237-.019h0Zm-1.986-1.8c.266.246.634.527.992.8.39.3.788.6,1.1.891.1-.111.276-.31.576-.663a.587.587,0,0,1,.676-.162,1.283,1.283,0,0,0,.154.057,4.379,4.379,0,0,0,1.376-1.347c2.157-2.838,2.686-4.677,3.847-8.707,1.352-4.7.348-10.513-.46-15.187-.159-.918-.311-1.8-.439-2.632a2.963,2.963,0,0,0-2.237-2.614c-.83-.1-1.537.484-1.985,1.6-1.018,2.545-.67,5.967-.333,9.277a25.233,25.233,0,0,1,.159,6.372,75.249,75.249,0,0,1-2.83,10.653s-.021.063.051.232a.593.593,0,0,1-.043.542A9.638,9.638,0,0,1,557.319,1602.587Zm-.117-.112h0Z" transform="translate(-556.075 -1571.833)" fill="#6e39b7"/>
          </g>
        </g>
        <g id="Grupo_22432" data-name="Grupo 22432" transform="translate(0 50.645)">
          <g id="Grupo_22423" data-name="Grupo 22423" transform="translate(0.868)">
            <g id="Grupo_22422" data-name="Grupo 22422">
              <path id="Trazado_40123" data-name="Trazado 40123" d="M546.612,1656.185c-.613-.468-.322-.99.046-1.652a10.394,10.394,0,0,0,.473-.927c.391-.892,1.964-1.379,2.031-1.4l.164-.081c.235-.107,1.065-.521,1.312-.644l.1-.274.369.134-.126.347a.2.2,0,0,1-.1.109c-.045.022-1.113.557-1.392.684l-.188.09c-.435.135-1.548.589-1.813,1.192-.166.379-.338.688-.49.96-.407.73-.464.91-.151,1.148Z" transform="translate(-545.864 -1650.705)" fill="#6e39b7"/>
              <path id="Trazado_40124" data-name="Trazado 40124" d="M546.08,1655.957l-.312-.238c-.884-.674-.427-1.5-.059-2.156a10,10,0,0,0,.457-.892c.435-.993,1.951-1.515,2.244-1.608l.136-.067c.152-.069.581-.28,1.171-.574l.18-.5,1.107.4-.26.716a.585.585,0,0,1-.289.325c-.269.135-1.148.573-1.406.69l-.233.108a3,3,0,0,0-1.57.975,11.038,11.038,0,0,1-.507.994,3.9,3.9,0,0,0-.3.61c.009.008.022.02.042.034l.313.238Z" transform="translate(-545.257 -1649.927)" fill="#6e39b7"/>
            </g>
          </g>
          <g id="Grupo_22425" data-name="Grupo 22425" transform="translate(2.426 1.517)">
            <g id="Grupo_22424" data-name="Grupo 22424">
              <path id="Trazado_40125" data-name="Trazado 40125" d="M551.1,1661.586a.59.59,0,0,1-.48-.2l.317-.232a.346.346,0,0,0,.221.035,3.988,3.988,0,0,0,1.085-.494,13.4,13.4,0,0,0,1.151-1.171l1.3-2.038a2.684,2.684,0,0,0,.416-1.773.2.2,0,0,1,.025-.15l.248-.395.332.21-.206.328a3.131,3.131,0,0,1-.487,2l-1.285,2.009a.18.18,0,0,1-.023.039,14.171,14.171,0,0,1-1.24,1.259,4.326,4.326,0,0,1-1.233.563A.64.64,0,0,1,551.1,1661.586Z" transform="translate(-550.071 -1654.626)" fill="#6e39b7"/>
              <path id="Trazado_40126" data-name="Trazado 40126" d="M550.252,1661.141a.961.961,0,0,1-.8-.362l-.23-.317.909-.666.15.155a3.709,3.709,0,0,0,.878-.41,12.616,12.616,0,0,0,1.072-1.094l1.286-2.011a2.316,2.316,0,0,0,.364-1.471.591.591,0,0,1,.075-.45l.457-.726,1,.628-.339.538a3.626,3.626,0,0,1-.571,2.129l-1.267,1.982a.509.509,0,0,1-.054.085,14.217,14.217,0,0,1-1.317,1.336,4.7,4.7,0,0,1-1.38.631A1.063,1.063,0,0,1,550.252,1661.141Z" transform="translate(-549.224 -1653.789)" fill="#6e39b7"/>
            </g>
          </g>
          <g id="Grupo_22427" data-name="Grupo 22427" transform="translate(1.258 5.102)">
            <g id="Grupo_22426" data-name="Grupo 22426">
              <path id="Trazado_40127" data-name="Trazado 40127" d="M548.24,1667.312a.628.628,0,0,1-.4-.135l-.192-.145.236-.314.2.149a.342.342,0,0,0,.371-.008,6.33,6.33,0,0,0,1.221-.961c.328-.356,1.185-1.576,1.194-1.588l.322.226c-.036.051-.881,1.254-1.226,1.629a6.745,6.745,0,0,1-1.32,1.038A.843.843,0,0,1,548.24,1667.312Z" transform="translate(-547.099 -1663.765)" fill="#6e39b7"/>
              <path id="Trazado_40128" data-name="Trazado 40128" d="M547.39,1666.86a1.012,1.012,0,0,1-.646-.222l-.5-.373.709-.941.456.343a5.946,5.946,0,0,0,1.123-.879c.244-.265.866-1.128,1.161-1.547l.226-.321.964.676-.226.322c-.151.214-.916,1.3-1.259,1.669a7.1,7.1,0,0,1-1.42,1.116A1.235,1.235,0,0,1,547.39,1666.86Zm.073-1.156.007,0Z" transform="translate(-546.249 -1662.92)" fill="#6e39b7"/>
            </g>
          </g>
          <g id="Grupo_22429" data-name="Grupo 22429" transform="translate(0.606 4.629)">
            <g id="Grupo_22428" data-name="Grupo 22428">
              <path id="Trazado_40129" data-name="Trazado 40129" d="M546.162,1666.466a.526.526,0,0,1-.4-.171,1.1,1.1,0,0,1-.058-1.094l.307.245a.839.839,0,0,0,.042.586c.065.071.206.051.344-.049a4.639,4.639,0,0,0,.835-.918c.1-.137.2-.265.293-.372.309-.363,1.127-1.578,1.135-1.59l.326.219c-.034.051-.838,1.246-1.161,1.626-.087.1-.181.225-.28.355a4.92,4.92,0,0,1-.916,1A.8.8,0,0,1,546.162,1666.466Z" transform="translate(-545.195 -1662.557)" fill="#6e39b7"/>
              <path id="Trazado_40130" data-name="Trazado 40130" d="M545.557,1666.016a.919.919,0,0,1-.69-.3,1.467,1.467,0,0,1-.074-1.6l.245-.307.865.689c.146-.163.284-.344.412-.512.109-.143.211-.276.306-.388.246-.289.883-1.221,1.108-1.555l.219-.326.979.657-.22.326c-.145.215-.872,1.29-1.188,1.661-.083.1-.172.215-.266.339a5.214,5.214,0,0,1-1,1.077A1.188,1.188,0,0,1,545.557,1666.016Z" transform="translate(-544.59 -1661.715)" fill="#6e39b7"/>
            </g>
          </g>
          <g id="Grupo_22431" data-name="Grupo 22431" transform="translate(0 3.542)">
            <g id="Grupo_22430" data-name="Grupo 22430">
              <path id="Trazado_40131" data-name="Trazado 40131" d="M544.527,1664.015a.406.406,0,0,1-.278-.106.69.69,0,0,1-.1-.844,10.659,10.659,0,0,1,.746-1c.106-.132.2-.251.269-.342.243-.319.822-1.425.828-1.436l.348.182a17.005,17.005,0,0,1-.864,1.492c-.07.092-.168.214-.276.349a10.7,10.7,0,0,0-.713.955.306.306,0,0,0,.024.355c.023.02.146-.021.281-.148a8.224,8.224,0,0,0,.823-1.065l.108-.156c.346-.493,1.212-1.481,1.249-1.523l.3.259c-.009.01-.889,1.014-1.223,1.49l-.107.153a8.261,8.261,0,0,1-.877,1.128A.821.821,0,0,1,544.527,1664.015Z" transform="translate(-543.656 -1659.76)" fill="#6e39b7"/>
              <path id="Trazado_40132" data-name="Trazado 40132" d="M543.917,1663.6a.8.8,0,0,1-.54-.206,1.076,1.076,0,0,1-.178-1.334,10.834,10.834,0,0,1,.779-1.05c.106-.133.2-.247.263-.334a14.961,14.961,0,0,0,.791-1.376l.183-.347,1.012.524.1-.113.882.773-.251.295c-.437.5-.975,1.14-1.2,1.461l-.106.153a8.465,8.465,0,0,1-.93,1.189A1.2,1.2,0,0,1,543.917,1663.6Z" transform="translate(-543.046 -1658.948)" fill="#6e39b7"/>
            </g>
          </g>
        </g>
        <g id="Grupo_22434" data-name="Grupo 22434" transform="translate(12.317 0)">
          <g id="Grupo_22433" data-name="Grupo 22433">
            <path id="Trazado_40133" data-name="Trazado 40133" d="M584.347,1524.01c-.279-.653-.39-.955-1.977-1.758-1.348-.682-4.133-.223-5.892,1.585-1.806,1.856-.775,2.683-.775,2.683s2.7,1.721,3.062.312l3.452,1.457a1.106,1.106,0,0,0,.624-.307,1.493,1.493,0,0,1,1.21-.307A4.347,4.347,0,0,0,584.347,1524.01Z" transform="translate(-575.019 -1521.562)" fill="#6e39b7"/>
            <path id="Trazado_40134" data-name="Trazado 40134" d="M581.543,1528.085l-3.193-1.348a1.026,1.026,0,0,1-.46.35c-1,.393-2.678-.629-3-.838l-.035-.025a1.327,1.327,0,0,1-.437-.941,3.272,3.272,0,0,1,1.176-2.322c1.873-1.924,4.85-2.42,6.351-1.662,1.622.821,1.831,1.184,2.148,1.924l-.349.184.361-.154a4.715,4.715,0,0,1-.321,4.024l-.144.236-.271-.055a1.109,1.109,0,0,0-.862.209,1.5,1.5,0,0,1-.869.413Zm-3.649-2.393,3.76,1.588a.816.816,0,0,0,.313-.186,1.752,1.752,0,0,1,1.251-.435,3.881,3.881,0,0,0,.161-3.1l-.013-.029c-.244-.57-.344-.806-1.78-1.532-1.109-.562-3.713-.259-5.433,1.508-.808.83-.966,1.383-.957,1.7a.613.613,0,0,0,.142.4c.677.425,1.807.928,2.264.75a.282.282,0,0,0,.176-.225Z" transform="translate(-574.411 -1520.96)" fill="#6e39b7"/>
          </g>
        </g>
        <g id="Grupo_22436" data-name="Grupo 22436" transform="translate(14.689 0.067)">
          <g id="Grupo_22435" data-name="Grupo 22435">
            <path id="Trazado_40135" data-name="Trazado 40135" d="M591.229,1526.308c-.3-1.511-.531-1.977-1.3-2.578-1.293-1.01-4.156-2.533-6.6-.824-2.495,1.744-2.1,8.064-1.091,9.306.239.293.713-.112,1.182-.479a1.082,1.082,0,0,1,.926-.93c.815-.1.789.522.6,1.145a2.2,2.2,0,0,1-.087.231,3.131,3.131,0,0,1,.2,1.059,6.442,6.442,0,0,0,.336,2.474c1.078.919,2.9-.135,3.346-.795.9-1.325,1.927-2.216,2.448-4.025A9.276,9.276,0,0,0,591.229,1526.308Z" transform="translate(-581.06 -1521.74)" fill="#6e39b7"/>
            <path id="Trazado_40136" data-name="Trazado 40136" d="M585.817,1535.854a1.945,1.945,0,0,1-1.289-.454c-.481-.41-.474-2.754-.474-2.778a2.739,2.739,0,0,0-.174-.926l-.049-.143.059-.139a1.691,1.691,0,0,0,.072-.189c.153-.508.07-.626.069-.627s-.055-.038-.248-.014a.7.7,0,0,0-.588.621l-.029.14-.2.156c-.5.39-1.174.925-1.642.351-.728-.892-1.073-3.6-.752-5.9.185-1.329.668-3.1,1.923-3.974,3.011-2.1,6.415.327,7.067.836.847.662,1.131,1.213,1.444,2.811h0a9.609,9.609,0,0,1-.052,4.769,8.849,8.849,0,0,1-1.758,3.137c-.247.318-.5.647-.743,1a3.7,3.7,0,0,1-2.292,1.3A2.589,2.589,0,0,1,585.817,1535.854Zm-.746-1.024a1.268,1.268,0,0,0,.986.222,2.961,2.961,0,0,0,1.747-.966c.254-.373.517-.713.771-1.04a8.079,8.079,0,0,0,1.625-2.873,8.855,8.855,0,0,0,.036-4.4h0c-.291-1.489-.508-1.838-1.156-2.344-.576-.449-3.576-2.6-6.134-.811a4.979,4.979,0,0,0-1.595,3.438,9.626,9.626,0,0,0,.539,5.239,3.576,3.576,0,0,0,.573-.4,1.441,1.441,0,0,1,1.227-1.094,1,1,0,0,1,.942.289,1.475,1.475,0,0,1,.082,1.358c-.014.047-.029.09-.045.132a3.376,3.376,0,0,1,.17,1.05A8.245,8.245,0,0,0,585.071,1534.829Z" transform="translate(-580.452 -1521.13)" fill="#6e39b7"/>
          </g>
        </g>
        <g id="Grupo_22438" data-name="Grupo 22438" transform="translate(16.396 8.531)">
          <g id="Grupo_22437" data-name="Grupo 22437">
            <path id="Trazado_40137" data-name="Trazado 40137" d="M586.611,1546.28a.612.612,0,0,1-.231-.044.712.712,0,0,1-.348-.338l.346-.186a.339.339,0,0,0,.15.16.388.388,0,0,0,.291-.04,1.3,1.3,0,0,0,.624-.855c.163-.543.09-.741.031-.81-.084-.1-.276-.1-.421-.083a.973.973,0,0,0-.787.966l-.391-.031a1.333,1.333,0,0,1,1.132-1.325.819.819,0,0,1,.769.22c.2.238.214.611.044,1.176a1.729,1.729,0,0,1-.831,1.1A.878.878,0,0,1,586.611,1546.28Z" transform="translate(-585.452 -1543.291)" fill="#6e39b7"/>
            <path id="Trazado_40138" data-name="Trazado 40138" d="M585.958,1546.066a1,1,0,0,1-.38-.073,1.1,1.1,0,0,1-.546-.516l-.185-.346.575-.309-.623-.049.031-.392a1.729,1.729,0,0,1,1.476-1.684,1.18,1.18,0,0,1,1.116.357,1.641,1.641,0,0,1,.12,1.542,2.117,2.117,0,0,1-1.037,1.338A1.274,1.274,0,0,1,585.958,1546.066Zm.024-1.308.051.094a1,1,0,0,0,.381-.593,1.809,1.809,0,0,0,.082-.4l-.048,0c-.347.042-.426.4-.443.607Z" transform="translate(-584.799 -1542.684)" fill="#6e39b7"/>
          </g>
        </g>
        <g id="Grupo_22440" data-name="Grupo 22440" transform="translate(12.629 7.353)">
          <g id="Grupo_22439" data-name="Grupo 22439">
            <path id="Trazado_40139" data-name="Trazado 40139" d="M576.632,1542.94l-.318-.159a.2.2,0,0,1-.1-.212l.318-1.718.386.072-.292,1.573.187.094Z" transform="translate(-575.813 -1540.393)" fill="#6e39b7"/>
            <path id="Trazado_40140" data-name="Trazado 40140" d="M576.2,1542.759l-.669-.335a.594.594,0,0,1-.315-.634l.39-2.1,1.158.215-.31,1.668.274.138Z" transform="translate(-575.205 -1539.685)" fill="#6e39b7"/>
          </g>
        </g>
        <g id="Grupo_22442" data-name="Grupo 22442" transform="translate(16.438 13.353)">
          <g id="Grupo_22441" data-name="Grupo 22441" transform="translate(0 0)">
            <rect id="Rectángulo_1042" data-name="Rectángulo 1042" width="0.393" height="2.168" transform="translate(0.407 0.422) rotate(-2.168)" fill="#6e39b7"/>
            <rect id="Rectángulo_1043" data-name="Rectángulo 1043" width="1.178" height="2.953" transform="translate(0 0.045) rotate(-2.169)" fill="#6e39b7"/>
          </g>
        </g>
        <g id="Grupo_22444" data-name="Grupo 22444" transform="translate(20.508 59.488)">
          <g id="Grupo_22443" data-name="Grupo 22443">
            <path id="Trazado_40141" data-name="Trazado 40141" d="M596.38,1683.756a40.877,40.877,0,0,1,.716-10.132l.385.078a40.437,40.437,0,0,0-.71,10.01Z" transform="translate(-595.877 -1673.163)" fill="#6e39b7"/>
            <path id="Trazado_40142" data-name="Trazado 40142" d="M595.424,1683.475l-.043-.39a41.078,41.078,0,0,1,.721-10.252l.078-.385,1.154.232-.077.385a40.191,40.191,0,0,0-.705,9.89l.044.39Z" transform="translate(-595.269 -1672.448)" fill="#6e39b7"/>
          </g>
        </g>
      </g>
      <g id="Grupo_22446" data-name="Grupo 22446" transform="translate(107.702 1244.061)">
        <path id="Trazado_40143" data-name="Trazado 40143" d="M206.728,1297.405a10.394,10.394,0,0,0-.15,2.433c.9-.513,1.842-.949,2.433-1.243a6.879,6.879,0,0,1,.955-.386c.018-.34.042-.694.075-1.058.02-.224.089-1.019.163-1.878-.007-.052-.02-.1-.024-.158s-.009-.141-.011-.217a.52.52,0,0,1-.295.031,1.264,1.264,0,0,1-.957-1.141c-.081-.58.22-1.034.742-.942a1.027,1.027,0,0,1,.574.291c.085-1.12.218-2.2.218-2.2.362-1.45,5.887-1.618,6.278.595a13.232,13.232,0,0,1-.3,4.076,4.484,4.484,0,0,1-1.623,2.321c.225.03.4.055.5.062a3.006,3.006,0,0,1,.675.13c1.177-4.242,2.695-6.373,1.455-9.461-1.048-2.612-2.221-3.879-5.678-4.125-1.118-.08-3.091.155-4.938,2.625-1.134,1.517-1.206,4.56-1.136,5.815C205.775,1294.723,207,1295.8,206.728,1297.405Z" transform="translate(-205.66 -1284.527)" fill="#6e39b7"/>
      </g>
      <g id="Grupo_22447" data-name="Grupo 22447" transform="translate(110.521 1246.393)">
        <path id="Trazado_40144" data-name="Trazado 40144" d="M220.214,1291.764a4.01,4.01,0,0,0-4.747-.9,3.384,3.384,0,0,0-2.361,2.068,5.18,5.18,0,0,0,.227,3.9.588.588,0,0,1,.686-.384,1.135,1.135,0,0,1,.915,1.011.967.967,0,0,1,.019.115c.375-.019,1.1-.085,1.255-.324a3.437,3.437,0,0,0,.054-1.246l.575,1.184,4.7-.649S221.717,1293.237,220.214,1291.764Z" transform="translate(-212.838 -1290.464)" fill="#6e39b7"/>
      </g>
      <g id="Grupo_22448" data-name="Grupo 22448" transform="translate(110.98 1254.421)">
        <path id="Trazado_40145" data-name="Trazado 40145" d="M214.153,1314.8l-.147-.364.84-.34.2-3.187.392.024-.2,3.31a.2.2,0,0,1-.122.17Z" transform="translate(-214.006 -1310.908)" fill="#6e39b7"/>
      </g>
      <g id="Grupo_22449" data-name="Grupo 22449" transform="translate(116.82 1257.272)">
        <rect id="Rectángulo_1044" data-name="Rectángulo 1044" width="0.393" height="0.587" transform="matrix(0.124, -0.992, 0.992, 0.124, 0, 0.39)" fill="#6e39b7"/>
      </g>
      <g id="Grupo_22451" data-name="Grupo 22451" transform="translate(110.465 1332.777)">
        <g id="Grupo_22450" data-name="Grupo 22450" transform="translate(0 0)">
          <path id="Trazado_40146" data-name="Trazado 40146" d="M216.19,1512.685a2.99,2.99,0,0,1-2.086-.574l.276-.279c.007.007.681.63,2.56.416l.044.39A7.107,7.107,0,0,1,216.19,1512.685Z" transform="translate(-213.55 -1511.287)" fill="#6e39b7"/>
          <path id="Trazado_40147" data-name="Trazado 40147" d="M215.334,1512.235a3.342,3.342,0,0,1-2.364-.689l-.276-.276.816-.826.279.256a3.146,3.146,0,0,0,2.25.315l.39-.044.132,1.171-.39.044A7.59,7.59,0,0,1,215.334,1512.235Z" transform="translate(-212.694 -1510.445)" fill="#6e39b7"/>
        </g>
      </g>
      <g id="Grupo_22453" data-name="Grupo 22453" transform="translate(118.216 1334.425)">
        <g id="Grupo_22452" data-name="Grupo 22452" transform="translate(0 0)">
          <path id="Trazado_40148" data-name="Trazado 40148" d="M235.276,1516.773a2.682,2.682,0,0,1-1.451-.382l.223-.323-.112.162.111-.162a2.823,2.823,0,0,0,2.8-.088l.174.352A3.915,3.915,0,0,1,235.276,1516.773Z" transform="translate(-233.278 -1515.453)" fill="#6e39b7"/>
          <path id="Trazado_40149" data-name="Trazado 40149" d="M234.431,1516.352a3.07,3.07,0,0,1-1.674-.452l-.324-.223.666-.97.324.222a2.451,2.451,0,0,0,2.408-.116l.352-.175.523,1.055-.351.174A4.316,4.316,0,0,1,234.431,1516.352Z" transform="translate(-232.433 -1514.639)" fill="#6e39b7"/>
        </g>
      </g>
      <g id="Grupo_22455" data-name="Grupo 22455" transform="translate(65.249 1366.919)">
        <g id="Grupo_22454" data-name="Grupo 22454">
          <path id="Trazado_40150" data-name="Trazado 40150" d="M145.818,1655.576,99.092,1628.4a1.258,1.258,0,0,1-.54-.946l.02-1.905a.2.2,0,0,1,.1-.168l46.426-26.968a.194.194,0,0,1,.2,0l69.377,40.309a.2.2,0,0,1,.1.174l-.045,2.479a.2.2,0,0,1-.019.08,1.8,1.8,0,0,1-.507.677l-6.568,3.764-.2-.34L214,1641.79a1.418,1.418,0,0,0,.329-.466l.042-2.321-69.179-40.194-46.231,26.855-.019,1.793a.871.871,0,0,0,.359.611l46.712,27.169Z" transform="translate(-98.159 -1597.993)" fill="#6e39b7"/>
          <path id="Trazado_40151" data-name="Trazado 40151" d="M145.353,1655.506,98.287,1628.13a1.644,1.644,0,0,1-.735-1.29l.02-1.9a.591.591,0,0,1,.295-.5l46.424-26.967a.586.586,0,0,1,.593,0l69.376,40.308a.589.589,0,0,1,.293.52l-.045,2.479a.6.6,0,0,1-.055.237,2.019,2.019,0,0,1-.668.853l-6.909,3.959-.586-1.022,6.884-3.946a1.516,1.516,0,0,0,.157-.239l.037-2-68.782-39.963-45.84,26.628-.017,1.57c0,.094.114.222.185.28l47.029,27.354Zm67.814-14.641h0Zm.033-.022h0Z" transform="translate(-97.552 -1597.385)" fill="#6e39b7"/>
        </g>
      </g>
      <g id="Grupo_22457" data-name="Grupo 22457" transform="translate(111.615 1366.979)">
        <g id="Grupo_22456" data-name="Grupo 22456" transform="translate(0 0)">
          <rect id="Rectángulo_1045" data-name="Rectángulo 1045" width="0.393" height="32.436" transform="matrix(0.968, -0.252, 0.252, 0.968, 0.479, 0.578)" fill="#6e39b7"/>
          <rect id="Rectángulo_1046" data-name="Rectángulo 1046" width="1.178" height="33.221" transform="matrix(0.968, -0.252, 0.252, 0.968, 0, 0.297)" fill="#6e39b7"/>
        </g>
      </g>
      <g id="Grupo_22459" data-name="Grupo 22459" transform="translate(64.998 1393.887)">
        <g id="Grupo_22458" data-name="Grupo 22458">
          <path id="Trazado_40152" data-name="Trazado 40152" d="M148.333,1695.841,98.7,1667.427a.2.2,0,0,1,.113-.366l59.318,4.8a.2.2,0,0,1,.173.142l4.358,15.359-.378.107-4.32-15.227-58.305-4.72,48.867,27.978Z" transform="translate(-97.94 -1666.667)" fill="#6e39b7"/>
          <path id="Trazado_40153" data-name="Trazado 40153" d="M147.451,1695.77l-.341-.195L97.48,1667.16a.587.587,0,0,1-.287-.617l-.281-.161.323.026a.6.6,0,0,1,.584-.347l59.32,4.8a.593.593,0,0,1,.519.427l4.465,15.737-1.133.321L156.636,1672l-56.281-4.556,47.681,27.3Z" transform="translate(-96.912 -1666.06)" fill="#6e39b7"/>
        </g>
      </g>
      <g id="Grupo_22461" data-name="Grupo 22461" transform="translate(158.676 1405.118)">
        <g id="Grupo_22460" data-name="Grupo 22460">
          <path id="Trazado_40154" data-name="Trazado 40154" d="M349.664,1703.572l-.193-.342,9-5.071-21.915-2.018.036-.391,22.541,2.076a.2.2,0,0,1,.079.366Z" transform="translate(-336.125 -1695.323)" fill="#6e39b7"/>
          <path id="Trazado_40155" data-name="Trazado 40155" d="M348.855,1703.446l-.579-1.026,8.241-4.646-21.053-1.939.108-1.173,22.932,2.112a.585.585,0,0,1,.517.442l.073.007-.064.036a.587.587,0,0,1-.291.615Z" transform="translate(-335.465 -1694.662)" fill="#6e39b7"/>
        </g>
      </g>
      <g id="Grupo_22463" data-name="Grupo 22463" transform="translate(125.704 1402.082)">
        <g id="Grupo_22462" data-name="Grupo 22462" transform="translate(0 0)">
          <rect id="Rectángulo_1047" data-name="Rectángulo 1047" width="0.393" height="20.881" transform="translate(0.427 0.818) rotate(-84.739)" fill="#6e39b7"/>
          <rect id="Rectángulo_1048" data-name="Rectángulo 1048" width="1.178" height="21.666" transform="translate(0 1.173) rotate(-84.738)" fill="#6e39b7"/>
        </g>
      </g>
      <g id="Grupo_22465" data-name="Grupo 22465" transform="translate(105.032 1401.054)">
        <g id="Grupo_22464" data-name="Grupo 22464">
          <path id="Trazado_40156" data-name="Trazado 40156" d="M269.309,1754.987a2.493,2.493,0,0,1-1.266-.317c-1.1-.639-66.978-38.959-67.644-39.346a1.26,1.26,0,0,1-.54-.946l.02-1.9a.2.2,0,0,1,.1-.168l46.426-26.968a.2.2,0,0,1,.2,0l69.377,40.309a.2.2,0,0,1,.1.173l-.046,2.479a.2.2,0,0,1-.018.08,1.8,1.8,0,0,1-.507.677L270.8,1754.679A4.016,4.016,0,0,1,269.309,1754.987Zm-69.038-42.4-.019,1.793a.87.87,0,0,0,.359.612l67.63,39.337a3.008,3.008,0,0,0,2.383,0s44.483-25.5,44.687-25.614a1.453,1.453,0,0,0,.328-.467l.043-2.32L246.5,1685.735Z" transform="translate(-199.467 -1684.919)" fill="#6e39b7"/>
          <path id="Trazado_40157" data-name="Trazado 40157" d="M268.7,1754.773a2.866,2.866,0,0,1-1.464-.37c-1.13-.659-67.019-38.983-67.644-39.346a1.643,1.643,0,0,1-.735-1.289l.02-1.9a.592.592,0,0,1,.294-.5l46.425-26.967a.588.588,0,0,1,.593,0l69.376,40.309a.588.588,0,0,1,.293.52l-.046,2.479a.583.583,0,0,1-.056.239,2.059,2.059,0,0,1-.667.851l-44.705,25.622A4.361,4.361,0,0,1,268.7,1754.773Zm-68.479-40.713c1.525.886,66.4,38.618,67.609,39.324a2.671,2.671,0,0,0,2.032-.024l.011.027c.274-.194.816-.5,1.858-1.1l20.355-11.667,22.4-12.836a1.538,1.538,0,0,0,.157-.24l.037-2-68.782-39.963-45.84,26.628-.017,1.57C200.037,1713.874,200.151,1714,200.223,1714.06Zm114.251,13.732Z" transform="translate(-198.86 -1684.311)" fill="#6e39b7"/>
        </g>
      </g>
      <g id="Grupo_22467" data-name="Grupo 22467" transform="translate(180.094 1268.609)">
        <g id="Grupo_22466" data-name="Grupo 22466" transform="translate(0 0)">
          <rect id="Rectángulo_1049" data-name="Rectángulo 1049" width="0.393" height="58.372" transform="translate(0.535 0.877) rotate(-60.729)" fill="#6e39b7"/>
          <path id="Trazado_40158" data-name="Trazado 40158" d="M441.609,1376.992l-.342-.192-51.262-28.733.577-1.027.342.192,51.262,28.733Z" transform="translate(-390.005 -1347.04)" fill="#6e39b7"/>
        </g>
      </g>
      <g id="Grupo_22469" data-name="Grupo 22469" transform="translate(177.558 1282.88)">
        <g id="Grupo_22468" data-name="Grupo 22468">
          <rect id="Rectángulo_1050" data-name="Rectángulo 1050" width="0.393" height="58.372" transform="translate(0.535 0.877) rotate(-60.729)" fill="#6e39b7"/>
          <path id="Trazado_40159" data-name="Trazado 40159" d="M435.153,1413.331l-.342-.192-51.262-28.732.577-1.027.342.192,51.262,28.732Z" transform="translate(-383.548 -1383.38)" fill="#6e39b7"/>
        </g>
      </g>
      <g id="Grupo_22471" data-name="Grupo 22471" transform="translate(175.023 1297.15)">
        <g id="Grupo_22470" data-name="Grupo 22470" transform="translate(0 0)">
          <rect id="Rectángulo_1051" data-name="Rectángulo 1051" width="0.393" height="58.372" transform="matrix(0.489, -0.872, 0.872, 0.489, 0.535, 0.877)" fill="#6e39b7"/>
          <path id="Trazado_40160" data-name="Trazado 40160" d="M428.7,1449.671l-.342-.192-51.262-28.733.577-1.027.342.192,51.262,28.733Z" transform="translate(-377.092 -1419.719)" fill="#6e39b7"/>
        </g>
      </g>
      <path id="Trazado_40161" data-name="Trazado 40161" d="M90.929,1730.574l-29.918,16.961,57.87,33.2,29.737-17.537-.867-2.009-31.822-19.318.019-1.793,7.071-4.222-2.964-1.761" transform="translate(-10.111 -311.353)" fill="#e8e34a" opacity="0.6"/>
    </g>
  </g>
</svg>
